G04 #@! TF.FileFunction,Copper,L2,Bot,Signal*
%FSLAX46Y46*%
G04 Gerber Fmt 4.6, Leading zero omitted, Abs format (unit mm)*
G04 Created by KiCad (PCBNEW 4.0.2-4+6225~38~ubuntu14.04.1-stable) date Fri 18 Mar 2016 13:27:36 GMT*
%MOMM*%
G01*
G04 APERTURE LIST*
%ADD10C,0.100000*%
%ADD11R,1.000000X1.250000*%
%ADD12R,1.524000X1.524000*%
%ADD13R,1.727200X1.727200*%
%ADD14O,1.727200X1.727200*%
%ADD15R,1.250000X1.000000*%
%ADD16C,1.900000*%
%ADD17C,2.700000*%
%ADD18R,1.300000X0.700000*%
%ADD19C,1.200000*%
%ADD20R,1.200000X1.200000*%
%ADD21C,1.000000*%
%ADD22C,1.024000*%
%ADD23C,1.500000*%
%ADD24C,1.024000*%
%ADD25C,0.762000*%
%ADD26C,0.508000*%
%ADD27C,0.381000*%
%ADD28C,0.254000*%
G04 APERTURE END LIST*
D10*
D11*
X104680000Y-139700000D03*
X106680000Y-139700000D03*
X104680000Y-141732000D03*
X106680000Y-141732000D03*
X92980000Y-148336000D03*
X94980000Y-148336000D03*
D12*
X127508000Y-134112000D03*
X125984000Y-154940000D03*
X112522000Y-140208000D03*
X110236000Y-140208000D03*
D13*
X110998000Y-126746000D03*
D14*
X110998000Y-129286000D03*
X113538000Y-126746000D03*
X113538000Y-129286000D03*
X116078000Y-126746000D03*
X116078000Y-129286000D03*
X118618000Y-126746000D03*
X118618000Y-129286000D03*
X121158000Y-126746000D03*
X121158000Y-129286000D03*
X123698000Y-126746000D03*
X123698000Y-129286000D03*
X126238000Y-126746000D03*
X126238000Y-129286000D03*
X128778000Y-126746000D03*
X128778000Y-129286000D03*
D15*
X111506000Y-113046000D03*
X111506000Y-115046000D03*
D16*
X122682000Y-157480000D03*
X120142000Y-157480000D03*
X117602000Y-157480000D03*
X115062000Y-157480000D03*
X112522000Y-157480000D03*
X109982000Y-157480000D03*
X107442000Y-157480000D03*
X104902000Y-157480000D03*
X102362000Y-157480000D03*
X99822000Y-157480000D03*
X97282000Y-157480000D03*
X94742000Y-157480000D03*
X92202000Y-157480000D03*
X89662000Y-157480000D03*
X87122000Y-157480000D03*
X84582000Y-157480000D03*
D17*
X36982000Y-102980000D03*
X129982000Y-102980000D03*
X129982000Y-157980000D03*
X36982000Y-157980000D03*
D11*
X84090000Y-154940000D03*
X86090000Y-154940000D03*
D18*
X97790000Y-133792000D03*
X97790000Y-131892000D03*
D19*
X86812000Y-152256000D03*
X89352000Y-152256000D03*
X91892000Y-152256000D03*
X94432000Y-152256000D03*
X96972000Y-152256000D03*
X99512000Y-152256000D03*
X102052000Y-152256000D03*
X104592000Y-152256000D03*
X107132000Y-152256000D03*
X109672000Y-152256000D03*
X112212000Y-152256000D03*
X114752000Y-152256000D03*
X117292000Y-152256000D03*
X119832000Y-152256000D03*
X122372000Y-152256000D03*
X124912000Y-152256000D03*
X127452000Y-152256000D03*
D20*
X86812000Y-137016000D03*
D19*
X89352000Y-137016000D03*
X91892000Y-137016000D03*
X94432000Y-137016000D03*
X96972000Y-137016000D03*
X99512000Y-137016000D03*
X102052000Y-137016000D03*
X104592000Y-137016000D03*
X107132000Y-137016000D03*
X109672000Y-137016000D03*
X112212000Y-137016000D03*
X114752000Y-137016000D03*
X117292000Y-137016000D03*
X119832000Y-137016000D03*
X122372000Y-137016000D03*
X124912000Y-137016000D03*
X127452000Y-137016000D03*
D21*
X89154000Y-148844000D03*
X88392000Y-148082000D03*
X88392000Y-146304000D03*
X85298002Y-148844000D03*
X86106000Y-148082000D03*
X86360000Y-146304000D03*
X89408000Y-145288000D03*
X85298002Y-145288000D03*
X92980000Y-148336000D03*
D22*
X114300000Y-133858000D03*
D21*
X104648000Y-147320000D03*
X128016000Y-139954000D03*
X94996000Y-149098000D03*
X94742000Y-142814000D03*
D23*
X92554000Y-131953000D03*
X111506000Y-115046000D03*
D21*
X130302000Y-130048000D03*
D23*
X86614000Y-115062000D03*
X107744000Y-141655998D03*
D21*
X119634000Y-123952000D03*
X116586000Y-123952000D03*
D23*
X113506174Y-142755372D03*
X108392000Y-113030000D03*
X108392000Y-121920000D03*
D21*
X116840000Y-150622000D03*
D23*
X98298000Y-121633000D03*
X90678000Y-133858000D03*
X103570990Y-141655998D03*
X100838000Y-141986000D03*
X111506000Y-113046000D03*
D21*
X97790000Y-128016000D03*
X103013452Y-125365452D03*
X113228817Y-123221873D03*
X103124000Y-121666000D03*
X99822000Y-115570000D03*
X99728000Y-129413000D03*
X102362000Y-130556000D03*
X96774000Y-125730000D03*
X95758000Y-128270000D03*
X120864413Y-133389587D03*
X94328000Y-129413000D03*
X105918000Y-125222000D03*
X105330087Y-124175883D03*
X110998000Y-118110000D03*
X95758000Y-126746000D03*
X109728000Y-119380000D03*
X97536000Y-124714000D03*
X117602000Y-120650000D03*
X119634000Y-120650000D03*
X115570000Y-115570000D03*
X116586000Y-114046000D03*
X117348000Y-135128000D03*
X118618000Y-135128000D03*
X91948000Y-142240000D03*
X85090000Y-142240000D03*
D24*
X92964000Y-150368000D02*
X90678000Y-150368000D01*
X90678000Y-150368000D02*
X89154000Y-148844000D01*
X89408000Y-145288000D02*
X88392000Y-146304000D01*
X85298002Y-148844000D02*
X85344000Y-148844000D01*
X85298002Y-145288000D02*
X85298002Y-148844000D01*
X85344000Y-148844000D02*
X86106000Y-148082000D01*
X85298002Y-145288000D02*
X85344000Y-145288000D01*
X85344000Y-145288000D02*
X86360000Y-146304000D01*
X85298002Y-145288000D02*
X89408000Y-145288000D01*
X111874500Y-148958500D02*
X97675500Y-148958500D01*
X97675500Y-148958500D02*
X96266000Y-150368000D01*
X92980000Y-148336000D02*
X92964000Y-148352000D01*
X92964000Y-148352000D02*
X92964000Y-150368000D01*
X93980000Y-150368000D02*
X92964000Y-150368000D01*
X93980000Y-150368000D02*
X96266000Y-150368000D01*
X91948000Y-152400000D02*
X93980000Y-150368000D01*
X111874500Y-148958500D02*
X117178000Y-143655000D01*
X114300000Y-133858000D02*
X119539064Y-133858000D01*
X119539064Y-133858000D02*
X121158000Y-135476936D01*
D25*
X121158000Y-137668000D02*
X121158000Y-135636000D01*
D24*
X121158000Y-135476936D02*
X121158000Y-135636000D01*
X120396000Y-138430000D02*
X120396000Y-139293000D01*
D25*
X120396000Y-138430000D02*
X121158000Y-137668000D01*
D24*
X120396000Y-139293000D02*
X117383000Y-142306000D01*
X117383000Y-142306000D02*
X117178000Y-142306000D01*
X117178000Y-143655000D02*
X117178000Y-142306000D01*
X94488000Y-152274000D02*
X91822000Y-154940000D01*
X91822000Y-154940000D02*
X88138000Y-154940000D01*
X88138000Y-154940000D02*
X86090000Y-154940000D01*
X104648000Y-147320000D02*
X104648000Y-144751998D01*
X104648000Y-144751998D02*
X107744000Y-141655998D01*
X128016000Y-139954000D02*
X128016000Y-148590000D01*
X128016000Y-148590000D02*
X129286000Y-149860000D01*
X129286000Y-149860000D02*
X129286000Y-155194000D01*
X129286000Y-155194000D02*
X127000000Y-157480000D01*
X127000000Y-157480000D02*
X122682000Y-157480000D01*
X94980000Y-148336000D02*
X94980000Y-144764000D01*
D26*
X94980000Y-144764000D02*
X93218000Y-143002000D01*
X94980000Y-149082000D02*
X94980000Y-148336000D01*
X94996000Y-149098000D02*
X94980000Y-149082000D01*
X94676000Y-142748000D02*
X94742000Y-142814000D01*
X94676000Y-142748000D02*
X93218000Y-142748000D01*
X93218000Y-143002000D02*
X93218000Y-142748000D01*
D24*
X86090000Y-154940000D02*
X86090000Y-155210000D01*
X86090000Y-155210000D02*
X84582000Y-156718000D01*
X84582000Y-156718000D02*
X84582000Y-157480000D01*
D26*
X93218000Y-143002000D02*
X93218000Y-143002000D01*
X93218000Y-140716000D02*
X93218000Y-143002000D01*
X95760000Y-140716000D02*
X93218000Y-140716000D01*
X93218000Y-140716000D02*
X84836000Y-140716000D01*
X92554000Y-131953000D02*
X92554000Y-133013660D01*
X92554000Y-133013660D02*
X93218000Y-133677660D01*
X93218000Y-133677660D02*
X93218000Y-140716000D01*
D24*
X105732603Y-138346001D02*
X106680000Y-139293398D01*
X106680000Y-139293398D02*
X106680000Y-139700000D01*
X111506000Y-115046000D02*
X109857000Y-115046000D01*
D26*
X128778000Y-126746000D02*
X130302000Y-128270000D01*
X130302000Y-128270000D02*
X130302000Y-130048000D01*
X83566000Y-139446000D02*
X83566000Y-118110000D01*
X105918000Y-146050000D02*
X107950000Y-146050000D01*
X104648000Y-147320000D02*
X105918000Y-146050000D01*
X102870000Y-145542000D02*
X104648000Y-147320000D01*
X101600000Y-145542000D02*
X102870000Y-145542000D01*
X98298000Y-142494000D02*
X101346000Y-145542000D01*
X101346000Y-145542000D02*
X101600000Y-145542000D01*
X98298000Y-138178000D02*
X95760000Y-140716000D01*
X98298000Y-138178000D02*
X98298000Y-142494000D01*
X86614000Y-115062000D02*
X89916000Y-111760000D01*
X83566000Y-118110000D02*
X86614000Y-115062000D01*
X84836000Y-140716000D02*
X83566000Y-139446000D01*
D24*
X107744000Y-140764000D02*
X106680000Y-139700000D01*
X107744000Y-141655998D02*
X107744000Y-140764000D01*
X106680000Y-141732000D02*
X106680000Y-139700000D01*
X107744000Y-141655998D02*
X106756002Y-141655998D01*
X106756002Y-141655998D02*
X106680000Y-141732000D01*
X108458000Y-113647000D02*
X108458000Y-113096000D01*
X108458000Y-113096000D02*
X108392000Y-113030000D01*
X109857000Y-115046000D02*
X108458000Y-113647000D01*
X109857000Y-115046000D02*
X108458000Y-116445000D01*
X108458000Y-116445000D02*
X108458000Y-121854000D01*
X108843374Y-142755372D02*
X107744000Y-141655998D01*
X113506174Y-142755372D02*
X108843374Y-142755372D01*
D26*
X116586000Y-123952000D02*
X119634000Y-123952000D01*
X114808000Y-121920000D02*
X116586000Y-123698000D01*
X116586000Y-123698000D02*
X116586000Y-123952000D01*
X108392000Y-121920000D02*
X114808000Y-121920000D01*
D24*
X108458000Y-121854000D02*
X108392000Y-121920000D01*
D26*
X113562000Y-142748000D02*
X113513546Y-142748000D01*
X113513546Y-142748000D02*
X113506174Y-142755372D01*
D24*
X99568000Y-137034000D02*
X100880001Y-138346001D01*
X100880001Y-138346001D02*
X105732603Y-138346001D01*
D26*
X99568000Y-136908000D02*
X98298000Y-138178000D01*
D24*
X101220000Y-150622000D02*
X99568000Y-152274000D01*
X116840000Y-150622000D02*
X101220000Y-150622000D01*
X98298000Y-121633000D02*
X96045000Y-121633000D01*
X96045000Y-121633000D02*
X90678000Y-127000000D01*
X90678000Y-127000000D02*
X90678000Y-133858000D01*
X100838000Y-141986000D02*
X103240988Y-141986000D01*
X103240988Y-141986000D02*
X103570990Y-141655998D01*
X103570990Y-141655998D02*
X103570990Y-140809010D01*
X111506000Y-113046000D02*
X111381000Y-113046000D01*
X111381000Y-113046000D02*
X109902999Y-111567999D01*
X103570990Y-140809010D02*
X104680000Y-139700000D01*
X104680000Y-139700000D02*
X104680000Y-141732000D01*
X103570990Y-141655998D02*
X104603998Y-141655998D01*
X104603998Y-141655998D02*
X104680000Y-141732000D01*
X105856001Y-111567999D02*
X98298000Y-119126000D01*
X109902999Y-111567999D02*
X105856001Y-111567999D01*
X98298000Y-119126000D02*
X98298000Y-121461990D01*
D26*
X89662000Y-157480000D02*
X91186000Y-155956000D01*
X92456000Y-155956000D02*
X94742000Y-153670000D01*
X91186000Y-155956000D02*
X92456000Y-155956000D01*
X105792000Y-153670000D02*
X94742000Y-153670000D01*
X107188000Y-152274000D02*
X105792000Y-153670000D01*
X92202000Y-157480000D02*
X95250000Y-154432000D01*
X95250000Y-154432000D02*
X107570000Y-154432000D01*
X107570000Y-154432000D02*
X109728000Y-152274000D01*
X94742000Y-157480000D02*
X97028000Y-155194000D01*
X97028000Y-155194000D02*
X109348000Y-155194000D01*
X109348000Y-155194000D02*
X112268000Y-152274000D01*
X97282000Y-157480000D02*
X98806000Y-155956000D01*
X98806000Y-155956000D02*
X110236000Y-155956000D01*
X112396000Y-154686000D02*
X114808000Y-152274000D01*
X111506000Y-154686000D02*
X112396000Y-154686000D01*
X110236000Y-155956000D02*
X111506000Y-154686000D01*
X111760000Y-155702000D02*
X109982000Y-157480000D01*
X117348000Y-152274000D02*
X113920000Y-155702000D01*
X113920000Y-155702000D02*
X111760000Y-155702000D01*
X115062000Y-157480000D02*
X115062000Y-157100000D01*
X115062000Y-157100000D02*
X119888000Y-152274000D01*
X97790000Y-131892000D02*
X97790000Y-128016000D01*
X125984000Y-154940000D02*
X125984000Y-153798000D01*
X125984000Y-153798000D02*
X127508000Y-152274000D01*
X127508000Y-134112000D02*
X127508000Y-136908000D01*
X96972000Y-137016000D02*
X97790000Y-136198000D01*
X97790000Y-136198000D02*
X97790000Y-133792000D01*
X109728000Y-128016000D02*
X105664000Y-128016000D01*
X105664000Y-128016000D02*
X103013452Y-125365452D01*
D27*
X112268000Y-128016000D02*
X109728000Y-128016000D01*
D26*
X113538000Y-129286000D02*
X112268000Y-128016000D01*
X104679873Y-123221873D02*
X103124000Y-121666000D01*
X113228817Y-123221873D02*
X104679873Y-123221873D01*
X85090000Y-134874000D02*
X85090000Y-119634000D01*
X88010000Y-135636000D02*
X85852000Y-135636000D01*
X85852000Y-135636000D02*
X85090000Y-134874000D01*
X89408000Y-137034000D02*
X88010000Y-135636000D01*
X88457999Y-116266001D02*
X99125999Y-116266001D01*
X88457999Y-116266001D02*
X85090000Y-119634000D01*
X99125999Y-116266001D02*
X99822000Y-115570000D01*
D27*
X101092000Y-129286000D02*
X99855000Y-129286000D01*
X99855000Y-129286000D02*
X99728000Y-129413000D01*
X102362000Y-130556000D02*
X101092000Y-129286000D01*
D26*
X122428000Y-133604000D02*
X122428000Y-137034000D01*
X120850010Y-132026010D02*
X122428000Y-133604000D01*
X105482811Y-132026010D02*
X99186801Y-125730000D01*
X99186801Y-125730000D02*
X96774000Y-125730000D01*
X105482811Y-132026010D02*
X120850010Y-132026010D01*
X95758000Y-128977106D02*
X95758000Y-128270000D01*
X96814818Y-132734020D02*
X95758000Y-131677202D01*
X95758000Y-131677202D02*
X95758000Y-128977106D01*
X120208846Y-132734020D02*
X96814818Y-132734020D01*
X120208846Y-132734020D02*
X120864413Y-133389587D01*
X120904000Y-133350000D02*
X120864413Y-133389587D01*
X94328000Y-129413000D02*
X94328000Y-125508802D01*
X94328000Y-125508802D02*
X96784812Y-123051989D01*
X96784812Y-123051989D02*
X102111911Y-123051989D01*
X102111911Y-123051989D02*
X105805922Y-126746000D01*
X110998000Y-126746000D02*
X105805922Y-126746000D01*
X112674401Y-125877999D02*
X112018402Y-125222000D01*
X112018402Y-125222000D02*
X105918000Y-125222000D01*
X113538000Y-126746000D02*
X112674401Y-125882401D01*
X112674401Y-125882401D02*
X112674401Y-125877999D01*
X105330087Y-124175883D02*
X113507883Y-124175883D01*
X113507883Y-124175883D02*
X116078000Y-126746000D01*
X121158000Y-126746000D02*
X121158000Y-120396000D01*
X110998000Y-118110000D02*
X118872000Y-118110000D01*
X118872000Y-118110000D02*
X121158000Y-120396000D01*
X99375999Y-123759999D02*
X106219601Y-130603601D01*
X121158000Y-129286000D02*
X119840399Y-130603601D01*
X119840399Y-130603601D02*
X106219601Y-130603601D01*
X95758000Y-125080078D02*
X97078079Y-123759999D01*
X97078079Y-123759999D02*
X99375999Y-123759999D01*
X95758000Y-126746000D02*
X95758000Y-125080078D01*
X110174001Y-117155999D02*
X119949999Y-117155999D01*
X119949999Y-117155999D02*
X123698000Y-120904000D01*
X123698000Y-120904000D02*
X123698000Y-126746000D01*
X109728000Y-117602000D02*
X110174001Y-117155999D01*
X109728000Y-119380000D02*
X109728000Y-117602000D01*
X98243106Y-124714000D02*
X97536000Y-124714000D01*
X99172077Y-124714000D02*
X98243106Y-124714000D01*
X105776077Y-131318000D02*
X99172077Y-124714000D01*
X121666000Y-131318000D02*
X105776077Y-131318000D01*
X123698000Y-129286000D02*
X121666000Y-131318000D01*
X119634000Y-120650000D02*
X117602000Y-120650000D01*
X115570000Y-115570000D02*
X120650000Y-115570000D01*
D27*
X124952101Y-125460101D02*
X124952101Y-128000101D01*
D26*
X124952101Y-119872101D02*
X124952101Y-125460101D01*
X124952101Y-119872101D02*
X120650000Y-115570000D01*
X126238000Y-129286000D02*
X124952101Y-128000101D01*
X116586000Y-114046000D02*
X121158000Y-114046000D01*
X127508000Y-120396000D02*
X121158000Y-114046000D01*
X127508000Y-125476000D02*
X127508000Y-120396000D01*
D27*
X127508000Y-127934050D02*
X127508000Y-125476000D01*
X127467025Y-127975025D02*
X127508000Y-127934050D01*
D26*
X128778000Y-129286000D02*
X127467025Y-127975025D01*
X102108000Y-137034000D02*
X104014000Y-135128000D01*
X104014000Y-135128000D02*
X117348000Y-135128000D01*
X104592000Y-137016000D02*
X105718000Y-135890000D01*
X107860001Y-135890000D02*
X108458000Y-136487999D01*
X105718000Y-135890000D02*
X107860001Y-135890000D01*
X118618000Y-137414000D02*
X118618000Y-135530173D01*
X117602000Y-138430000D02*
X118618000Y-137414000D01*
X109220000Y-138430000D02*
X117602000Y-138430000D01*
X108458000Y-137668000D02*
X109220000Y-138430000D01*
X108458000Y-136487999D02*
X108458000Y-137668000D01*
X91440000Y-142240000D02*
X85090000Y-142240000D01*
X91948000Y-142240000D02*
X91440000Y-142240000D01*
D24*
X84074000Y-155067000D02*
X84074000Y-143256000D01*
D25*
X85471000Y-159131000D02*
X83947000Y-159131000D01*
X83947000Y-159131000D02*
X82931000Y-158115000D01*
X82931000Y-158115000D02*
X82931000Y-156210000D01*
X82931000Y-156210000D02*
X84074000Y-155067000D01*
X87122000Y-157480000D02*
X85471000Y-159131000D01*
D24*
X84074000Y-143256000D02*
X85090000Y-142240000D01*
D28*
G36*
X131586000Y-156777136D02*
X131107880Y-156298181D01*
X130378573Y-155995346D01*
X129588891Y-155994657D01*
X128859057Y-156296218D01*
X128300181Y-156854120D01*
X127997346Y-157583427D01*
X127996657Y-158373109D01*
X128298218Y-159102943D01*
X128758471Y-159564000D01*
X86474840Y-159564000D01*
X86973969Y-159064871D01*
X87435893Y-159065275D01*
X88018657Y-158824481D01*
X88392261Y-158451529D01*
X88762997Y-158822914D01*
X89345341Y-159064724D01*
X89975893Y-159065275D01*
X90558657Y-158824481D01*
X90932261Y-158451529D01*
X91302997Y-158822914D01*
X91885341Y-159064724D01*
X92515893Y-159065275D01*
X93098657Y-158824481D01*
X93472261Y-158451529D01*
X93842997Y-158822914D01*
X94425341Y-159064724D01*
X95055893Y-159065275D01*
X95638657Y-158824481D01*
X96012261Y-158451529D01*
X96382997Y-158822914D01*
X96965341Y-159064724D01*
X97595893Y-159065275D01*
X98178657Y-158824481D01*
X98552261Y-158451529D01*
X98922997Y-158822914D01*
X99505341Y-159064724D01*
X100135893Y-159065275D01*
X100718657Y-158824481D01*
X101092261Y-158451529D01*
X101462997Y-158822914D01*
X102045341Y-159064724D01*
X102675893Y-159065275D01*
X103258657Y-158824481D01*
X103632261Y-158451529D01*
X104002997Y-158822914D01*
X104585341Y-159064724D01*
X105215893Y-159065275D01*
X105798657Y-158824481D01*
X106172261Y-158451529D01*
X106542997Y-158822914D01*
X107125341Y-159064724D01*
X107755893Y-159065275D01*
X108338657Y-158824481D01*
X108712261Y-158451529D01*
X109082997Y-158822914D01*
X109665341Y-159064724D01*
X110295893Y-159065275D01*
X110878657Y-158824481D01*
X111107186Y-158596350D01*
X111585255Y-158596350D01*
X111677792Y-158858019D01*
X112269398Y-159076188D01*
X112899461Y-159051352D01*
X113366208Y-158858019D01*
X113458745Y-158596350D01*
X112522000Y-157659605D01*
X111585255Y-158596350D01*
X111107186Y-158596350D01*
X111318116Y-158385789D01*
X111405650Y-158416745D01*
X112342395Y-157480000D01*
X112328253Y-157465858D01*
X112507858Y-157286253D01*
X112522000Y-157300395D01*
X112536143Y-157286253D01*
X112715748Y-157465858D01*
X112701605Y-157480000D01*
X113638350Y-158416745D01*
X113726439Y-158385593D01*
X114162997Y-158822914D01*
X114745341Y-159064724D01*
X115375893Y-159065275D01*
X115958657Y-158824481D01*
X116332261Y-158451529D01*
X116702997Y-158822914D01*
X117285341Y-159064724D01*
X117915893Y-159065275D01*
X118498657Y-158824481D01*
X118872261Y-158451529D01*
X119242997Y-158822914D01*
X119825341Y-159064724D01*
X120455893Y-159065275D01*
X121038657Y-158824481D01*
X121267186Y-158596350D01*
X121745255Y-158596350D01*
X121837792Y-158858019D01*
X122429398Y-159076188D01*
X123059461Y-159051352D01*
X123526208Y-158858019D01*
X123618745Y-158596350D01*
X122682000Y-157659605D01*
X121745255Y-158596350D01*
X121267186Y-158596350D01*
X121478116Y-158385789D01*
X121565650Y-158416745D01*
X122502395Y-157480000D01*
X122861605Y-157480000D01*
X123798350Y-158416745D01*
X124060019Y-158324208D01*
X124278188Y-157732602D01*
X124253352Y-157102539D01*
X124060019Y-156635792D01*
X123798350Y-156543255D01*
X122861605Y-157480000D01*
X122502395Y-157480000D01*
X121565650Y-156543255D01*
X121477561Y-156574407D01*
X121267172Y-156363650D01*
X121745255Y-156363650D01*
X122682000Y-157300395D01*
X123618745Y-156363650D01*
X123526208Y-156101981D01*
X122934602Y-155883812D01*
X122304539Y-155908648D01*
X121837792Y-156101981D01*
X121745255Y-156363650D01*
X121267172Y-156363650D01*
X121041003Y-156137086D01*
X120458659Y-155895276D01*
X119828107Y-155894725D01*
X119245343Y-156135519D01*
X118871739Y-156508471D01*
X118501003Y-156137086D01*
X117918659Y-155895276D01*
X117524305Y-155894931D01*
X119928152Y-153491084D01*
X120076579Y-153491214D01*
X120530657Y-153303592D01*
X120878371Y-152956485D01*
X121066785Y-152502734D01*
X121066786Y-152500579D01*
X121136786Y-152500579D01*
X121324408Y-152954657D01*
X121671515Y-153302371D01*
X122125266Y-153490785D01*
X122616579Y-153491214D01*
X123070657Y-153303592D01*
X123418371Y-152956485D01*
X123606785Y-152502734D01*
X123606786Y-152500579D01*
X123676786Y-152500579D01*
X123864408Y-152954657D01*
X124211515Y-153302371D01*
X124665266Y-153490785D01*
X125156023Y-153491214D01*
X125145327Y-153544987D01*
X124986683Y-153574838D01*
X124770559Y-153713910D01*
X124625569Y-153926110D01*
X124574560Y-154178000D01*
X124574560Y-155702000D01*
X124618838Y-155937317D01*
X124757910Y-156153441D01*
X124970110Y-156298431D01*
X125222000Y-156349440D01*
X126746000Y-156349440D01*
X126981317Y-156305162D01*
X127197441Y-156166090D01*
X127342431Y-155953890D01*
X127393440Y-155702000D01*
X127393440Y-154178000D01*
X127349162Y-153942683D01*
X127250256Y-153788980D01*
X127548152Y-153491084D01*
X127696579Y-153491214D01*
X128150657Y-153303592D01*
X128498371Y-152956485D01*
X128686785Y-152502734D01*
X128687214Y-152011421D01*
X128499592Y-151557343D01*
X128152485Y-151209629D01*
X127698734Y-151021215D01*
X127207421Y-151020786D01*
X126753343Y-151208408D01*
X126405629Y-151555515D01*
X126217215Y-152009266D01*
X126216954Y-152307810D01*
X126146894Y-152377870D01*
X126147214Y-152011421D01*
X125959592Y-151557343D01*
X125612485Y-151209629D01*
X125158734Y-151021215D01*
X124667421Y-151020786D01*
X124213343Y-151208408D01*
X123865629Y-151555515D01*
X123677215Y-152009266D01*
X123676786Y-152500579D01*
X123606786Y-152500579D01*
X123607214Y-152011421D01*
X123419592Y-151557343D01*
X123072485Y-151209629D01*
X122618734Y-151021215D01*
X122127421Y-151020786D01*
X121673343Y-151208408D01*
X121325629Y-151555515D01*
X121137215Y-152009266D01*
X121136786Y-152500579D01*
X121066786Y-152500579D01*
X121067214Y-152011421D01*
X120879592Y-151557343D01*
X120532485Y-151209629D01*
X120078734Y-151021215D01*
X119587421Y-151020786D01*
X119133343Y-151208408D01*
X118785629Y-151555515D01*
X118597215Y-152009266D01*
X118596954Y-152307810D01*
X118526894Y-152377870D01*
X118527214Y-152011421D01*
X118339592Y-151557343D01*
X117992485Y-151209629D01*
X117849593Y-151150295D01*
X117865367Y-151112305D01*
X117899690Y-151060938D01*
X117911637Y-151000876D01*
X117974803Y-150848756D01*
X117974948Y-150682590D01*
X117987000Y-150622000D01*
X117975053Y-150561940D01*
X117975197Y-150397225D01*
X117911742Y-150243654D01*
X117899690Y-150183062D01*
X117865667Y-150132143D01*
X117802767Y-149979914D01*
X117685372Y-149862314D01*
X117651051Y-149810949D01*
X117600134Y-149776927D01*
X117483765Y-149660355D01*
X117330305Y-149596633D01*
X117278938Y-149562310D01*
X117218876Y-149550363D01*
X117066756Y-149487197D01*
X116900590Y-149487052D01*
X116840000Y-149475000D01*
X112980102Y-149475000D01*
X117989052Y-144466051D01*
X118237690Y-144093938D01*
X118325000Y-143655000D01*
X118325000Y-142986102D01*
X121207051Y-140104052D01*
X121455690Y-139731938D01*
X121462043Y-139700000D01*
X121543000Y-139293000D01*
X121543000Y-138719841D01*
X121876421Y-138386420D01*
X122001413Y-138199357D01*
X122125266Y-138250785D01*
X122616579Y-138251214D01*
X123070657Y-138063592D01*
X123418371Y-137716485D01*
X123606785Y-137262734D01*
X123606786Y-137260579D01*
X123676786Y-137260579D01*
X123864408Y-137714657D01*
X124211515Y-138062371D01*
X124665266Y-138250785D01*
X125156579Y-138251214D01*
X125610657Y-138063592D01*
X125958371Y-137716485D01*
X126146785Y-137262734D01*
X126147214Y-136771421D01*
X125959592Y-136317343D01*
X125612485Y-135969629D01*
X125158734Y-135781215D01*
X124667421Y-135780786D01*
X124213343Y-135968408D01*
X123865629Y-136315515D01*
X123677215Y-136769266D01*
X123676786Y-137260579D01*
X123606786Y-137260579D01*
X123607214Y-136771421D01*
X123419592Y-136317343D01*
X123317000Y-136214572D01*
X123317000Y-133604000D01*
X123266477Y-133350000D01*
X126098560Y-133350000D01*
X126098560Y-134874000D01*
X126142838Y-135109317D01*
X126281910Y-135325441D01*
X126494110Y-135470431D01*
X126619000Y-135495722D01*
X126619000Y-136102516D01*
X126405629Y-136315515D01*
X126217215Y-136769266D01*
X126216786Y-137260579D01*
X126404408Y-137714657D01*
X126751515Y-138062371D01*
X127205266Y-138250785D01*
X127696579Y-138251214D01*
X128150657Y-138063592D01*
X128498371Y-137716485D01*
X128686785Y-137262734D01*
X128687214Y-136771421D01*
X128499592Y-136317343D01*
X128397000Y-136214572D01*
X128397000Y-135497543D01*
X128505317Y-135477162D01*
X128721441Y-135338090D01*
X128866431Y-135125890D01*
X128917440Y-134874000D01*
X128917440Y-133350000D01*
X128873162Y-133114683D01*
X128734090Y-132898559D01*
X128521890Y-132753569D01*
X128270000Y-132702560D01*
X126746000Y-132702560D01*
X126510683Y-132746838D01*
X126294559Y-132885910D01*
X126149569Y-133098110D01*
X126098560Y-133350000D01*
X123266477Y-133350000D01*
X123249329Y-133263794D01*
X123056618Y-132975382D01*
X122134705Y-132053469D01*
X122294618Y-131946618D01*
X123472193Y-130769043D01*
X123698000Y-130813959D01*
X124271489Y-130699885D01*
X124757670Y-130375029D01*
X124968000Y-130060248D01*
X125178330Y-130375029D01*
X125664511Y-130699885D01*
X126238000Y-130813959D01*
X126811489Y-130699885D01*
X127297670Y-130375029D01*
X127508000Y-130060248D01*
X127718330Y-130375029D01*
X128204511Y-130699885D01*
X128778000Y-130813959D01*
X129351489Y-130699885D01*
X129837670Y-130375029D01*
X130162526Y-129888848D01*
X130276600Y-129315359D01*
X130276600Y-129256641D01*
X130162526Y-128683152D01*
X129837670Y-128196971D01*
X129566839Y-128016008D01*
X129984821Y-127634490D01*
X130232968Y-127105027D01*
X130112469Y-126873000D01*
X128905000Y-126873000D01*
X128905000Y-126893000D01*
X128651000Y-126893000D01*
X128651000Y-126873000D01*
X128631000Y-126873000D01*
X128631000Y-126619000D01*
X128651000Y-126619000D01*
X128651000Y-125412183D01*
X128905000Y-125412183D01*
X128905000Y-126619000D01*
X130112469Y-126619000D01*
X130232968Y-126386973D01*
X129984821Y-125857510D01*
X129552947Y-125463312D01*
X129137026Y-125291042D01*
X128905000Y-125412183D01*
X128651000Y-125412183D01*
X128418974Y-125291042D01*
X128397000Y-125300143D01*
X128397000Y-120396000D01*
X128329329Y-120055794D01*
X128136618Y-119767382D01*
X121786618Y-113417382D01*
X121763949Y-113402235D01*
X121498206Y-113224671D01*
X121158000Y-113157000D01*
X117302283Y-113157000D01*
X117229765Y-113084355D01*
X116812756Y-112911197D01*
X116361225Y-112910803D01*
X115943914Y-113083233D01*
X115624355Y-113402235D01*
X115451197Y-113819244D01*
X115450803Y-114270775D01*
X115518641Y-114434954D01*
X115345225Y-114434803D01*
X114927914Y-114607233D01*
X114608355Y-114926235D01*
X114435197Y-115343244D01*
X114434803Y-115794775D01*
X114607233Y-116212086D01*
X114662050Y-116266999D01*
X110174001Y-116266999D01*
X109833796Y-116334669D01*
X109545383Y-116527381D01*
X109099382Y-116973382D01*
X108906671Y-117261794D01*
X108839000Y-117602000D01*
X108839000Y-118663717D01*
X108766355Y-118736235D01*
X108593197Y-119153244D01*
X108592803Y-119604775D01*
X108765233Y-120022086D01*
X109084235Y-120341645D01*
X109501244Y-120514803D01*
X109952775Y-120515197D01*
X110370086Y-120342767D01*
X110689645Y-120023765D01*
X110862803Y-119606756D01*
X110863119Y-119244883D01*
X111222775Y-119245197D01*
X111640086Y-119072767D01*
X111713982Y-118999000D01*
X118503764Y-118999000D01*
X119133496Y-119628732D01*
X118991914Y-119687233D01*
X118918018Y-119761000D01*
X118318283Y-119761000D01*
X118245765Y-119688355D01*
X117828756Y-119515197D01*
X117377225Y-119514803D01*
X116959914Y-119687233D01*
X116640355Y-120006235D01*
X116467197Y-120423244D01*
X116466803Y-120874775D01*
X116639233Y-121292086D01*
X116958235Y-121611645D01*
X117375244Y-121784803D01*
X117826775Y-121785197D01*
X118244086Y-121612767D01*
X118317982Y-121539000D01*
X118917717Y-121539000D01*
X118990235Y-121611645D01*
X119407244Y-121784803D01*
X119858775Y-121785197D01*
X120269000Y-121615695D01*
X120269000Y-125542933D01*
X120098330Y-125656971D01*
X119888000Y-125971752D01*
X119677670Y-125656971D01*
X119191489Y-125332115D01*
X118618000Y-125218041D01*
X118044511Y-125332115D01*
X117558330Y-125656971D01*
X117348000Y-125971752D01*
X117137670Y-125656971D01*
X116651489Y-125332115D01*
X116078000Y-125218041D01*
X115852193Y-125262957D01*
X114268042Y-123678806D01*
X114363620Y-123448629D01*
X114364014Y-122997098D01*
X114191584Y-122579787D01*
X113872582Y-122260228D01*
X113455573Y-122087070D01*
X113004042Y-122086676D01*
X112586731Y-122259106D01*
X112512835Y-122332873D01*
X105048109Y-122332873D01*
X104259107Y-121543871D01*
X104259197Y-121441225D01*
X104086767Y-121023914D01*
X103767765Y-120704355D01*
X103350756Y-120531197D01*
X102899225Y-120530803D01*
X102481914Y-120703233D01*
X102162355Y-121022235D01*
X101989197Y-121439244D01*
X101988803Y-121890775D01*
X102101280Y-122162989D01*
X99577585Y-122162989D01*
X99682759Y-121909702D01*
X99683240Y-121358715D01*
X99472831Y-120849485D01*
X99445000Y-120821605D01*
X99445000Y-119601102D01*
X103714352Y-115331750D01*
X110246000Y-115331750D01*
X110246000Y-115672309D01*
X110342673Y-115905698D01*
X110521301Y-116084327D01*
X110754690Y-116181000D01*
X111220250Y-116181000D01*
X111379000Y-116022250D01*
X111379000Y-115173000D01*
X111633000Y-115173000D01*
X111633000Y-116022250D01*
X111791750Y-116181000D01*
X112257310Y-116181000D01*
X112490699Y-116084327D01*
X112669327Y-115905698D01*
X112766000Y-115672309D01*
X112766000Y-115331750D01*
X112607250Y-115173000D01*
X111633000Y-115173000D01*
X111379000Y-115173000D01*
X110404750Y-115173000D01*
X110246000Y-115331750D01*
X103714352Y-115331750D01*
X106331104Y-112714999D01*
X109427897Y-112714999D01*
X110182426Y-113469529D01*
X110249896Y-113632819D01*
X110277838Y-113781317D01*
X110416910Y-113997441D01*
X110485006Y-114043969D01*
X110342673Y-114186302D01*
X110246000Y-114419691D01*
X110246000Y-114760250D01*
X110404750Y-114919000D01*
X111379000Y-114919000D01*
X111379000Y-114899000D01*
X111633000Y-114899000D01*
X111633000Y-114919000D01*
X112607250Y-114919000D01*
X112766000Y-114760250D01*
X112766000Y-114419691D01*
X112669327Y-114186302D01*
X112528090Y-114045064D01*
X112582441Y-114010090D01*
X112727431Y-113797890D01*
X112759785Y-113638124D01*
X112890759Y-113322702D01*
X112891240Y-112771715D01*
X112762104Y-112459181D01*
X112734162Y-112310683D01*
X112595090Y-112094559D01*
X112382890Y-111949569D01*
X112364804Y-111945906D01*
X112291564Y-111872539D01*
X111782702Y-111661241D01*
X111618200Y-111661097D01*
X110941102Y-110984000D01*
X131586000Y-110984000D01*
X131586000Y-156777136D01*
X131586000Y-156777136D01*
G37*
X131586000Y-156777136D02*
X131107880Y-156298181D01*
X130378573Y-155995346D01*
X129588891Y-155994657D01*
X128859057Y-156296218D01*
X128300181Y-156854120D01*
X127997346Y-157583427D01*
X127996657Y-158373109D01*
X128298218Y-159102943D01*
X128758471Y-159564000D01*
X86474840Y-159564000D01*
X86973969Y-159064871D01*
X87435893Y-159065275D01*
X88018657Y-158824481D01*
X88392261Y-158451529D01*
X88762997Y-158822914D01*
X89345341Y-159064724D01*
X89975893Y-159065275D01*
X90558657Y-158824481D01*
X90932261Y-158451529D01*
X91302997Y-158822914D01*
X91885341Y-159064724D01*
X92515893Y-159065275D01*
X93098657Y-158824481D01*
X93472261Y-158451529D01*
X93842997Y-158822914D01*
X94425341Y-159064724D01*
X95055893Y-159065275D01*
X95638657Y-158824481D01*
X96012261Y-158451529D01*
X96382997Y-158822914D01*
X96965341Y-159064724D01*
X97595893Y-159065275D01*
X98178657Y-158824481D01*
X98552261Y-158451529D01*
X98922997Y-158822914D01*
X99505341Y-159064724D01*
X100135893Y-159065275D01*
X100718657Y-158824481D01*
X101092261Y-158451529D01*
X101462997Y-158822914D01*
X102045341Y-159064724D01*
X102675893Y-159065275D01*
X103258657Y-158824481D01*
X103632261Y-158451529D01*
X104002997Y-158822914D01*
X104585341Y-159064724D01*
X105215893Y-159065275D01*
X105798657Y-158824481D01*
X106172261Y-158451529D01*
X106542997Y-158822914D01*
X107125341Y-159064724D01*
X107755893Y-159065275D01*
X108338657Y-158824481D01*
X108712261Y-158451529D01*
X109082997Y-158822914D01*
X109665341Y-159064724D01*
X110295893Y-159065275D01*
X110878657Y-158824481D01*
X111107186Y-158596350D01*
X111585255Y-158596350D01*
X111677792Y-158858019D01*
X112269398Y-159076188D01*
X112899461Y-159051352D01*
X113366208Y-158858019D01*
X113458745Y-158596350D01*
X112522000Y-157659605D01*
X111585255Y-158596350D01*
X111107186Y-158596350D01*
X111318116Y-158385789D01*
X111405650Y-158416745D01*
X112342395Y-157480000D01*
X112328253Y-157465858D01*
X112507858Y-157286253D01*
X112522000Y-157300395D01*
X112536143Y-157286253D01*
X112715748Y-157465858D01*
X112701605Y-157480000D01*
X113638350Y-158416745D01*
X113726439Y-158385593D01*
X114162997Y-158822914D01*
X114745341Y-159064724D01*
X115375893Y-159065275D01*
X115958657Y-158824481D01*
X116332261Y-158451529D01*
X116702997Y-158822914D01*
X117285341Y-159064724D01*
X117915893Y-159065275D01*
X118498657Y-158824481D01*
X118872261Y-158451529D01*
X119242997Y-158822914D01*
X119825341Y-159064724D01*
X120455893Y-159065275D01*
X121038657Y-158824481D01*
X121267186Y-158596350D01*
X121745255Y-158596350D01*
X121837792Y-158858019D01*
X122429398Y-159076188D01*
X123059461Y-159051352D01*
X123526208Y-158858019D01*
X123618745Y-158596350D01*
X122682000Y-157659605D01*
X121745255Y-158596350D01*
X121267186Y-158596350D01*
X121478116Y-158385789D01*
X121565650Y-158416745D01*
X122502395Y-157480000D01*
X122861605Y-157480000D01*
X123798350Y-158416745D01*
X124060019Y-158324208D01*
X124278188Y-157732602D01*
X124253352Y-157102539D01*
X124060019Y-156635792D01*
X123798350Y-156543255D01*
X122861605Y-157480000D01*
X122502395Y-157480000D01*
X121565650Y-156543255D01*
X121477561Y-156574407D01*
X121267172Y-156363650D01*
X121745255Y-156363650D01*
X122682000Y-157300395D01*
X123618745Y-156363650D01*
X123526208Y-156101981D01*
X122934602Y-155883812D01*
X122304539Y-155908648D01*
X121837792Y-156101981D01*
X121745255Y-156363650D01*
X121267172Y-156363650D01*
X121041003Y-156137086D01*
X120458659Y-155895276D01*
X119828107Y-155894725D01*
X119245343Y-156135519D01*
X118871739Y-156508471D01*
X118501003Y-156137086D01*
X117918659Y-155895276D01*
X117524305Y-155894931D01*
X119928152Y-153491084D01*
X120076579Y-153491214D01*
X120530657Y-153303592D01*
X120878371Y-152956485D01*
X121066785Y-152502734D01*
X121066786Y-152500579D01*
X121136786Y-152500579D01*
X121324408Y-152954657D01*
X121671515Y-153302371D01*
X122125266Y-153490785D01*
X122616579Y-153491214D01*
X123070657Y-153303592D01*
X123418371Y-152956485D01*
X123606785Y-152502734D01*
X123606786Y-152500579D01*
X123676786Y-152500579D01*
X123864408Y-152954657D01*
X124211515Y-153302371D01*
X124665266Y-153490785D01*
X125156023Y-153491214D01*
X125145327Y-153544987D01*
X124986683Y-153574838D01*
X124770559Y-153713910D01*
X124625569Y-153926110D01*
X124574560Y-154178000D01*
X124574560Y-155702000D01*
X124618838Y-155937317D01*
X124757910Y-156153441D01*
X124970110Y-156298431D01*
X125222000Y-156349440D01*
X126746000Y-156349440D01*
X126981317Y-156305162D01*
X127197441Y-156166090D01*
X127342431Y-155953890D01*
X127393440Y-155702000D01*
X127393440Y-154178000D01*
X127349162Y-153942683D01*
X127250256Y-153788980D01*
X127548152Y-153491084D01*
X127696579Y-153491214D01*
X128150657Y-153303592D01*
X128498371Y-152956485D01*
X128686785Y-152502734D01*
X128687214Y-152011421D01*
X128499592Y-151557343D01*
X128152485Y-151209629D01*
X127698734Y-151021215D01*
X127207421Y-151020786D01*
X126753343Y-151208408D01*
X126405629Y-151555515D01*
X126217215Y-152009266D01*
X126216954Y-152307810D01*
X126146894Y-152377870D01*
X126147214Y-152011421D01*
X125959592Y-151557343D01*
X125612485Y-151209629D01*
X125158734Y-151021215D01*
X124667421Y-151020786D01*
X124213343Y-151208408D01*
X123865629Y-151555515D01*
X123677215Y-152009266D01*
X123676786Y-152500579D01*
X123606786Y-152500579D01*
X123607214Y-152011421D01*
X123419592Y-151557343D01*
X123072485Y-151209629D01*
X122618734Y-151021215D01*
X122127421Y-151020786D01*
X121673343Y-151208408D01*
X121325629Y-151555515D01*
X121137215Y-152009266D01*
X121136786Y-152500579D01*
X121066786Y-152500579D01*
X121067214Y-152011421D01*
X120879592Y-151557343D01*
X120532485Y-151209629D01*
X120078734Y-151021215D01*
X119587421Y-151020786D01*
X119133343Y-151208408D01*
X118785629Y-151555515D01*
X118597215Y-152009266D01*
X118596954Y-152307810D01*
X118526894Y-152377870D01*
X118527214Y-152011421D01*
X118339592Y-151557343D01*
X117992485Y-151209629D01*
X117849593Y-151150295D01*
X117865367Y-151112305D01*
X117899690Y-151060938D01*
X117911637Y-151000876D01*
X117974803Y-150848756D01*
X117974948Y-150682590D01*
X117987000Y-150622000D01*
X117975053Y-150561940D01*
X117975197Y-150397225D01*
X117911742Y-150243654D01*
X117899690Y-150183062D01*
X117865667Y-150132143D01*
X117802767Y-149979914D01*
X117685372Y-149862314D01*
X117651051Y-149810949D01*
X117600134Y-149776927D01*
X117483765Y-149660355D01*
X117330305Y-149596633D01*
X117278938Y-149562310D01*
X117218876Y-149550363D01*
X117066756Y-149487197D01*
X116900590Y-149487052D01*
X116840000Y-149475000D01*
X112980102Y-149475000D01*
X117989052Y-144466051D01*
X118237690Y-144093938D01*
X118325000Y-143655000D01*
X118325000Y-142986102D01*
X121207051Y-140104052D01*
X121455690Y-139731938D01*
X121462043Y-139700000D01*
X121543000Y-139293000D01*
X121543000Y-138719841D01*
X121876421Y-138386420D01*
X122001413Y-138199357D01*
X122125266Y-138250785D01*
X122616579Y-138251214D01*
X123070657Y-138063592D01*
X123418371Y-137716485D01*
X123606785Y-137262734D01*
X123606786Y-137260579D01*
X123676786Y-137260579D01*
X123864408Y-137714657D01*
X124211515Y-138062371D01*
X124665266Y-138250785D01*
X125156579Y-138251214D01*
X125610657Y-138063592D01*
X125958371Y-137716485D01*
X126146785Y-137262734D01*
X126147214Y-136771421D01*
X125959592Y-136317343D01*
X125612485Y-135969629D01*
X125158734Y-135781215D01*
X124667421Y-135780786D01*
X124213343Y-135968408D01*
X123865629Y-136315515D01*
X123677215Y-136769266D01*
X123676786Y-137260579D01*
X123606786Y-137260579D01*
X123607214Y-136771421D01*
X123419592Y-136317343D01*
X123317000Y-136214572D01*
X123317000Y-133604000D01*
X123266477Y-133350000D01*
X126098560Y-133350000D01*
X126098560Y-134874000D01*
X126142838Y-135109317D01*
X126281910Y-135325441D01*
X126494110Y-135470431D01*
X126619000Y-135495722D01*
X126619000Y-136102516D01*
X126405629Y-136315515D01*
X126217215Y-136769266D01*
X126216786Y-137260579D01*
X126404408Y-137714657D01*
X126751515Y-138062371D01*
X127205266Y-138250785D01*
X127696579Y-138251214D01*
X128150657Y-138063592D01*
X128498371Y-137716485D01*
X128686785Y-137262734D01*
X128687214Y-136771421D01*
X128499592Y-136317343D01*
X128397000Y-136214572D01*
X128397000Y-135497543D01*
X128505317Y-135477162D01*
X128721441Y-135338090D01*
X128866431Y-135125890D01*
X128917440Y-134874000D01*
X128917440Y-133350000D01*
X128873162Y-133114683D01*
X128734090Y-132898559D01*
X128521890Y-132753569D01*
X128270000Y-132702560D01*
X126746000Y-132702560D01*
X126510683Y-132746838D01*
X126294559Y-132885910D01*
X126149569Y-133098110D01*
X126098560Y-133350000D01*
X123266477Y-133350000D01*
X123249329Y-133263794D01*
X123056618Y-132975382D01*
X122134705Y-132053469D01*
X122294618Y-131946618D01*
X123472193Y-130769043D01*
X123698000Y-130813959D01*
X124271489Y-130699885D01*
X124757670Y-130375029D01*
X124968000Y-130060248D01*
X125178330Y-130375029D01*
X125664511Y-130699885D01*
X126238000Y-130813959D01*
X126811489Y-130699885D01*
X127297670Y-130375029D01*
X127508000Y-130060248D01*
X127718330Y-130375029D01*
X128204511Y-130699885D01*
X128778000Y-130813959D01*
X129351489Y-130699885D01*
X129837670Y-130375029D01*
X130162526Y-129888848D01*
X130276600Y-129315359D01*
X130276600Y-129256641D01*
X130162526Y-128683152D01*
X129837670Y-128196971D01*
X129566839Y-128016008D01*
X129984821Y-127634490D01*
X130232968Y-127105027D01*
X130112469Y-126873000D01*
X128905000Y-126873000D01*
X128905000Y-126893000D01*
X128651000Y-126893000D01*
X128651000Y-126873000D01*
X128631000Y-126873000D01*
X128631000Y-126619000D01*
X128651000Y-126619000D01*
X128651000Y-125412183D01*
X128905000Y-125412183D01*
X128905000Y-126619000D01*
X130112469Y-126619000D01*
X130232968Y-126386973D01*
X129984821Y-125857510D01*
X129552947Y-125463312D01*
X129137026Y-125291042D01*
X128905000Y-125412183D01*
X128651000Y-125412183D01*
X128418974Y-125291042D01*
X128397000Y-125300143D01*
X128397000Y-120396000D01*
X128329329Y-120055794D01*
X128136618Y-119767382D01*
X121786618Y-113417382D01*
X121763949Y-113402235D01*
X121498206Y-113224671D01*
X121158000Y-113157000D01*
X117302283Y-113157000D01*
X117229765Y-113084355D01*
X116812756Y-112911197D01*
X116361225Y-112910803D01*
X115943914Y-113083233D01*
X115624355Y-113402235D01*
X115451197Y-113819244D01*
X115450803Y-114270775D01*
X115518641Y-114434954D01*
X115345225Y-114434803D01*
X114927914Y-114607233D01*
X114608355Y-114926235D01*
X114435197Y-115343244D01*
X114434803Y-115794775D01*
X114607233Y-116212086D01*
X114662050Y-116266999D01*
X110174001Y-116266999D01*
X109833796Y-116334669D01*
X109545383Y-116527381D01*
X109099382Y-116973382D01*
X108906671Y-117261794D01*
X108839000Y-117602000D01*
X108839000Y-118663717D01*
X108766355Y-118736235D01*
X108593197Y-119153244D01*
X108592803Y-119604775D01*
X108765233Y-120022086D01*
X109084235Y-120341645D01*
X109501244Y-120514803D01*
X109952775Y-120515197D01*
X110370086Y-120342767D01*
X110689645Y-120023765D01*
X110862803Y-119606756D01*
X110863119Y-119244883D01*
X111222775Y-119245197D01*
X111640086Y-119072767D01*
X111713982Y-118999000D01*
X118503764Y-118999000D01*
X119133496Y-119628732D01*
X118991914Y-119687233D01*
X118918018Y-119761000D01*
X118318283Y-119761000D01*
X118245765Y-119688355D01*
X117828756Y-119515197D01*
X117377225Y-119514803D01*
X116959914Y-119687233D01*
X116640355Y-120006235D01*
X116467197Y-120423244D01*
X116466803Y-120874775D01*
X116639233Y-121292086D01*
X116958235Y-121611645D01*
X117375244Y-121784803D01*
X117826775Y-121785197D01*
X118244086Y-121612767D01*
X118317982Y-121539000D01*
X118917717Y-121539000D01*
X118990235Y-121611645D01*
X119407244Y-121784803D01*
X119858775Y-121785197D01*
X120269000Y-121615695D01*
X120269000Y-125542933D01*
X120098330Y-125656971D01*
X119888000Y-125971752D01*
X119677670Y-125656971D01*
X119191489Y-125332115D01*
X118618000Y-125218041D01*
X118044511Y-125332115D01*
X117558330Y-125656971D01*
X117348000Y-125971752D01*
X117137670Y-125656971D01*
X116651489Y-125332115D01*
X116078000Y-125218041D01*
X115852193Y-125262957D01*
X114268042Y-123678806D01*
X114363620Y-123448629D01*
X114364014Y-122997098D01*
X114191584Y-122579787D01*
X113872582Y-122260228D01*
X113455573Y-122087070D01*
X113004042Y-122086676D01*
X112586731Y-122259106D01*
X112512835Y-122332873D01*
X105048109Y-122332873D01*
X104259107Y-121543871D01*
X104259197Y-121441225D01*
X104086767Y-121023914D01*
X103767765Y-120704355D01*
X103350756Y-120531197D01*
X102899225Y-120530803D01*
X102481914Y-120703233D01*
X102162355Y-121022235D01*
X101989197Y-121439244D01*
X101988803Y-121890775D01*
X102101280Y-122162989D01*
X99577585Y-122162989D01*
X99682759Y-121909702D01*
X99683240Y-121358715D01*
X99472831Y-120849485D01*
X99445000Y-120821605D01*
X99445000Y-119601102D01*
X103714352Y-115331750D01*
X110246000Y-115331750D01*
X110246000Y-115672309D01*
X110342673Y-115905698D01*
X110521301Y-116084327D01*
X110754690Y-116181000D01*
X111220250Y-116181000D01*
X111379000Y-116022250D01*
X111379000Y-115173000D01*
X111633000Y-115173000D01*
X111633000Y-116022250D01*
X111791750Y-116181000D01*
X112257310Y-116181000D01*
X112490699Y-116084327D01*
X112669327Y-115905698D01*
X112766000Y-115672309D01*
X112766000Y-115331750D01*
X112607250Y-115173000D01*
X111633000Y-115173000D01*
X111379000Y-115173000D01*
X110404750Y-115173000D01*
X110246000Y-115331750D01*
X103714352Y-115331750D01*
X106331104Y-112714999D01*
X109427897Y-112714999D01*
X110182426Y-113469529D01*
X110249896Y-113632819D01*
X110277838Y-113781317D01*
X110416910Y-113997441D01*
X110485006Y-114043969D01*
X110342673Y-114186302D01*
X110246000Y-114419691D01*
X110246000Y-114760250D01*
X110404750Y-114919000D01*
X111379000Y-114919000D01*
X111379000Y-114899000D01*
X111633000Y-114899000D01*
X111633000Y-114919000D01*
X112607250Y-114919000D01*
X112766000Y-114760250D01*
X112766000Y-114419691D01*
X112669327Y-114186302D01*
X112528090Y-114045064D01*
X112582441Y-114010090D01*
X112727431Y-113797890D01*
X112759785Y-113638124D01*
X112890759Y-113322702D01*
X112891240Y-112771715D01*
X112762104Y-112459181D01*
X112734162Y-112310683D01*
X112595090Y-112094559D01*
X112382890Y-111949569D01*
X112364804Y-111945906D01*
X112291564Y-111872539D01*
X111782702Y-111661241D01*
X111618200Y-111661097D01*
X110941102Y-110984000D01*
X131586000Y-110984000D01*
X131586000Y-156777136D01*
G36*
X85765629Y-151555515D02*
X85577215Y-152009266D01*
X85576786Y-152500579D01*
X85764408Y-152954657D01*
X86111515Y-153302371D01*
X86565266Y-153490785D01*
X87056579Y-153491214D01*
X87510657Y-153303592D01*
X87858371Y-152956485D01*
X88046785Y-152502734D01*
X88047214Y-152011421D01*
X87859592Y-151557343D01*
X87813330Y-151511000D01*
X88350222Y-151511000D01*
X88305629Y-151555515D01*
X88117215Y-152009266D01*
X88116786Y-152500579D01*
X88304408Y-152954657D01*
X88651515Y-153302371D01*
X89105266Y-153490785D01*
X89596579Y-153491214D01*
X90050657Y-153303592D01*
X90398371Y-152956485D01*
X90586785Y-152502734D01*
X90587214Y-152011421D01*
X90399592Y-151557343D01*
X90353330Y-151511000D01*
X90657891Y-151511000D01*
X90678000Y-151515000D01*
X90886215Y-151515000D01*
X90845629Y-151555515D01*
X90657215Y-152009266D01*
X90656786Y-152500579D01*
X90844408Y-152954657D01*
X91191515Y-153302371D01*
X91408400Y-153392430D01*
X91509062Y-153459690D01*
X91626763Y-153483102D01*
X91645266Y-153490785D01*
X91665478Y-153490803D01*
X91948000Y-153546999D01*
X92386938Y-153459690D01*
X92759051Y-153211051D01*
X93266703Y-152703399D01*
X93343836Y-152889617D01*
X93569265Y-152939130D01*
X94252395Y-152256000D01*
X94238253Y-152241858D01*
X94417858Y-152062253D01*
X94432000Y-152076395D01*
X94446143Y-152062253D01*
X94625748Y-152241858D01*
X94611605Y-152256000D01*
X94625748Y-152270143D01*
X94446143Y-152449748D01*
X94432000Y-152435605D01*
X93748870Y-153118735D01*
X93798383Y-153344164D01*
X93807476Y-153347288D01*
X92087764Y-155067000D01*
X91186000Y-155067000D01*
X90845794Y-155134671D01*
X90557382Y-155327382D01*
X89986311Y-155898453D01*
X89978659Y-155895276D01*
X89348107Y-155894725D01*
X88765343Y-156135519D01*
X88391739Y-156508471D01*
X88021003Y-156137086D01*
X87438659Y-155895276D01*
X87140622Y-155895016D01*
X87225000Y-155691310D01*
X87225000Y-155225750D01*
X87066250Y-155067000D01*
X86217000Y-155067000D01*
X86217000Y-156041250D01*
X86286146Y-156110396D01*
X86225343Y-156135519D01*
X85785884Y-156574211D01*
X85698350Y-156543255D01*
X84761605Y-157480000D01*
X84775748Y-157494143D01*
X84596143Y-157673748D01*
X84582000Y-157659605D01*
X84567858Y-157673748D01*
X84388253Y-157494143D01*
X84402395Y-157480000D01*
X84388253Y-157465858D01*
X84567858Y-157286253D01*
X84582000Y-157300395D01*
X85518745Y-156363650D01*
X85460388Y-156198632D01*
X85463691Y-156200000D01*
X85804250Y-156200000D01*
X85963000Y-156041250D01*
X85963000Y-155067000D01*
X85943000Y-155067000D01*
X85943000Y-154813000D01*
X85963000Y-154813000D01*
X85963000Y-153838750D01*
X86217000Y-153838750D01*
X86217000Y-154813000D01*
X87066250Y-154813000D01*
X87225000Y-154654250D01*
X87225000Y-154188690D01*
X87128327Y-153955301D01*
X86949698Y-153776673D01*
X86716309Y-153680000D01*
X86375750Y-153680000D01*
X86217000Y-153838750D01*
X85963000Y-153838750D01*
X85804250Y-153680000D01*
X85463691Y-153680000D01*
X85230302Y-153776673D01*
X85221000Y-153785975D01*
X85221000Y-151511000D01*
X85810222Y-151511000D01*
X85765629Y-151555515D01*
X85765629Y-151555515D01*
G37*
X85765629Y-151555515D02*
X85577215Y-152009266D01*
X85576786Y-152500579D01*
X85764408Y-152954657D01*
X86111515Y-153302371D01*
X86565266Y-153490785D01*
X87056579Y-153491214D01*
X87510657Y-153303592D01*
X87858371Y-152956485D01*
X88046785Y-152502734D01*
X88047214Y-152011421D01*
X87859592Y-151557343D01*
X87813330Y-151511000D01*
X88350222Y-151511000D01*
X88305629Y-151555515D01*
X88117215Y-152009266D01*
X88116786Y-152500579D01*
X88304408Y-152954657D01*
X88651515Y-153302371D01*
X89105266Y-153490785D01*
X89596579Y-153491214D01*
X90050657Y-153303592D01*
X90398371Y-152956485D01*
X90586785Y-152502734D01*
X90587214Y-152011421D01*
X90399592Y-151557343D01*
X90353330Y-151511000D01*
X90657891Y-151511000D01*
X90678000Y-151515000D01*
X90886215Y-151515000D01*
X90845629Y-151555515D01*
X90657215Y-152009266D01*
X90656786Y-152500579D01*
X90844408Y-152954657D01*
X91191515Y-153302371D01*
X91408400Y-153392430D01*
X91509062Y-153459690D01*
X91626763Y-153483102D01*
X91645266Y-153490785D01*
X91665478Y-153490803D01*
X91948000Y-153546999D01*
X92386938Y-153459690D01*
X92759051Y-153211051D01*
X93266703Y-152703399D01*
X93343836Y-152889617D01*
X93569265Y-152939130D01*
X94252395Y-152256000D01*
X94238253Y-152241858D01*
X94417858Y-152062253D01*
X94432000Y-152076395D01*
X94446143Y-152062253D01*
X94625748Y-152241858D01*
X94611605Y-152256000D01*
X94625748Y-152270143D01*
X94446143Y-152449748D01*
X94432000Y-152435605D01*
X93748870Y-153118735D01*
X93798383Y-153344164D01*
X93807476Y-153347288D01*
X92087764Y-155067000D01*
X91186000Y-155067000D01*
X90845794Y-155134671D01*
X90557382Y-155327382D01*
X89986311Y-155898453D01*
X89978659Y-155895276D01*
X89348107Y-155894725D01*
X88765343Y-156135519D01*
X88391739Y-156508471D01*
X88021003Y-156137086D01*
X87438659Y-155895276D01*
X87140622Y-155895016D01*
X87225000Y-155691310D01*
X87225000Y-155225750D01*
X87066250Y-155067000D01*
X86217000Y-155067000D01*
X86217000Y-156041250D01*
X86286146Y-156110396D01*
X86225343Y-156135519D01*
X85785884Y-156574211D01*
X85698350Y-156543255D01*
X84761605Y-157480000D01*
X84775748Y-157494143D01*
X84596143Y-157673748D01*
X84582000Y-157659605D01*
X84567858Y-157673748D01*
X84388253Y-157494143D01*
X84402395Y-157480000D01*
X84388253Y-157465858D01*
X84567858Y-157286253D01*
X84582000Y-157300395D01*
X85518745Y-156363650D01*
X85460388Y-156198632D01*
X85463691Y-156200000D01*
X85804250Y-156200000D01*
X85963000Y-156041250D01*
X85963000Y-155067000D01*
X85943000Y-155067000D01*
X85943000Y-154813000D01*
X85963000Y-154813000D01*
X85963000Y-153838750D01*
X86217000Y-153838750D01*
X86217000Y-154813000D01*
X87066250Y-154813000D01*
X87225000Y-154654250D01*
X87225000Y-154188690D01*
X87128327Y-153955301D01*
X86949698Y-153776673D01*
X86716309Y-153680000D01*
X86375750Y-153680000D01*
X86217000Y-153838750D01*
X85963000Y-153838750D01*
X85804250Y-153680000D01*
X85463691Y-153680000D01*
X85230302Y-153776673D01*
X85221000Y-153785975D01*
X85221000Y-151511000D01*
X85810222Y-151511000D01*
X85765629Y-151555515D01*
G36*
X100810852Y-114991045D02*
X100784767Y-114927914D01*
X100465765Y-114608355D01*
X100048756Y-114435197D01*
X99597225Y-114434803D01*
X99179914Y-114607233D01*
X98860355Y-114926235D01*
X98687197Y-115343244D01*
X98687168Y-115377001D01*
X88457999Y-115377001D01*
X88117793Y-115444672D01*
X87930227Y-115570000D01*
X87829381Y-115637383D01*
X84461382Y-119005382D01*
X84268671Y-119293794D01*
X84201000Y-119634000D01*
X84201000Y-134874000D01*
X84268671Y-135214206D01*
X84342996Y-135325441D01*
X84461382Y-135502618D01*
X85223382Y-136264618D01*
X85511794Y-136457329D01*
X85564560Y-136467825D01*
X85564560Y-137616000D01*
X85608838Y-137851317D01*
X85747910Y-138067441D01*
X85960110Y-138212431D01*
X86212000Y-138263440D01*
X87412000Y-138263440D01*
X87647317Y-138219162D01*
X87863441Y-138080090D01*
X88008431Y-137867890D01*
X88059440Y-137616000D01*
X88059440Y-136942676D01*
X88117013Y-137000249D01*
X88116786Y-137260579D01*
X88304408Y-137714657D01*
X88651515Y-138062371D01*
X89105266Y-138250785D01*
X89596579Y-138251214D01*
X90050657Y-138063592D01*
X90398371Y-137716485D01*
X90586785Y-137262734D01*
X90586786Y-137260579D01*
X90656786Y-137260579D01*
X90844408Y-137714657D01*
X91191515Y-138062371D01*
X91645266Y-138250785D01*
X92136579Y-138251214D01*
X92590657Y-138063592D01*
X92938371Y-137716485D01*
X93126785Y-137262734D01*
X93126786Y-137260579D01*
X93196786Y-137260579D01*
X93384408Y-137714657D01*
X93731515Y-138062371D01*
X94185266Y-138250785D01*
X94676579Y-138251214D01*
X95130657Y-138063592D01*
X95478371Y-137716485D01*
X95666785Y-137262734D01*
X95667214Y-136771421D01*
X95479592Y-136317343D01*
X95132485Y-135969629D01*
X94678734Y-135781215D01*
X94187421Y-135780786D01*
X93733343Y-135968408D01*
X93385629Y-136315515D01*
X93197215Y-136769266D01*
X93196786Y-137260579D01*
X93126786Y-137260579D01*
X93127214Y-136771421D01*
X92939592Y-136317343D01*
X92592485Y-135969629D01*
X92138734Y-135781215D01*
X91647421Y-135780786D01*
X91193343Y-135968408D01*
X90845629Y-136315515D01*
X90657215Y-136769266D01*
X90656786Y-137260579D01*
X90586786Y-137260579D01*
X90587214Y-136771421D01*
X90399592Y-136317343D01*
X90052485Y-135969629D01*
X89598734Y-135781215D01*
X89412288Y-135781052D01*
X88638618Y-135007382D01*
X88629067Y-135001000D01*
X88350206Y-134814671D01*
X88010000Y-134747000D01*
X86220236Y-134747000D01*
X85979000Y-134505764D01*
X85979000Y-120002236D01*
X88826235Y-117155001D01*
X98646897Y-117155001D01*
X97486949Y-118314949D01*
X97238310Y-118687062D01*
X97151000Y-119126000D01*
X97151000Y-120486000D01*
X96045000Y-120486000D01*
X95606062Y-120573310D01*
X95233948Y-120821949D01*
X89866949Y-126188949D01*
X89618310Y-126561062D01*
X89531000Y-127000000D01*
X89531000Y-133046021D01*
X89504539Y-133072436D01*
X89293241Y-133581298D01*
X89292760Y-134132285D01*
X89503169Y-134641515D01*
X89892436Y-135031461D01*
X90401298Y-135242759D01*
X90952285Y-135243240D01*
X91461515Y-135032831D01*
X91851461Y-134643564D01*
X92062759Y-134134702D01*
X92063240Y-133583715D01*
X91852831Y-133074485D01*
X91825000Y-133046605D01*
X91825000Y-127475102D01*
X93439000Y-125861102D01*
X93439000Y-128696717D01*
X93366355Y-128769235D01*
X93193197Y-129186244D01*
X93192803Y-129637775D01*
X93365233Y-130055086D01*
X93684235Y-130374645D01*
X94101244Y-130547803D01*
X94552775Y-130548197D01*
X94869000Y-130417535D01*
X94869000Y-131677202D01*
X94936671Y-132017408D01*
X95080195Y-132232206D01*
X95129382Y-132305820D01*
X96186200Y-133362638D01*
X96474612Y-133555349D01*
X96492560Y-133558919D01*
X96492560Y-134142000D01*
X96536838Y-134377317D01*
X96675910Y-134593441D01*
X96888110Y-134738431D01*
X96901000Y-134741041D01*
X96901000Y-135780938D01*
X96727421Y-135780786D01*
X96273343Y-135968408D01*
X95925629Y-136315515D01*
X95737215Y-136769266D01*
X95736786Y-137260579D01*
X95924408Y-137714657D01*
X96271515Y-138062371D01*
X96725266Y-138250785D01*
X97216579Y-138251214D01*
X97670657Y-138063592D01*
X97855837Y-137878735D01*
X98828870Y-137878735D01*
X98878383Y-138104164D01*
X99343036Y-138263807D01*
X99833413Y-138233482D01*
X100145617Y-138104164D01*
X100195130Y-137878735D01*
X99512000Y-137195605D01*
X98828870Y-137878735D01*
X97855837Y-137878735D01*
X98018371Y-137716485D01*
X98206785Y-137262734D01*
X98206981Y-137038255D01*
X98271997Y-136973239D01*
X98294518Y-137337413D01*
X98423836Y-137649617D01*
X98649265Y-137699130D01*
X99332395Y-137016000D01*
X99691605Y-137016000D01*
X100374735Y-137699130D01*
X100600164Y-137649617D01*
X100759807Y-137184964D01*
X100729482Y-136694587D01*
X100600164Y-136382383D01*
X100374735Y-136332870D01*
X99691605Y-137016000D01*
X99332395Y-137016000D01*
X99318253Y-137001858D01*
X99497858Y-136822253D01*
X99512000Y-136836395D01*
X100195130Y-136153265D01*
X100145617Y-135927836D01*
X99680964Y-135768193D01*
X99190587Y-135798518D01*
X98878383Y-135927836D01*
X98828871Y-136153263D01*
X98713178Y-136037570D01*
X98679000Y-136071748D01*
X98679000Y-134742792D01*
X98891441Y-134606090D01*
X99036431Y-134393890D01*
X99087440Y-134142000D01*
X99087440Y-133623020D01*
X113155620Y-133623020D01*
X113153200Y-133628847D01*
X113152801Y-134085151D01*
X113216370Y-134239000D01*
X104014000Y-134239000D01*
X103673794Y-134306671D01*
X103543262Y-134393890D01*
X103385382Y-134499382D01*
X102103719Y-135781045D01*
X101807421Y-135780786D01*
X101353343Y-135968408D01*
X101005629Y-136315515D01*
X100817215Y-136769266D01*
X100816786Y-137260579D01*
X101004408Y-137714657D01*
X101351515Y-138062371D01*
X101805266Y-138250785D01*
X102296579Y-138251214D01*
X102750657Y-138063592D01*
X103098371Y-137716485D01*
X103286785Y-137262734D01*
X103286916Y-137112320D01*
X103356977Y-137042259D01*
X103356786Y-137260579D01*
X103544408Y-137714657D01*
X103891515Y-138062371D01*
X104345266Y-138250785D01*
X104836579Y-138251214D01*
X105290657Y-138063592D01*
X105638371Y-137716485D01*
X105826785Y-137262734D01*
X105826981Y-137038255D01*
X105897041Y-136968195D01*
X105896786Y-137260579D01*
X106084408Y-137714657D01*
X106431515Y-138062371D01*
X106885266Y-138250785D01*
X107376579Y-138251214D01*
X107707642Y-138114421D01*
X107787081Y-138233310D01*
X107829382Y-138296618D01*
X108591382Y-139058618D01*
X108867628Y-139243200D01*
X108826560Y-139446000D01*
X108826560Y-140970000D01*
X108870838Y-141205317D01*
X109009910Y-141421441D01*
X109222110Y-141566431D01*
X109474000Y-141617440D01*
X110998000Y-141617440D01*
X111233317Y-141573162D01*
X111379907Y-141478834D01*
X111508110Y-141566431D01*
X111760000Y-141617440D01*
X113284000Y-141617440D01*
X113519317Y-141573162D01*
X113735441Y-141434090D01*
X113880431Y-141221890D01*
X113931440Y-140970000D01*
X113931440Y-139446000D01*
X113907543Y-139319000D01*
X117602000Y-139319000D01*
X117942206Y-139251329D01*
X118230618Y-139058618D01*
X119198889Y-138090347D01*
X119307583Y-138135481D01*
X119249000Y-138430000D01*
X119249000Y-138817897D01*
X116840831Y-141226067D01*
X116739062Y-141246310D01*
X116366949Y-141494949D01*
X116118310Y-141867062D01*
X116031000Y-142306000D01*
X116031000Y-143179897D01*
X111399398Y-147811500D01*
X97675500Y-147811500D01*
X97245350Y-147897062D01*
X97236562Y-147898810D01*
X96864449Y-148147449D01*
X96115000Y-148896898D01*
X96115000Y-148621750D01*
X95956250Y-148463000D01*
X95107000Y-148463000D01*
X95107000Y-148483000D01*
X94853000Y-148483000D01*
X94853000Y-148463000D01*
X94833000Y-148463000D01*
X94833000Y-148209000D01*
X94853000Y-148209000D01*
X94853000Y-147234750D01*
X95107000Y-147234750D01*
X95107000Y-148209000D01*
X95956250Y-148209000D01*
X96115000Y-148050250D01*
X96115000Y-147584690D01*
X96018327Y-147351301D01*
X95839698Y-147172673D01*
X95606309Y-147076000D01*
X95265750Y-147076000D01*
X95107000Y-147234750D01*
X94853000Y-147234750D01*
X94694250Y-147076000D01*
X94353691Y-147076000D01*
X94120302Y-147172673D01*
X93979064Y-147313910D01*
X93944090Y-147259559D01*
X93731890Y-147114569D01*
X93480000Y-147063560D01*
X93091000Y-147063560D01*
X93091000Y-142260285D01*
X99452760Y-142260285D01*
X99663169Y-142769515D01*
X100052436Y-143159461D01*
X100561298Y-143370759D01*
X101112285Y-143371240D01*
X101621515Y-143160831D01*
X101649395Y-143133000D01*
X103240988Y-143133000D01*
X103679926Y-143045690D01*
X103686796Y-143041100D01*
X103845275Y-143041238D01*
X104015134Y-142971054D01*
X104180000Y-143004440D01*
X105180000Y-143004440D01*
X105415317Y-142960162D01*
X105631441Y-142821090D01*
X105677969Y-142752994D01*
X105820302Y-142895327D01*
X106053691Y-142992000D01*
X106394250Y-142992000D01*
X106553000Y-142833250D01*
X106553000Y-141859000D01*
X106807000Y-141859000D01*
X106807000Y-142833250D01*
X106965750Y-142992000D01*
X107306309Y-142992000D01*
X107539698Y-142895327D01*
X107718327Y-142716699D01*
X107815000Y-142483310D01*
X107815000Y-142017750D01*
X107656250Y-141859000D01*
X106807000Y-141859000D01*
X106553000Y-141859000D01*
X106533000Y-141859000D01*
X106533000Y-141605000D01*
X106553000Y-141605000D01*
X106553000Y-139827000D01*
X106807000Y-139827000D01*
X106807000Y-141605000D01*
X107656250Y-141605000D01*
X107815000Y-141446250D01*
X107815000Y-140980690D01*
X107718327Y-140747301D01*
X107687026Y-140716000D01*
X107718327Y-140684699D01*
X107815000Y-140451310D01*
X107815000Y-139985750D01*
X107656250Y-139827000D01*
X106807000Y-139827000D01*
X106553000Y-139827000D01*
X106533000Y-139827000D01*
X106533000Y-139573000D01*
X106553000Y-139573000D01*
X106553000Y-138598750D01*
X106807000Y-138598750D01*
X106807000Y-139573000D01*
X107656250Y-139573000D01*
X107815000Y-139414250D01*
X107815000Y-138948690D01*
X107718327Y-138715301D01*
X107539698Y-138536673D01*
X107306309Y-138440000D01*
X106965750Y-138440000D01*
X106807000Y-138598750D01*
X106553000Y-138598750D01*
X106394250Y-138440000D01*
X106053691Y-138440000D01*
X105820302Y-138536673D01*
X105679064Y-138677910D01*
X105644090Y-138623559D01*
X105431890Y-138478569D01*
X105180000Y-138427560D01*
X104180000Y-138427560D01*
X103944683Y-138471838D01*
X103728559Y-138610910D01*
X103583569Y-138823110D01*
X103532560Y-139075000D01*
X103532560Y-139225338D01*
X102759939Y-139997959D01*
X102511300Y-140370072D01*
X102423990Y-140809010D01*
X102423990Y-140839000D01*
X101649979Y-140839000D01*
X101623564Y-140812539D01*
X101114702Y-140601241D01*
X100563715Y-140600760D01*
X100054485Y-140811169D01*
X99664539Y-141200436D01*
X99453241Y-141709298D01*
X99452760Y-142260285D01*
X93091000Y-142260285D01*
X93091000Y-141478000D01*
X93080994Y-141428590D01*
X93052553Y-141386965D01*
X93010159Y-141359685D01*
X92964000Y-141351000D01*
X92664283Y-141351000D01*
X92591765Y-141278355D01*
X92174756Y-141105197D01*
X91723225Y-141104803D01*
X91305914Y-141277233D01*
X91232018Y-141351000D01*
X85806283Y-141351000D01*
X85733765Y-141278355D01*
X85580305Y-141214633D01*
X85528938Y-141180310D01*
X85468876Y-141168363D01*
X85316756Y-141105197D01*
X85150585Y-141105052D01*
X85090000Y-141093001D01*
X85029944Y-141104947D01*
X84865225Y-141104803D01*
X84711653Y-141168258D01*
X84651062Y-141180310D01*
X84600143Y-141214333D01*
X84447914Y-141277233D01*
X84374018Y-141351000D01*
X83006000Y-141351000D01*
X83006000Y-110984000D01*
X104817897Y-110984000D01*
X100810852Y-114991045D01*
X100810852Y-114991045D01*
G37*
X100810852Y-114991045D02*
X100784767Y-114927914D01*
X100465765Y-114608355D01*
X100048756Y-114435197D01*
X99597225Y-114434803D01*
X99179914Y-114607233D01*
X98860355Y-114926235D01*
X98687197Y-115343244D01*
X98687168Y-115377001D01*
X88457999Y-115377001D01*
X88117793Y-115444672D01*
X87930227Y-115570000D01*
X87829381Y-115637383D01*
X84461382Y-119005382D01*
X84268671Y-119293794D01*
X84201000Y-119634000D01*
X84201000Y-134874000D01*
X84268671Y-135214206D01*
X84342996Y-135325441D01*
X84461382Y-135502618D01*
X85223382Y-136264618D01*
X85511794Y-136457329D01*
X85564560Y-136467825D01*
X85564560Y-137616000D01*
X85608838Y-137851317D01*
X85747910Y-138067441D01*
X85960110Y-138212431D01*
X86212000Y-138263440D01*
X87412000Y-138263440D01*
X87647317Y-138219162D01*
X87863441Y-138080090D01*
X88008431Y-137867890D01*
X88059440Y-137616000D01*
X88059440Y-136942676D01*
X88117013Y-137000249D01*
X88116786Y-137260579D01*
X88304408Y-137714657D01*
X88651515Y-138062371D01*
X89105266Y-138250785D01*
X89596579Y-138251214D01*
X90050657Y-138063592D01*
X90398371Y-137716485D01*
X90586785Y-137262734D01*
X90586786Y-137260579D01*
X90656786Y-137260579D01*
X90844408Y-137714657D01*
X91191515Y-138062371D01*
X91645266Y-138250785D01*
X92136579Y-138251214D01*
X92590657Y-138063592D01*
X92938371Y-137716485D01*
X93126785Y-137262734D01*
X93126786Y-137260579D01*
X93196786Y-137260579D01*
X93384408Y-137714657D01*
X93731515Y-138062371D01*
X94185266Y-138250785D01*
X94676579Y-138251214D01*
X95130657Y-138063592D01*
X95478371Y-137716485D01*
X95666785Y-137262734D01*
X95667214Y-136771421D01*
X95479592Y-136317343D01*
X95132485Y-135969629D01*
X94678734Y-135781215D01*
X94187421Y-135780786D01*
X93733343Y-135968408D01*
X93385629Y-136315515D01*
X93197215Y-136769266D01*
X93196786Y-137260579D01*
X93126786Y-137260579D01*
X93127214Y-136771421D01*
X92939592Y-136317343D01*
X92592485Y-135969629D01*
X92138734Y-135781215D01*
X91647421Y-135780786D01*
X91193343Y-135968408D01*
X90845629Y-136315515D01*
X90657215Y-136769266D01*
X90656786Y-137260579D01*
X90586786Y-137260579D01*
X90587214Y-136771421D01*
X90399592Y-136317343D01*
X90052485Y-135969629D01*
X89598734Y-135781215D01*
X89412288Y-135781052D01*
X88638618Y-135007382D01*
X88629067Y-135001000D01*
X88350206Y-134814671D01*
X88010000Y-134747000D01*
X86220236Y-134747000D01*
X85979000Y-134505764D01*
X85979000Y-120002236D01*
X88826235Y-117155001D01*
X98646897Y-117155001D01*
X97486949Y-118314949D01*
X97238310Y-118687062D01*
X97151000Y-119126000D01*
X97151000Y-120486000D01*
X96045000Y-120486000D01*
X95606062Y-120573310D01*
X95233948Y-120821949D01*
X89866949Y-126188949D01*
X89618310Y-126561062D01*
X89531000Y-127000000D01*
X89531000Y-133046021D01*
X89504539Y-133072436D01*
X89293241Y-133581298D01*
X89292760Y-134132285D01*
X89503169Y-134641515D01*
X89892436Y-135031461D01*
X90401298Y-135242759D01*
X90952285Y-135243240D01*
X91461515Y-135032831D01*
X91851461Y-134643564D01*
X92062759Y-134134702D01*
X92063240Y-133583715D01*
X91852831Y-133074485D01*
X91825000Y-133046605D01*
X91825000Y-127475102D01*
X93439000Y-125861102D01*
X93439000Y-128696717D01*
X93366355Y-128769235D01*
X93193197Y-129186244D01*
X93192803Y-129637775D01*
X93365233Y-130055086D01*
X93684235Y-130374645D01*
X94101244Y-130547803D01*
X94552775Y-130548197D01*
X94869000Y-130417535D01*
X94869000Y-131677202D01*
X94936671Y-132017408D01*
X95080195Y-132232206D01*
X95129382Y-132305820D01*
X96186200Y-133362638D01*
X96474612Y-133555349D01*
X96492560Y-133558919D01*
X96492560Y-134142000D01*
X96536838Y-134377317D01*
X96675910Y-134593441D01*
X96888110Y-134738431D01*
X96901000Y-134741041D01*
X96901000Y-135780938D01*
X96727421Y-135780786D01*
X96273343Y-135968408D01*
X95925629Y-136315515D01*
X95737215Y-136769266D01*
X95736786Y-137260579D01*
X95924408Y-137714657D01*
X96271515Y-138062371D01*
X96725266Y-138250785D01*
X97216579Y-138251214D01*
X97670657Y-138063592D01*
X97855837Y-137878735D01*
X98828870Y-137878735D01*
X98878383Y-138104164D01*
X99343036Y-138263807D01*
X99833413Y-138233482D01*
X100145617Y-138104164D01*
X100195130Y-137878735D01*
X99512000Y-137195605D01*
X98828870Y-137878735D01*
X97855837Y-137878735D01*
X98018371Y-137716485D01*
X98206785Y-137262734D01*
X98206981Y-137038255D01*
X98271997Y-136973239D01*
X98294518Y-137337413D01*
X98423836Y-137649617D01*
X98649265Y-137699130D01*
X99332395Y-137016000D01*
X99691605Y-137016000D01*
X100374735Y-137699130D01*
X100600164Y-137649617D01*
X100759807Y-137184964D01*
X100729482Y-136694587D01*
X100600164Y-136382383D01*
X100374735Y-136332870D01*
X99691605Y-137016000D01*
X99332395Y-137016000D01*
X99318253Y-137001858D01*
X99497858Y-136822253D01*
X99512000Y-136836395D01*
X100195130Y-136153265D01*
X100145617Y-135927836D01*
X99680964Y-135768193D01*
X99190587Y-135798518D01*
X98878383Y-135927836D01*
X98828871Y-136153263D01*
X98713178Y-136037570D01*
X98679000Y-136071748D01*
X98679000Y-134742792D01*
X98891441Y-134606090D01*
X99036431Y-134393890D01*
X99087440Y-134142000D01*
X99087440Y-133623020D01*
X113155620Y-133623020D01*
X113153200Y-133628847D01*
X113152801Y-134085151D01*
X113216370Y-134239000D01*
X104014000Y-134239000D01*
X103673794Y-134306671D01*
X103543262Y-134393890D01*
X103385382Y-134499382D01*
X102103719Y-135781045D01*
X101807421Y-135780786D01*
X101353343Y-135968408D01*
X101005629Y-136315515D01*
X100817215Y-136769266D01*
X100816786Y-137260579D01*
X101004408Y-137714657D01*
X101351515Y-138062371D01*
X101805266Y-138250785D01*
X102296579Y-138251214D01*
X102750657Y-138063592D01*
X103098371Y-137716485D01*
X103286785Y-137262734D01*
X103286916Y-137112320D01*
X103356977Y-137042259D01*
X103356786Y-137260579D01*
X103544408Y-137714657D01*
X103891515Y-138062371D01*
X104345266Y-138250785D01*
X104836579Y-138251214D01*
X105290657Y-138063592D01*
X105638371Y-137716485D01*
X105826785Y-137262734D01*
X105826981Y-137038255D01*
X105897041Y-136968195D01*
X105896786Y-137260579D01*
X106084408Y-137714657D01*
X106431515Y-138062371D01*
X106885266Y-138250785D01*
X107376579Y-138251214D01*
X107707642Y-138114421D01*
X107787081Y-138233310D01*
X107829382Y-138296618D01*
X108591382Y-139058618D01*
X108867628Y-139243200D01*
X108826560Y-139446000D01*
X108826560Y-140970000D01*
X108870838Y-141205317D01*
X109009910Y-141421441D01*
X109222110Y-141566431D01*
X109474000Y-141617440D01*
X110998000Y-141617440D01*
X111233317Y-141573162D01*
X111379907Y-141478834D01*
X111508110Y-141566431D01*
X111760000Y-141617440D01*
X113284000Y-141617440D01*
X113519317Y-141573162D01*
X113735441Y-141434090D01*
X113880431Y-141221890D01*
X113931440Y-140970000D01*
X113931440Y-139446000D01*
X113907543Y-139319000D01*
X117602000Y-139319000D01*
X117942206Y-139251329D01*
X118230618Y-139058618D01*
X119198889Y-138090347D01*
X119307583Y-138135481D01*
X119249000Y-138430000D01*
X119249000Y-138817897D01*
X116840831Y-141226067D01*
X116739062Y-141246310D01*
X116366949Y-141494949D01*
X116118310Y-141867062D01*
X116031000Y-142306000D01*
X116031000Y-143179897D01*
X111399398Y-147811500D01*
X97675500Y-147811500D01*
X97245350Y-147897062D01*
X97236562Y-147898810D01*
X96864449Y-148147449D01*
X96115000Y-148896898D01*
X96115000Y-148621750D01*
X95956250Y-148463000D01*
X95107000Y-148463000D01*
X95107000Y-148483000D01*
X94853000Y-148483000D01*
X94853000Y-148463000D01*
X94833000Y-148463000D01*
X94833000Y-148209000D01*
X94853000Y-148209000D01*
X94853000Y-147234750D01*
X95107000Y-147234750D01*
X95107000Y-148209000D01*
X95956250Y-148209000D01*
X96115000Y-148050250D01*
X96115000Y-147584690D01*
X96018327Y-147351301D01*
X95839698Y-147172673D01*
X95606309Y-147076000D01*
X95265750Y-147076000D01*
X95107000Y-147234750D01*
X94853000Y-147234750D01*
X94694250Y-147076000D01*
X94353691Y-147076000D01*
X94120302Y-147172673D01*
X93979064Y-147313910D01*
X93944090Y-147259559D01*
X93731890Y-147114569D01*
X93480000Y-147063560D01*
X93091000Y-147063560D01*
X93091000Y-142260285D01*
X99452760Y-142260285D01*
X99663169Y-142769515D01*
X100052436Y-143159461D01*
X100561298Y-143370759D01*
X101112285Y-143371240D01*
X101621515Y-143160831D01*
X101649395Y-143133000D01*
X103240988Y-143133000D01*
X103679926Y-143045690D01*
X103686796Y-143041100D01*
X103845275Y-143041238D01*
X104015134Y-142971054D01*
X104180000Y-143004440D01*
X105180000Y-143004440D01*
X105415317Y-142960162D01*
X105631441Y-142821090D01*
X105677969Y-142752994D01*
X105820302Y-142895327D01*
X106053691Y-142992000D01*
X106394250Y-142992000D01*
X106553000Y-142833250D01*
X106553000Y-141859000D01*
X106807000Y-141859000D01*
X106807000Y-142833250D01*
X106965750Y-142992000D01*
X107306309Y-142992000D01*
X107539698Y-142895327D01*
X107718327Y-142716699D01*
X107815000Y-142483310D01*
X107815000Y-142017750D01*
X107656250Y-141859000D01*
X106807000Y-141859000D01*
X106553000Y-141859000D01*
X106533000Y-141859000D01*
X106533000Y-141605000D01*
X106553000Y-141605000D01*
X106553000Y-139827000D01*
X106807000Y-139827000D01*
X106807000Y-141605000D01*
X107656250Y-141605000D01*
X107815000Y-141446250D01*
X107815000Y-140980690D01*
X107718327Y-140747301D01*
X107687026Y-140716000D01*
X107718327Y-140684699D01*
X107815000Y-140451310D01*
X107815000Y-139985750D01*
X107656250Y-139827000D01*
X106807000Y-139827000D01*
X106553000Y-139827000D01*
X106533000Y-139827000D01*
X106533000Y-139573000D01*
X106553000Y-139573000D01*
X106553000Y-138598750D01*
X106807000Y-138598750D01*
X106807000Y-139573000D01*
X107656250Y-139573000D01*
X107815000Y-139414250D01*
X107815000Y-138948690D01*
X107718327Y-138715301D01*
X107539698Y-138536673D01*
X107306309Y-138440000D01*
X106965750Y-138440000D01*
X106807000Y-138598750D01*
X106553000Y-138598750D01*
X106394250Y-138440000D01*
X106053691Y-138440000D01*
X105820302Y-138536673D01*
X105679064Y-138677910D01*
X105644090Y-138623559D01*
X105431890Y-138478569D01*
X105180000Y-138427560D01*
X104180000Y-138427560D01*
X103944683Y-138471838D01*
X103728559Y-138610910D01*
X103583569Y-138823110D01*
X103532560Y-139075000D01*
X103532560Y-139225338D01*
X102759939Y-139997959D01*
X102511300Y-140370072D01*
X102423990Y-140809010D01*
X102423990Y-140839000D01*
X101649979Y-140839000D01*
X101623564Y-140812539D01*
X101114702Y-140601241D01*
X100563715Y-140600760D01*
X100054485Y-140811169D01*
X99664539Y-141200436D01*
X99453241Y-141709298D01*
X99452760Y-142260285D01*
X93091000Y-142260285D01*
X93091000Y-141478000D01*
X93080994Y-141428590D01*
X93052553Y-141386965D01*
X93010159Y-141359685D01*
X92964000Y-141351000D01*
X92664283Y-141351000D01*
X92591765Y-141278355D01*
X92174756Y-141105197D01*
X91723225Y-141104803D01*
X91305914Y-141277233D01*
X91232018Y-141351000D01*
X85806283Y-141351000D01*
X85733765Y-141278355D01*
X85580305Y-141214633D01*
X85528938Y-141180310D01*
X85468876Y-141168363D01*
X85316756Y-141105197D01*
X85150585Y-141105052D01*
X85090000Y-141093001D01*
X85029944Y-141104947D01*
X84865225Y-141104803D01*
X84711653Y-141168258D01*
X84651062Y-141180310D01*
X84600143Y-141214333D01*
X84447914Y-141277233D01*
X84374018Y-141351000D01*
X83006000Y-141351000D01*
X83006000Y-110984000D01*
X104817897Y-110984000D01*
X100810852Y-114991045D01*
G36*
X91304235Y-143201645D02*
X91721244Y-143374803D01*
X92172775Y-143375197D01*
X92329000Y-143310646D01*
X92329000Y-147086227D01*
X92120302Y-147172673D01*
X91941673Y-147351301D01*
X91845000Y-147584690D01*
X91845000Y-148050250D01*
X92003750Y-148209000D01*
X92329000Y-148209000D01*
X92329000Y-148463000D01*
X92003750Y-148463000D01*
X91845000Y-148621750D01*
X91845000Y-149087310D01*
X91941673Y-149320699D01*
X92120302Y-149499327D01*
X92329000Y-149585773D01*
X92329000Y-150495000D01*
X85221000Y-150495000D01*
X85221000Y-143731102D01*
X85823102Y-143129000D01*
X91231717Y-143129000D01*
X91304235Y-143201645D01*
X91304235Y-143201645D01*
G37*
X91304235Y-143201645D02*
X91721244Y-143374803D01*
X92172775Y-143375197D01*
X92329000Y-143310646D01*
X92329000Y-147086227D01*
X92120302Y-147172673D01*
X91941673Y-147351301D01*
X91845000Y-147584690D01*
X91845000Y-148050250D01*
X92003750Y-148209000D01*
X92329000Y-148209000D01*
X92329000Y-148463000D01*
X92003750Y-148463000D01*
X91845000Y-148621750D01*
X91845000Y-149087310D01*
X91941673Y-149320699D01*
X92120302Y-149499327D01*
X92329000Y-149585773D01*
X92329000Y-150495000D01*
X85221000Y-150495000D01*
X85221000Y-143731102D01*
X85823102Y-143129000D01*
X91231717Y-143129000D01*
X91304235Y-143201645D01*
M02*
