M48
METRIC,TZ
T1C0.500
T2C0.600
T3C0.800
T4C1.000
T5C1.016
T6C2.500
%
G90
G05
T1
X85090Y-142240
X85298Y-145288
X85298Y-148844
X86106Y-148082
X86360Y-146304
X88392Y-146304
X88392Y-148082
X89154Y-148844
X89408Y-145288
X91948Y-142240
X92980Y-148336
X94328Y-129413
X94742Y-142814
X94996Y-149098
X95758Y-126746
X95758Y-128270
X96774Y-125730
X97536Y-124714
X97790Y-128016
X99728Y-129413
X99822Y-115570
X102362Y-130556
X103013Y-125365
X103124Y-121666
X104648Y-147320
X105330Y-124176
X105918Y-125222
X109728Y-119380
X110998Y-118110
X113229Y-123222
X115570Y-115570
X116586Y-114046
X116586Y-123952
X116840Y-150622
X117348Y-135128
X117602Y-120650
X118618Y-135128
X119634Y-120650
X119634Y-123952
X120864Y-133390
X128016Y-139954
X130302Y-130048
T2
X114300Y-133858
T3
X86614Y-115062
X86812Y-137016
X86812Y-152256
X89352Y-137016
X89352Y-152256
X90678Y-133858
X91892Y-137016
X91892Y-152256
X92554Y-131953
X94432Y-137016
X94432Y-152256
X96972Y-137016
X96972Y-152256
X98298Y-121633
X99512Y-137016
X99512Y-152256
X100838Y-141986
X102052Y-137016
X102052Y-152256
X103571Y-141656
X104592Y-137016
X104592Y-152256
X107132Y-137016
X107132Y-152256
X107744Y-141656
X108392Y-113030
X108392Y-121920
X109672Y-137016
X109672Y-152256
X111506Y-113046
X111506Y-115046
X112212Y-137016
X112212Y-152256
X113506Y-142755
X114752Y-137016
X114752Y-152256
X117292Y-137016
X117292Y-152256
X119832Y-137016
X119832Y-152256
X122372Y-137016
X122372Y-152256
X124912Y-137016
X124912Y-152256
X127452Y-137016
X127452Y-152256
T4
X84582Y-157480
X87122Y-157480
X89662Y-157480
X92202Y-157480
X94742Y-157480
X97282Y-157480
X99822Y-157480
X102362Y-157480
X104902Y-157480
X107442Y-157480
X109982Y-157480
X112522Y-157480
X115062Y-157480
X117602Y-157480
X120142Y-157480
X122682Y-157480
T5
X110236Y-140208
X110998Y-126746
X110998Y-129286
X112522Y-140208
X113538Y-126746
X113538Y-129286
X116078Y-126746
X116078Y-129286
X118618Y-126746
X118618Y-129286
X121158Y-126746
X121158Y-129286
X123698Y-126746
X123698Y-129286
X125984Y-154940
X126238Y-126746
X126238Y-129286
X127508Y-134112
X128778Y-126746
X128778Y-129286
T6
X129982Y-157980
T0
M30
