G04 #@! TF.FileFunction,Soldermask,Bot*
%FSLAX46Y46*%
G04 Gerber Fmt 4.6, Leading zero omitted, Abs format (unit mm)*
G04 Created by KiCad (PCBNEW 4.0.2+e4-6225~38~ubuntu14.04.1-stable) date Fri 24 Jun 2016 17:26:14 BST*
%MOMM*%
G01*
G04 APERTURE LIST*
%ADD10C,0.100000*%
%ADD11R,1.400000X1.650000*%
%ADD12R,1.924000X1.924000*%
%ADD13R,2.127200X2.127200*%
%ADD14O,2.127200X2.127200*%
%ADD15R,1.650000X1.400000*%
%ADD16R,1.700000X1.100000*%
%ADD17C,1.600000*%
%ADD18R,1.600000X1.600000*%
%ADD19C,2.300000*%
%ADD20C,3.100000*%
%ADD21R,1.100000X1.700000*%
%ADD22C,0.254000*%
G04 APERTURE END LIST*
D10*
D11*
X104680000Y-139700000D03*
X106680000Y-139700000D03*
X104680000Y-141732000D03*
X106680000Y-141732000D03*
X92980000Y-148336000D03*
X94980000Y-148336000D03*
D12*
X127508000Y-134112000D03*
X125984000Y-154940000D03*
X112522000Y-140208000D03*
X110236000Y-140208000D03*
D13*
X110998000Y-126746000D03*
D14*
X110998000Y-129286000D03*
X113538000Y-126746000D03*
X113538000Y-129286000D03*
X116078000Y-126746000D03*
X116078000Y-129286000D03*
X118618000Y-126746000D03*
X118618000Y-129286000D03*
X121158000Y-126746000D03*
X121158000Y-129286000D03*
X123698000Y-126746000D03*
X123698000Y-129286000D03*
X126238000Y-126746000D03*
X126238000Y-129286000D03*
X128778000Y-126746000D03*
X128778000Y-129286000D03*
D15*
X111506000Y-113046000D03*
X111506000Y-115046000D03*
D16*
X97790000Y-133792000D03*
X97790000Y-131892000D03*
D17*
X86812000Y-152256000D03*
X89352000Y-152256000D03*
X91892000Y-152256000D03*
X94432000Y-152256000D03*
X96972000Y-152256000D03*
X99512000Y-152256000D03*
X102052000Y-152256000D03*
X104592000Y-152256000D03*
X107132000Y-152256000D03*
X109672000Y-152256000D03*
X112212000Y-152256000D03*
X114752000Y-152256000D03*
X117292000Y-152256000D03*
X119832000Y-152256000D03*
X122372000Y-152256000D03*
X124912000Y-152256000D03*
X127452000Y-152256000D03*
D18*
X86812000Y-137016000D03*
D17*
X89352000Y-137016000D03*
X91892000Y-137016000D03*
X94432000Y-137016000D03*
X96972000Y-137016000D03*
X99512000Y-137016000D03*
X102052000Y-137016000D03*
X104592000Y-137016000D03*
X107132000Y-137016000D03*
X109672000Y-137016000D03*
X112212000Y-137016000D03*
X114752000Y-137016000D03*
X117292000Y-137016000D03*
X119832000Y-137016000D03*
X122372000Y-137016000D03*
X124912000Y-137016000D03*
X127452000Y-137016000D03*
D19*
X122682000Y-157480000D03*
X120142000Y-157480000D03*
X117602000Y-157480000D03*
X115062000Y-157480000D03*
X112522000Y-157480000D03*
X109982000Y-157480000D03*
X107442000Y-157480000D03*
X104902000Y-157480000D03*
X102362000Y-157480000D03*
X99822000Y-157480000D03*
X97282000Y-157480000D03*
X94742000Y-157480000D03*
X92202000Y-157480000D03*
X89662000Y-157480000D03*
X87122000Y-157480000D03*
X84582000Y-157480000D03*
D20*
X129982000Y-157980000D03*
D21*
X95438000Y-145288000D03*
X93538000Y-145288000D03*
X98486000Y-144780000D03*
X96586000Y-144780000D03*
X101534000Y-144780000D03*
X99634000Y-144780000D03*
D16*
X103124000Y-147000000D03*
X103124000Y-145100000D03*
D21*
X99634000Y-147320000D03*
X101534000Y-147320000D03*
D16*
X98044000Y-149540000D03*
X98044000Y-147640000D03*
D22*
G36*
X91350197Y-143345803D02*
X91392211Y-143373666D01*
X91440000Y-143383000D01*
X92403394Y-143383000D01*
X93345000Y-144324606D01*
X93345000Y-145743394D01*
X91858197Y-147230197D01*
X91830334Y-147272211D01*
X91821000Y-147320000D01*
X91821000Y-149807394D01*
X90879394Y-150749000D01*
X84634606Y-150749000D01*
X84455000Y-150569394D01*
X84455000Y-144578606D01*
X85904606Y-143129000D01*
X91133394Y-143129000D01*
X91350197Y-143345803D01*
X91350197Y-143345803D01*
G37*
X91350197Y-143345803D02*
X91392211Y-143373666D01*
X91440000Y-143383000D01*
X92403394Y-143383000D01*
X93345000Y-144324606D01*
X93345000Y-145743394D01*
X91858197Y-147230197D01*
X91830334Y-147272211D01*
X91821000Y-147320000D01*
X91821000Y-149807394D01*
X90879394Y-150749000D01*
X84634606Y-150749000D01*
X84455000Y-150569394D01*
X84455000Y-144578606D01*
X85904606Y-143129000D01*
X91133394Y-143129000D01*
X91350197Y-143345803D01*
M02*
