G04 #@! TF.FileFunction,Soldermask,Top*
%FSLAX46Y46*%
G04 Gerber Fmt 4.6, Leading zero omitted, Abs format (unit mm)*
G04 Created by KiCad (PCBNEW 4.0.0-2.201512091501+6195~38~ubuntu14.04.1-stable) date Wed 16 Dec 2015 18:22:48 GMT*
%MOMM*%
G01*
G04 APERTURE LIST*
%ADD10C,0.100000*%
%ADD11C,1.600000*%
%ADD12R,1.600000X1.600000*%
%ADD13R,1.924000X1.924000*%
%ADD14R,1.700000X1.100000*%
%ADD15R,1.100000X1.700000*%
%ADD16R,1.800000X0.700000*%
%ADD17R,1.460000X1.050000*%
%ADD18R,1.901140X1.400760*%
%ADD19R,3.399740X2.398980*%
%ADD20C,2.300000*%
%ADD21R,2.127200X2.127200*%
%ADD22O,2.127200X2.127200*%
%ADD23R,1.650000X1.400000*%
%ADD24R,1.900000X1.000000*%
G04 APERTURE END LIST*
D10*
D11*
X86868000Y-152274000D03*
X89408000Y-152274000D03*
X91948000Y-152274000D03*
X94488000Y-152274000D03*
X97028000Y-152274000D03*
X99568000Y-152274000D03*
X102108000Y-152274000D03*
X104648000Y-152274000D03*
X107188000Y-152274000D03*
X109728000Y-152274000D03*
X112268000Y-152274000D03*
X114808000Y-152274000D03*
X117348000Y-152274000D03*
X119888000Y-152274000D03*
X122428000Y-152274000D03*
X124968000Y-152274000D03*
X127508000Y-152274000D03*
D12*
X86868000Y-137034000D03*
D11*
X89408000Y-137034000D03*
X91948000Y-137034000D03*
X94488000Y-137034000D03*
X97028000Y-137034000D03*
X99568000Y-137034000D03*
X102108000Y-137034000D03*
X104648000Y-137034000D03*
X107188000Y-137034000D03*
X109728000Y-137034000D03*
X112268000Y-137034000D03*
X114808000Y-137034000D03*
X117348000Y-137034000D03*
X119888000Y-137034000D03*
X122428000Y-137034000D03*
X124968000Y-137034000D03*
X127508000Y-137034000D03*
D13*
X127508000Y-134112000D03*
X107188000Y-148336000D03*
X102108000Y-148336000D03*
X125984000Y-154940000D03*
D14*
X110744000Y-145222000D03*
X110744000Y-143322000D03*
D15*
X116962000Y-146304000D03*
X115062000Y-146304000D03*
D14*
X113030000Y-145222000D03*
X113030000Y-143322000D03*
D16*
X103464000Y-142256000D03*
X103464000Y-142756000D03*
X103464000Y-143256000D03*
X103464000Y-143756000D03*
X103464000Y-144256000D03*
X107864000Y-144256000D03*
X107864000Y-143756000D03*
X107864000Y-143256000D03*
X107864000Y-142756000D03*
X107864000Y-142256000D03*
D17*
X114978000Y-142306000D03*
X114978000Y-143256000D03*
X114978000Y-144206000D03*
X117178000Y-144206000D03*
X117178000Y-142306000D03*
D18*
X127411480Y-144503140D03*
X127411480Y-143002000D03*
X127411480Y-141500860D03*
D19*
X124460000Y-143002000D03*
D10*
G36*
X125734470Y-141801240D02*
X126883770Y-142301620D01*
X126883770Y-143702380D01*
X125734470Y-144202760D01*
X125734470Y-141801240D01*
X125734470Y-141801240D01*
G37*
D20*
X122682000Y-157480000D03*
X120142000Y-157480000D03*
X117602000Y-157480000D03*
X115062000Y-157480000D03*
X112522000Y-157480000D03*
X109982000Y-157480000D03*
X107442000Y-157480000D03*
X104902000Y-157480000D03*
X102362000Y-157480000D03*
X99822000Y-157480000D03*
X97282000Y-157480000D03*
X94742000Y-157480000D03*
X92202000Y-157480000D03*
X89662000Y-157480000D03*
X87122000Y-157480000D03*
X84582000Y-157480000D03*
D21*
X110998000Y-126746000D03*
D22*
X110998000Y-129286000D03*
X113538000Y-126746000D03*
X113538000Y-129286000D03*
X116078000Y-126746000D03*
X116078000Y-129286000D03*
X118618000Y-126746000D03*
X118618000Y-129286000D03*
X121158000Y-126746000D03*
X121158000Y-129286000D03*
X123698000Y-126746000D03*
X123698000Y-129286000D03*
X126238000Y-126746000D03*
X126238000Y-129286000D03*
X128778000Y-126746000D03*
X128778000Y-129286000D03*
D23*
X91948000Y-121666000D03*
X91948000Y-123666000D03*
D24*
X108392000Y-113030000D03*
X108392000Y-114300000D03*
X108392000Y-115570000D03*
X108392000Y-116840000D03*
X108392000Y-118110000D03*
X108392000Y-119380000D03*
X108392000Y-120650000D03*
X108392000Y-121920000D03*
X113792000Y-121920000D03*
X113792000Y-120650000D03*
X113792000Y-119380000D03*
X113792000Y-118110000D03*
X113792000Y-116840000D03*
X113792000Y-115570000D03*
X113792000Y-114300000D03*
X113792000Y-113030000D03*
X94328000Y-123063000D03*
X94328000Y-124333000D03*
X94328000Y-125603000D03*
X94328000Y-126873000D03*
X94328000Y-128143000D03*
X94328000Y-129413000D03*
X94328000Y-130683000D03*
X94328000Y-131953000D03*
X99728000Y-131953000D03*
X99728000Y-130683000D03*
X99728000Y-129413000D03*
X99728000Y-128143000D03*
X99728000Y-126873000D03*
X99728000Y-125603000D03*
X99728000Y-124333000D03*
X99728000Y-123063000D03*
M02*
