G04 #@! TF.FileFunction,Copper,L1,Top,Signal*
%FSLAX46Y46*%
G04 Gerber Fmt 4.6, Leading zero omitted, Abs format (unit mm)*
G04 Created by KiCad (PCBNEW 4.0.2+e4-6225~38~ubuntu14.04.1-stable) date Tue 24 May 2016 13:09:55 BST*
%MOMM*%
G01*
G04 APERTURE LIST*
%ADD10C,0.100000*%
%ADD11R,1.524000X1.524000*%
%ADD12R,1.300000X0.700000*%
%ADD13R,1.400000X0.300000*%
%ADD14R,1.060000X0.650000*%
%ADD15R,1.727200X1.727200*%
%ADD16O,1.727200X1.727200*%
%ADD17R,1.250000X1.000000*%
%ADD18R,1.500000X0.600000*%
%ADD19R,1.651000X3.048000*%
%ADD20R,6.096000X6.096000*%
%ADD21R,0.700000X1.300000*%
%ADD22C,1.200000*%
%ADD23R,1.200000X1.200000*%
%ADD24C,1.900000*%
%ADD25C,2.700000*%
%ADD26C,1.000000*%
%ADD27C,1.024000*%
%ADD28C,1.500000*%
%ADD29C,1.024000*%
%ADD30C,0.762000*%
%ADD31C,0.508000*%
%ADD32C,0.254000*%
G04 APERTURE END LIST*
D10*
D11*
X127508000Y-134112000D03*
X125984000Y-154940000D03*
X112522000Y-140208000D03*
X110236000Y-140208000D03*
D12*
X110744000Y-145222000D03*
X110744000Y-143322000D03*
D13*
X103464000Y-142256000D03*
X103464000Y-142756000D03*
X103464000Y-143256000D03*
X103464000Y-143756000D03*
X103464000Y-144256000D03*
X107864000Y-144256000D03*
X107864000Y-143756000D03*
X107864000Y-143256000D03*
X107864000Y-142756000D03*
X107864000Y-142256000D03*
D14*
X95080000Y-148016000D03*
X95080000Y-147066000D03*
X95080000Y-146116000D03*
X92880000Y-146116000D03*
X92880000Y-148016000D03*
D15*
X110998000Y-126746000D03*
D16*
X110998000Y-129286000D03*
X113538000Y-126746000D03*
X113538000Y-129286000D03*
X116078000Y-126746000D03*
X116078000Y-129286000D03*
X118618000Y-126746000D03*
X118618000Y-129286000D03*
X121158000Y-126746000D03*
X121158000Y-129286000D03*
X123698000Y-126746000D03*
X123698000Y-129286000D03*
X126238000Y-126746000D03*
X126238000Y-129286000D03*
X128778000Y-126746000D03*
X128778000Y-129286000D03*
D17*
X91948000Y-121666000D03*
X91948000Y-123666000D03*
D18*
X108392000Y-113030000D03*
X108392000Y-114300000D03*
X108392000Y-115570000D03*
X108392000Y-116840000D03*
X108392000Y-118110000D03*
X108392000Y-119380000D03*
X108392000Y-120650000D03*
X108392000Y-121920000D03*
X113792000Y-121920000D03*
X113792000Y-120650000D03*
X113792000Y-119380000D03*
X113792000Y-118110000D03*
X113792000Y-116840000D03*
X113792000Y-115570000D03*
X113792000Y-114300000D03*
X113792000Y-113030000D03*
X94328000Y-123063000D03*
X94328000Y-124333000D03*
X94328000Y-125603000D03*
X94328000Y-126873000D03*
X94328000Y-128143000D03*
X94328000Y-129413000D03*
X94328000Y-130683000D03*
X94328000Y-131953000D03*
X99728000Y-131953000D03*
X99728000Y-130683000D03*
X99728000Y-129413000D03*
X99728000Y-128143000D03*
X99728000Y-126873000D03*
X99728000Y-125603000D03*
X99728000Y-124333000D03*
X99728000Y-123063000D03*
D17*
X104394000Y-146066000D03*
X104394000Y-148066000D03*
D19*
X89662000Y-140716000D03*
D20*
X87376000Y-147066000D03*
D19*
X85090000Y-140716000D03*
D21*
X105984000Y-146050000D03*
X107884000Y-146050000D03*
X98872000Y-146050000D03*
X100772000Y-146050000D03*
D12*
X94742000Y-144714000D03*
X94742000Y-142814000D03*
X92710000Y-142814000D03*
X92710000Y-144714000D03*
X97282000Y-145100000D03*
X97282000Y-147000000D03*
D22*
X86812000Y-152256000D03*
X89352000Y-152256000D03*
X91892000Y-152256000D03*
X94432000Y-152256000D03*
X96972000Y-152256000D03*
X99512000Y-152256000D03*
X102052000Y-152256000D03*
X104592000Y-152256000D03*
X107132000Y-152256000D03*
X109672000Y-152256000D03*
X112212000Y-152256000D03*
X114752000Y-152256000D03*
X117292000Y-152256000D03*
X119832000Y-152256000D03*
X122372000Y-152256000D03*
X124912000Y-152256000D03*
X127452000Y-152256000D03*
D23*
X86812000Y-137016000D03*
D22*
X89352000Y-137016000D03*
X91892000Y-137016000D03*
X94432000Y-137016000D03*
X96972000Y-137016000D03*
X99512000Y-137016000D03*
X102052000Y-137016000D03*
X104592000Y-137016000D03*
X107132000Y-137016000D03*
X109672000Y-137016000D03*
X112212000Y-137016000D03*
X114752000Y-137016000D03*
X117292000Y-137016000D03*
X119832000Y-137016000D03*
X122372000Y-137016000D03*
X124912000Y-137016000D03*
X127452000Y-137016000D03*
D24*
X122682000Y-157480000D03*
X120142000Y-157480000D03*
X117602000Y-157480000D03*
X115062000Y-157480000D03*
X112522000Y-157480000D03*
X109982000Y-157480000D03*
X107442000Y-157480000D03*
X104902000Y-157480000D03*
X102362000Y-157480000D03*
X99822000Y-157480000D03*
X97282000Y-157480000D03*
X94742000Y-157480000D03*
X92202000Y-157480000D03*
X89662000Y-157480000D03*
X87122000Y-157480000D03*
X84582000Y-157480000D03*
D25*
X129982000Y-157980000D03*
D26*
X89154000Y-148844000D03*
X88392000Y-148082000D03*
X88392000Y-146304000D03*
X85298002Y-148844000D03*
X86106000Y-148082000D03*
X86360000Y-146304000D03*
X89408000Y-145288000D03*
X85298002Y-145288000D03*
X92980000Y-148336000D03*
D27*
X114300000Y-133858000D03*
D26*
X104648000Y-147320000D03*
X128016000Y-139954000D03*
X94996000Y-149098000D03*
X94742000Y-142814000D03*
D28*
X92554000Y-131953000D03*
X111506000Y-115046000D03*
D26*
X130302000Y-130048000D03*
D28*
X86614000Y-115062000D03*
X107744000Y-141655998D03*
D26*
X119634000Y-123952000D03*
X116586000Y-123952000D03*
D28*
X113506174Y-142755372D03*
X108392000Y-113030000D03*
X108392000Y-121920000D03*
D26*
X116840000Y-150622000D03*
D28*
X98298000Y-121633000D03*
X90678000Y-133858000D03*
X103570990Y-141655998D03*
X100838000Y-141986000D03*
X111506000Y-113046000D03*
D26*
X97790000Y-128016000D03*
X103013452Y-125365452D03*
X113228817Y-123221873D03*
X103124000Y-121666000D03*
X99822000Y-115570000D03*
X99728000Y-129413000D03*
X102362000Y-130556000D03*
X96774000Y-125730000D03*
X95758000Y-128270000D03*
X120864413Y-133389587D03*
X94328000Y-129413000D03*
X105918000Y-125222000D03*
X105330087Y-124175883D03*
X110998000Y-118110000D03*
X95758000Y-126746000D03*
X109728000Y-119380000D03*
X97536000Y-124714000D03*
X117602000Y-120650000D03*
X119634000Y-120650000D03*
X115570000Y-115570000D03*
X116586000Y-114046000D03*
X117348000Y-135128000D03*
X118618000Y-135128000D03*
X91948000Y-142240000D03*
X85090000Y-142240000D03*
D29*
X89154000Y-148844000D02*
X87630000Y-147066000D01*
X88392000Y-148082000D02*
X87376000Y-147066000D01*
X88392000Y-146304000D02*
X87630000Y-147066000D01*
X87630000Y-147066000D02*
X87376000Y-147066000D01*
X86106000Y-148082000D02*
X87122000Y-147066000D01*
X87122000Y-147066000D02*
X87376000Y-147066000D01*
X86360000Y-146304000D02*
X87122000Y-147066000D01*
X87122000Y-147066000D02*
X87376000Y-147066000D01*
X87630000Y-147066000D02*
X87376000Y-147066000D01*
X87630000Y-147066000D02*
X87376000Y-147066000D01*
X85298002Y-145288000D02*
X87076002Y-147066000D01*
X87076002Y-147066000D02*
X87376000Y-147066000D01*
X87076002Y-147066000D02*
X87376000Y-147066000D01*
X92980000Y-148336000D02*
X92980000Y-148116000D01*
X92980000Y-148116000D02*
X92880000Y-148016000D01*
X89408000Y-148844000D02*
X87884000Y-147066000D01*
X87884000Y-147066000D02*
X87376000Y-147066000D01*
X110998000Y-129286000D02*
X110998000Y-130556000D01*
X110998000Y-130556000D02*
X114300000Y-133858000D01*
X113506174Y-142755372D02*
X116307546Y-139954000D01*
X116307546Y-139954000D02*
X128016000Y-139954000D01*
X94488000Y-152274000D02*
X94996000Y-151766000D01*
X94996000Y-151766000D02*
X94996000Y-149098000D01*
X104394000Y-148066000D02*
X104394000Y-147574000D01*
X104394000Y-147574000D02*
X104648000Y-147320000D01*
D30*
X122682000Y-157480000D02*
X120904000Y-159258000D01*
X120904000Y-159258000D02*
X114300000Y-159258000D01*
X114300000Y-159258000D02*
X112522000Y-157480000D01*
D31*
X95080000Y-147066000D02*
X94488000Y-147066000D01*
X94488000Y-147066000D02*
X93980000Y-147574000D01*
X93980000Y-147574000D02*
X93980000Y-148590000D01*
X93980000Y-148590000D02*
X94488000Y-149098000D01*
X94488000Y-149098000D02*
X94996000Y-149098000D01*
D29*
X90299000Y-123666000D02*
X91948000Y-123666000D01*
X94328000Y-131953000D02*
X92554000Y-131953000D01*
X92554000Y-131953000D02*
X91948000Y-131347000D01*
X91948000Y-131347000D02*
X91948000Y-125190000D01*
X91948000Y-125190000D02*
X91948000Y-123666000D01*
D31*
X92551000Y-123063000D02*
X91948000Y-123666000D01*
X111772000Y-115062000D02*
X111522000Y-115062000D01*
X111522000Y-115062000D02*
X111506000Y-115046000D01*
X113792000Y-114300000D02*
X112534000Y-114300000D01*
X112534000Y-114300000D02*
X111772000Y-115062000D01*
X130302000Y-137668000D02*
X128016000Y-139954000D01*
X130302000Y-130048000D02*
X130302000Y-137668000D01*
D29*
X89916000Y-123283000D02*
X90299000Y-123666000D01*
D32*
X107864000Y-141852000D02*
X107744000Y-141655998D01*
X107864000Y-142256000D02*
X107864000Y-141852000D01*
X107744000Y-141732000D02*
X107744000Y-141655998D01*
D29*
X89916000Y-121291398D02*
X89916000Y-123283000D01*
X91036399Y-120170999D02*
X89916000Y-121291398D01*
X98999761Y-120170999D02*
X91036399Y-120170999D01*
X101706763Y-122878001D02*
X98999761Y-120170999D01*
X108392000Y-121920000D02*
X106618000Y-121920000D01*
X106618000Y-121920000D02*
X105659999Y-122878001D01*
X105659999Y-122878001D02*
X101706763Y-122878001D01*
D31*
X99728000Y-124333000D02*
X98820922Y-124333000D01*
X98820922Y-124333000D02*
X97550922Y-123063000D01*
X97550922Y-123063000D02*
X95586000Y-123063000D01*
X94328000Y-123063000D02*
X92551000Y-123063000D01*
X95586000Y-123063000D02*
X94328000Y-123063000D01*
D29*
X117856000Y-150622000D02*
X119380000Y-150622000D01*
X118618000Y-151384000D02*
X117856000Y-150622000D01*
X117856000Y-150622000D02*
X116840000Y-150622000D01*
X121158000Y-151384000D02*
X120396000Y-150622000D01*
X120396000Y-150622000D02*
X119380000Y-150622000D01*
D30*
X121158000Y-151384000D02*
X121158000Y-152908000D01*
D29*
X121158000Y-153670000D02*
X121158000Y-152908000D01*
X121158000Y-153670000D02*
X120142000Y-154686000D01*
X118618000Y-153162000D02*
X120142000Y-154686000D01*
D30*
X118618000Y-151384000D02*
X118618000Y-153162000D01*
D29*
X119380000Y-150622000D02*
X118618000Y-151384000D01*
D30*
X99822000Y-144780000D02*
X99822000Y-147320000D01*
D29*
X99822000Y-152020000D02*
X99822000Y-147320000D01*
X99822000Y-143764000D02*
X99822000Y-144780000D01*
X99822000Y-143764000D02*
X99568000Y-143510000D01*
X99568000Y-152274000D02*
X99822000Y-152020000D01*
X91694000Y-138938000D02*
X94996000Y-138938000D01*
X91694000Y-138938000D02*
X90678000Y-137922000D01*
D30*
X90678000Y-137922000D02*
X90678000Y-136144000D01*
D29*
X94996000Y-138938000D02*
X99568000Y-143510000D01*
X99568000Y-143510000D02*
X99568000Y-143256000D01*
X99568000Y-143256000D02*
X100838000Y-141986000D01*
X120142000Y-157480000D02*
X120142000Y-154686000D01*
X98298000Y-121633000D02*
X98331000Y-121666000D01*
X90678000Y-133858000D02*
X90678000Y-136144000D01*
D32*
X103464000Y-141852000D02*
X103570990Y-141655998D01*
X103584000Y-141732000D02*
X103584000Y-141669008D01*
X103584000Y-141669008D02*
X103570990Y-141655998D01*
X103464000Y-142256000D02*
X103464000Y-141852000D01*
D31*
X113792000Y-113030000D02*
X111522000Y-113030000D01*
X111522000Y-113030000D02*
X111506000Y-113046000D01*
D29*
X98331000Y-121666000D02*
X99728000Y-123063000D01*
X91948000Y-121666000D02*
X98331000Y-121666000D01*
X94488000Y-157226000D02*
X94742000Y-157480000D01*
D31*
X97282000Y-145100000D02*
X97282000Y-142748000D01*
X95250000Y-140716000D02*
X89662000Y-140716000D01*
X97282000Y-142748000D02*
X95250000Y-140716000D01*
X99728000Y-126873000D02*
X98933000Y-126873000D01*
X98933000Y-126873000D02*
X97790000Y-128016000D01*
D32*
X107864000Y-143756000D02*
X110310000Y-143756000D01*
X110310000Y-143756000D02*
X110744000Y-143322000D01*
D31*
X102743000Y-125603000D02*
X102980548Y-125365452D01*
X102980548Y-125365452D02*
X103013452Y-125365452D01*
X99728000Y-125603000D02*
X102743000Y-125603000D01*
X99855000Y-125476000D02*
X99728000Y-125603000D01*
X106172000Y-118110000D02*
X108392000Y-118110000D01*
X86868000Y-152274000D02*
X84710000Y-152274000D01*
X83312000Y-150876000D02*
X83312000Y-121158000D01*
X84710000Y-152274000D02*
X83312000Y-150876000D01*
X105156000Y-117094000D02*
X87376000Y-117094000D01*
X87376000Y-117094000D02*
X83312000Y-121158000D01*
X106172000Y-118110000D02*
X105156000Y-117094000D01*
X113330000Y-123190000D02*
X113260690Y-123190000D01*
X113260690Y-123190000D02*
X113228817Y-123221873D01*
X113792000Y-121920000D02*
X113792000Y-122728000D01*
X113792000Y-122728000D02*
X113330000Y-123190000D01*
X89408000Y-152274000D02*
X91440000Y-150242000D01*
X88646000Y-143002000D02*
X88010000Y-142366000D01*
X90678000Y-143002000D02*
X88646000Y-143002000D01*
X91440000Y-143764000D02*
X90678000Y-143002000D01*
X91440000Y-150242000D02*
X91440000Y-143764000D01*
X100584000Y-119126000D02*
X88392000Y-119126000D01*
X88392000Y-119126000D02*
X85852000Y-121666000D01*
X103124000Y-121666000D02*
X100584000Y-119126000D01*
X88010000Y-136016000D02*
X85852000Y-133858000D01*
X85852000Y-133858000D02*
X85852000Y-121666000D01*
X88010000Y-142366000D02*
X88010000Y-136016000D01*
X84728020Y-121265980D02*
X84728020Y-136002020D01*
X86868000Y-137034000D02*
X85760000Y-137034000D01*
X85760000Y-137034000D02*
X84728020Y-136002020D01*
X103632000Y-118110000D02*
X87884000Y-118110000D01*
X87884000Y-118110000D02*
X84728020Y-121265980D01*
X106172000Y-120650000D02*
X103632000Y-118110000D01*
X108392000Y-120650000D02*
X106172000Y-120650000D01*
X108392000Y-115570000D02*
X99822000Y-115570000D01*
X109728000Y-137034000D02*
X109728000Y-136185472D01*
X109728000Y-136185472D02*
X108416528Y-134874000D01*
X108416528Y-134874000D02*
X103907000Y-134874000D01*
X103907000Y-134874000D02*
X100986000Y-131953000D01*
X100986000Y-131953000D02*
X99728000Y-131953000D01*
X109220000Y-138430000D02*
X111720528Y-138430000D01*
X111720528Y-138430000D02*
X112268000Y-137882528D01*
X112268000Y-137882528D02*
X112268000Y-137034000D01*
X94328000Y-130683000D02*
X95123000Y-130683000D01*
X95758000Y-134874000D02*
X96583501Y-135699501D01*
X95123000Y-130683000D02*
X95758000Y-131318000D01*
X96583501Y-135699501D02*
X108013501Y-135699501D01*
X108458000Y-136144000D02*
X108458000Y-137668000D01*
X95758000Y-131318000D02*
X95758000Y-134874000D01*
X108013501Y-135699501D02*
X108458000Y-136144000D01*
X108458000Y-137668000D02*
X109220000Y-138430000D01*
X110618000Y-135764000D02*
X112557922Y-135764000D01*
X112557922Y-135764000D02*
X113827922Y-137034000D01*
X113827922Y-137034000D02*
X114808000Y-137034000D01*
X102362000Y-130556000D02*
X105918000Y-134112000D01*
X108966000Y-134112000D02*
X110618000Y-135764000D01*
X105918000Y-134112000D02*
X108966000Y-134112000D01*
X113144455Y-134347980D02*
X113798475Y-135002000D01*
X115316000Y-135002000D02*
X117348000Y-137034000D01*
X113798475Y-135002000D02*
X115316000Y-135002000D01*
X111741980Y-134347980D02*
X113144455Y-134347980D01*
X113792000Y-119380000D02*
X112507277Y-119380000D01*
X112507277Y-119380000D02*
X110998000Y-120889277D01*
X110998000Y-120889277D02*
X110998000Y-122428000D01*
X110998000Y-122428000D02*
X109166010Y-124259990D01*
X109166010Y-124259990D02*
X109166010Y-131772010D01*
X109166010Y-131772010D02*
X111741980Y-134347980D01*
X117094000Y-138430000D02*
X116078000Y-137414000D01*
X116078000Y-137414000D02*
X116078000Y-136765276D01*
X116078000Y-136765276D02*
X115062000Y-135749276D01*
X119888000Y-137034000D02*
X118492000Y-138430000D01*
X118492000Y-138430000D02*
X117094000Y-138430000D01*
X113544474Y-135749276D02*
X112851188Y-135055990D01*
X115062000Y-135749276D02*
X113544474Y-135749276D01*
X112851188Y-135055990D02*
X111433990Y-135055990D01*
X111433990Y-135055990D02*
X108458000Y-132080000D01*
X108458000Y-132080000D02*
X108458000Y-123721202D01*
X112534000Y-116840000D02*
X113792000Y-116840000D01*
X110236000Y-121943202D02*
X110236000Y-120650000D01*
X108458000Y-123721202D02*
X110236000Y-121943202D01*
X110236000Y-120650000D02*
X112014000Y-118872000D01*
X112014000Y-118872000D02*
X112014000Y-117360000D01*
X112014000Y-117360000D02*
X112534000Y-116840000D01*
X96647000Y-125603000D02*
X96774000Y-125730000D01*
X94328000Y-125603000D02*
X96647000Y-125603000D01*
X95758000Y-128270000D02*
X94455000Y-128270000D01*
X94455000Y-128270000D02*
X94328000Y-128143000D01*
X120864413Y-133389587D02*
X124508826Y-137034000D01*
X124508826Y-137034000D02*
X124968000Y-137034000D01*
X99728000Y-130683000D02*
X100457000Y-130683000D01*
X100457000Y-130683000D02*
X105418001Y-125721999D01*
X105418001Y-125721999D02*
X105918000Y-125222000D01*
X99728000Y-128143000D02*
X101647826Y-128143000D01*
X101647826Y-128143000D02*
X104830088Y-124960738D01*
X104830088Y-124960738D02*
X104830088Y-124675882D01*
X104830088Y-124675882D02*
X105330087Y-124175883D01*
X110744000Y-111760000D02*
X117602000Y-111760000D01*
X118618000Y-112776000D02*
X117602000Y-111760000D01*
X118618000Y-126746000D02*
X118618000Y-112776000D01*
X109982000Y-112522000D02*
X110744000Y-111760000D01*
X109982000Y-113160000D02*
X109982000Y-112522000D01*
X108842000Y-114300000D02*
X109982000Y-113160000D01*
X108392000Y-114300000D02*
X108842000Y-114300000D01*
X110998000Y-118110000D02*
X109728000Y-116840000D01*
X109728000Y-116840000D02*
X108392000Y-116840000D01*
X95758000Y-126746000D02*
X94455000Y-126746000D01*
X94455000Y-126746000D02*
X94328000Y-126873000D01*
X108392000Y-119380000D02*
X109728000Y-119380000D01*
X94328000Y-124333000D02*
X97155000Y-124333000D01*
X97155000Y-124333000D02*
X97536000Y-124714000D01*
X113792000Y-120650000D02*
X117602000Y-120650000D01*
X117475000Y-120523000D02*
X117602000Y-120650000D01*
X121363314Y-120650000D02*
X119634000Y-120650000D01*
X126238000Y-125524686D02*
X121363314Y-120650000D01*
X126238000Y-126746000D02*
X126238000Y-125524686D01*
X115570000Y-115570000D02*
X113792000Y-115570000D01*
X113792000Y-118110000D02*
X115050000Y-118110000D01*
X115050000Y-118110000D02*
X116574000Y-116586000D01*
X116574000Y-116586000D02*
X116586000Y-116586000D01*
X116586000Y-114046000D02*
X116586000Y-116586000D01*
D32*
X103464000Y-143256000D02*
X102510000Y-143256000D01*
X102510000Y-143256000D02*
X102108000Y-142854000D01*
D31*
X116078000Y-129286000D02*
X116078000Y-133858000D01*
X116078000Y-133858000D02*
X117348000Y-135128000D01*
D32*
X102108000Y-142854000D02*
X102108000Y-136908000D01*
X103464000Y-142756000D02*
X104418000Y-142756000D01*
X104418000Y-142756000D02*
X104648000Y-142526000D01*
D31*
X118618000Y-135128000D02*
X118618000Y-129286000D01*
D32*
X104648000Y-142526000D02*
X104648000Y-136908000D01*
X105918000Y-138178000D02*
X107188000Y-136908000D01*
X103464000Y-143756000D02*
X104418000Y-143756000D01*
X105918000Y-142256000D02*
X105918000Y-138178000D01*
X104418000Y-143756000D02*
X105918000Y-142256000D01*
D31*
X104394000Y-146066000D02*
X104410000Y-146050000D01*
X104410000Y-146050000D02*
X105984000Y-146050000D01*
X100772000Y-146050000D02*
X100788000Y-146066000D01*
X100788000Y-146066000D02*
X104394000Y-146066000D01*
X92710000Y-142814000D02*
X92014000Y-142306000D01*
X92014000Y-142306000D02*
X91948000Y-142240000D01*
D29*
X85090000Y-142240000D02*
X85090000Y-140716000D01*
D31*
X110744000Y-145222000D02*
X110744000Y-146304000D01*
X116078000Y-155956000D02*
X117602000Y-157480000D01*
X116078000Y-151638000D02*
X116078000Y-155956000D01*
X110744000Y-146304000D02*
X116078000Y-151638000D01*
D32*
X107864000Y-143256000D02*
X109220000Y-143256000D01*
X112522000Y-141478000D02*
X112522000Y-140208000D01*
X111760000Y-142240000D02*
X112522000Y-141478000D01*
X110236000Y-142240000D02*
X111760000Y-142240000D01*
X109220000Y-143256000D02*
X110236000Y-142240000D01*
X107864000Y-142756000D02*
X108958000Y-142756000D01*
X110236000Y-141478000D02*
X110236000Y-140208000D01*
X108958000Y-142756000D02*
X110236000Y-141478000D01*
X107864000Y-144256000D02*
X107864000Y-146030000D01*
X107864000Y-146030000D02*
X107884000Y-146050000D01*
D31*
X98872000Y-146050000D02*
X98806000Y-146116000D01*
X98806000Y-146116000D02*
X95080000Y-146116000D01*
X94742000Y-144714000D02*
X92710000Y-144714000D01*
X92880000Y-146116000D02*
X92880000Y-144884000D01*
X92880000Y-144884000D02*
X92710000Y-144714000D01*
X95080000Y-148016000D02*
X96840000Y-148016000D01*
X97282000Y-147574000D02*
X97282000Y-147000000D01*
X96840000Y-148016000D02*
X97282000Y-147574000D01*
D32*
G36*
X131586000Y-156777136D02*
X131107880Y-156298181D01*
X130378573Y-155995346D01*
X129588891Y-155994657D01*
X128859057Y-156296218D01*
X128300181Y-156854120D01*
X127997346Y-157583427D01*
X127996657Y-158373109D01*
X128298218Y-159102943D01*
X128758471Y-159564000D01*
X83006000Y-159564000D01*
X83006000Y-158596350D01*
X83645255Y-158596350D01*
X83737792Y-158858019D01*
X84329398Y-159076188D01*
X84959461Y-159051352D01*
X85426208Y-158858019D01*
X85518745Y-158596350D01*
X84582000Y-157659605D01*
X83645255Y-158596350D01*
X83006000Y-158596350D01*
X83006000Y-157739546D01*
X83010648Y-157857461D01*
X83203981Y-158324208D01*
X83465650Y-158416745D01*
X84402395Y-157480000D01*
X84761605Y-157480000D01*
X85698350Y-158416745D01*
X85786439Y-158385593D01*
X86222997Y-158822914D01*
X86805341Y-159064724D01*
X87435893Y-159065275D01*
X88018657Y-158824481D01*
X88392261Y-158451529D01*
X88762997Y-158822914D01*
X89345341Y-159064724D01*
X89975893Y-159065275D01*
X90558657Y-158824481D01*
X90932261Y-158451529D01*
X91302997Y-158822914D01*
X91885341Y-159064724D01*
X92515893Y-159065275D01*
X93098657Y-158824481D01*
X93472261Y-158451529D01*
X93842997Y-158822914D01*
X94425341Y-159064724D01*
X95055893Y-159065275D01*
X95638657Y-158824481D01*
X96012261Y-158451529D01*
X96382997Y-158822914D01*
X96965341Y-159064724D01*
X97595893Y-159065275D01*
X98178657Y-158824481D01*
X98552261Y-158451529D01*
X98922997Y-158822914D01*
X99505341Y-159064724D01*
X100135893Y-159065275D01*
X100718657Y-158824481D01*
X101092261Y-158451529D01*
X101462997Y-158822914D01*
X102045341Y-159064724D01*
X102675893Y-159065275D01*
X103258657Y-158824481D01*
X103632261Y-158451529D01*
X104002997Y-158822914D01*
X104585341Y-159064724D01*
X105215893Y-159065275D01*
X105798657Y-158824481D01*
X106172261Y-158451529D01*
X106542997Y-158822914D01*
X107125341Y-159064724D01*
X107755893Y-159065275D01*
X108338657Y-158824481D01*
X108712261Y-158451529D01*
X109082997Y-158822914D01*
X109665341Y-159064724D01*
X110295893Y-159065275D01*
X110878657Y-158824481D01*
X111107186Y-158596350D01*
X111585255Y-158596350D01*
X111677792Y-158858019D01*
X112269398Y-159076188D01*
X112899461Y-159051352D01*
X113366208Y-158858019D01*
X113458745Y-158596350D01*
X112522000Y-157659605D01*
X111585255Y-158596350D01*
X111107186Y-158596350D01*
X111318116Y-158385789D01*
X111405650Y-158416745D01*
X112342395Y-157480000D01*
X111405650Y-156543255D01*
X111317561Y-156574407D01*
X111107172Y-156363650D01*
X111585255Y-156363650D01*
X112522000Y-157300395D01*
X113458745Y-156363650D01*
X113366208Y-156101981D01*
X112774602Y-155883812D01*
X112144539Y-155908648D01*
X111677792Y-156101981D01*
X111585255Y-156363650D01*
X111107172Y-156363650D01*
X110881003Y-156137086D01*
X110298659Y-155895276D01*
X109668107Y-155894725D01*
X109085343Y-156135519D01*
X108711739Y-156508471D01*
X108341003Y-156137086D01*
X107758659Y-155895276D01*
X107128107Y-155894725D01*
X106545343Y-156135519D01*
X106171739Y-156508471D01*
X105801003Y-156137086D01*
X105218659Y-155895276D01*
X104588107Y-155894725D01*
X104005343Y-156135519D01*
X103631739Y-156508471D01*
X103261003Y-156137086D01*
X102678659Y-155895276D01*
X102048107Y-155894725D01*
X101465343Y-156135519D01*
X101091739Y-156508471D01*
X100721003Y-156137086D01*
X100138659Y-155895276D01*
X99508107Y-155894725D01*
X98925343Y-156135519D01*
X98551739Y-156508471D01*
X98181003Y-156137086D01*
X97598659Y-155895276D01*
X96968107Y-155894725D01*
X96385343Y-156135519D01*
X96011739Y-156508471D01*
X95641003Y-156137086D01*
X95058659Y-155895276D01*
X94428107Y-155894725D01*
X93845343Y-156135519D01*
X93471739Y-156508471D01*
X93101003Y-156137086D01*
X92518659Y-155895276D01*
X91888107Y-155894725D01*
X91305343Y-156135519D01*
X90931739Y-156508471D01*
X90561003Y-156137086D01*
X89978659Y-155895276D01*
X89348107Y-155894725D01*
X88765343Y-156135519D01*
X88391739Y-156508471D01*
X88021003Y-156137086D01*
X87438659Y-155895276D01*
X86808107Y-155894725D01*
X86225343Y-156135519D01*
X85785884Y-156574211D01*
X85698350Y-156543255D01*
X84761605Y-157480000D01*
X84402395Y-157480000D01*
X83465650Y-156543255D01*
X83203981Y-156635792D01*
X83006000Y-157172654D01*
X83006000Y-156363650D01*
X83645255Y-156363650D01*
X84582000Y-157300395D01*
X85518745Y-156363650D01*
X85426208Y-156101981D01*
X84834602Y-155883812D01*
X84204539Y-155908648D01*
X83737792Y-156101981D01*
X83645255Y-156363650D01*
X83006000Y-156363650D01*
X83006000Y-151827236D01*
X84081382Y-152902618D01*
X84369795Y-153095330D01*
X84710000Y-153163000D01*
X85972387Y-153163000D01*
X86111515Y-153302371D01*
X86565266Y-153490785D01*
X87056579Y-153491214D01*
X87510657Y-153303592D01*
X87858371Y-152956485D01*
X88046785Y-152502734D01*
X88047214Y-152011421D01*
X87859592Y-151557343D01*
X87512485Y-151209629D01*
X87058734Y-151021215D01*
X86567421Y-151020786D01*
X86113343Y-151208408D01*
X85936442Y-151385000D01*
X85078236Y-151385000D01*
X84454676Y-150761440D01*
X89663324Y-150761440D01*
X89403719Y-151021045D01*
X89107421Y-151020786D01*
X88653343Y-151208408D01*
X88305629Y-151555515D01*
X88117215Y-152009266D01*
X88116786Y-152500579D01*
X88304408Y-152954657D01*
X88651515Y-153302371D01*
X89105266Y-153490785D01*
X89596579Y-153491214D01*
X90050657Y-153303592D01*
X90398371Y-152956485D01*
X90586785Y-152502734D01*
X90586916Y-152352320D01*
X90656977Y-152282259D01*
X90656786Y-152500579D01*
X90844408Y-152954657D01*
X91191515Y-153302371D01*
X91645266Y-153490785D01*
X92136579Y-153491214D01*
X92590657Y-153303592D01*
X92775837Y-153118735D01*
X93748870Y-153118735D01*
X93798383Y-153344164D01*
X94263036Y-153503807D01*
X94753413Y-153473482D01*
X95065617Y-153344164D01*
X95115130Y-153118735D01*
X94432000Y-152435605D01*
X93748870Y-153118735D01*
X92775837Y-153118735D01*
X92938371Y-152956485D01*
X93126785Y-152502734D01*
X93127147Y-152087036D01*
X93184193Y-152087036D01*
X93214518Y-152577413D01*
X93343836Y-152889617D01*
X93569265Y-152939130D01*
X94252395Y-152256000D01*
X94611605Y-152256000D01*
X95294735Y-152939130D01*
X95520164Y-152889617D01*
X95653827Y-152500579D01*
X95736786Y-152500579D01*
X95924408Y-152954657D01*
X96271515Y-153302371D01*
X96725266Y-153490785D01*
X97216579Y-153491214D01*
X97670657Y-153303592D01*
X98018371Y-152956485D01*
X98206785Y-152502734D01*
X98207214Y-152011421D01*
X98019592Y-151557343D01*
X97672485Y-151209629D01*
X97218734Y-151021215D01*
X96727421Y-151020786D01*
X96273343Y-151208408D01*
X95925629Y-151555515D01*
X95737215Y-152009266D01*
X95736786Y-152500579D01*
X95653827Y-152500579D01*
X95679807Y-152424964D01*
X95649482Y-151934587D01*
X95520164Y-151622383D01*
X95294735Y-151572870D01*
X94611605Y-152256000D01*
X94252395Y-152256000D01*
X93569265Y-151572870D01*
X93343836Y-151622383D01*
X93184193Y-152087036D01*
X93127147Y-152087036D01*
X93127214Y-152011421D01*
X92939592Y-151557343D01*
X92775801Y-151393265D01*
X93748870Y-151393265D01*
X94432000Y-152076395D01*
X95115130Y-151393265D01*
X95065617Y-151167836D01*
X94600964Y-151008193D01*
X94110587Y-151038518D01*
X93798383Y-151167836D01*
X93748870Y-151393265D01*
X92775801Y-151393265D01*
X92592485Y-151209629D01*
X92138734Y-151021215D01*
X91918214Y-151021022D01*
X92068618Y-150870618D01*
X92104664Y-150816671D01*
X92261329Y-150582206D01*
X92329000Y-150242000D01*
X92329000Y-149290397D01*
X92336235Y-149297645D01*
X92489695Y-149361367D01*
X92541062Y-149395690D01*
X92601124Y-149407637D01*
X92753244Y-149470803D01*
X92919410Y-149470948D01*
X92980000Y-149483000D01*
X93040060Y-149471053D01*
X93204775Y-149471197D01*
X93358346Y-149407742D01*
X93418938Y-149395690D01*
X93469857Y-149361667D01*
X93622086Y-149298767D01*
X93739686Y-149181372D01*
X93791051Y-149147051D01*
X93825073Y-149096134D01*
X93941645Y-148979765D01*
X94005367Y-148826305D01*
X94039690Y-148774938D01*
X94047944Y-148733441D01*
X94085910Y-148792441D01*
X94298110Y-148937431D01*
X94550000Y-148988440D01*
X95610000Y-148988440D01*
X95845317Y-148944162D01*
X95906176Y-148905000D01*
X96840000Y-148905000D01*
X97180206Y-148837329D01*
X97468618Y-148644618D01*
X97910618Y-148202618D01*
X98064354Y-147972536D01*
X98167317Y-147953162D01*
X98383441Y-147814090D01*
X98528431Y-147601890D01*
X98579440Y-147350000D01*
X98579440Y-147347440D01*
X98675000Y-147347440D01*
X98675000Y-151346509D01*
X98465629Y-151555515D01*
X98277215Y-152009266D01*
X98276786Y-152500579D01*
X98464408Y-152954657D01*
X98811515Y-153302371D01*
X99265266Y-153490785D01*
X99756579Y-153491214D01*
X100210657Y-153303592D01*
X100558371Y-152956485D01*
X100594410Y-152869692D01*
X100633051Y-152831052D01*
X100830954Y-152534869D01*
X101004408Y-152954657D01*
X101351515Y-153302371D01*
X101805266Y-153490785D01*
X102296579Y-153491214D01*
X102750657Y-153303592D01*
X103098371Y-152956485D01*
X103286785Y-152502734D01*
X103286786Y-152500579D01*
X103356786Y-152500579D01*
X103544408Y-152954657D01*
X103891515Y-153302371D01*
X104345266Y-153490785D01*
X104836579Y-153491214D01*
X105290657Y-153303592D01*
X105638371Y-152956485D01*
X105826785Y-152502734D01*
X105826786Y-152500579D01*
X105896786Y-152500579D01*
X106084408Y-152954657D01*
X106431515Y-153302371D01*
X106885266Y-153490785D01*
X107376579Y-153491214D01*
X107830657Y-153303592D01*
X108178371Y-152956485D01*
X108366785Y-152502734D01*
X108366786Y-152500579D01*
X108436786Y-152500579D01*
X108624408Y-152954657D01*
X108971515Y-153302371D01*
X109425266Y-153490785D01*
X109916579Y-153491214D01*
X110370657Y-153303592D01*
X110718371Y-152956485D01*
X110906785Y-152502734D01*
X110906786Y-152500579D01*
X110976786Y-152500579D01*
X111164408Y-152954657D01*
X111511515Y-153302371D01*
X111965266Y-153490785D01*
X112456579Y-153491214D01*
X112910657Y-153303592D01*
X113258371Y-152956485D01*
X113446785Y-152502734D01*
X113447214Y-152011421D01*
X113259592Y-151557343D01*
X112912485Y-151209629D01*
X112458734Y-151021215D01*
X111967421Y-151020786D01*
X111513343Y-151208408D01*
X111165629Y-151555515D01*
X110977215Y-152009266D01*
X110976786Y-152500579D01*
X110906786Y-152500579D01*
X110907214Y-152011421D01*
X110719592Y-151557343D01*
X110372485Y-151209629D01*
X109918734Y-151021215D01*
X109427421Y-151020786D01*
X108973343Y-151208408D01*
X108625629Y-151555515D01*
X108437215Y-152009266D01*
X108436786Y-152500579D01*
X108366786Y-152500579D01*
X108367214Y-152011421D01*
X108179592Y-151557343D01*
X107832485Y-151209629D01*
X107378734Y-151021215D01*
X106887421Y-151020786D01*
X106433343Y-151208408D01*
X106085629Y-151555515D01*
X105897215Y-152009266D01*
X105896786Y-152500579D01*
X105826786Y-152500579D01*
X105827214Y-152011421D01*
X105639592Y-151557343D01*
X105292485Y-151209629D01*
X104838734Y-151021215D01*
X104347421Y-151020786D01*
X103893343Y-151208408D01*
X103545629Y-151555515D01*
X103357215Y-152009266D01*
X103356786Y-152500579D01*
X103286786Y-152500579D01*
X103287214Y-152011421D01*
X103099592Y-151557343D01*
X102752485Y-151209629D01*
X102298734Y-151021215D01*
X101807421Y-151020786D01*
X101353343Y-151208408D01*
X101005629Y-151555515D01*
X100969000Y-151643727D01*
X100969000Y-148351750D01*
X103134000Y-148351750D01*
X103134000Y-148692309D01*
X103230673Y-148925698D01*
X103409301Y-149104327D01*
X103642690Y-149201000D01*
X104108250Y-149201000D01*
X104267000Y-149042250D01*
X104267000Y-148193000D01*
X104521000Y-148193000D01*
X104521000Y-149042250D01*
X104679750Y-149201000D01*
X105145310Y-149201000D01*
X105378699Y-149104327D01*
X105557327Y-148925698D01*
X105654000Y-148692309D01*
X105654000Y-148351750D01*
X105495250Y-148193000D01*
X104521000Y-148193000D01*
X104267000Y-148193000D01*
X103292750Y-148193000D01*
X103134000Y-148351750D01*
X100969000Y-148351750D01*
X100969000Y-147347440D01*
X101122000Y-147347440D01*
X101357317Y-147303162D01*
X101573441Y-147164090D01*
X101716306Y-146955000D01*
X103264730Y-146955000D01*
X103304910Y-147017441D01*
X103373006Y-147063969D01*
X103230673Y-147206302D01*
X103134000Y-147439691D01*
X103134000Y-147780250D01*
X103292750Y-147939000D01*
X104267000Y-147939000D01*
X104267000Y-147919000D01*
X104521000Y-147919000D01*
X104521000Y-147939000D01*
X105495250Y-147939000D01*
X105654000Y-147780250D01*
X105654000Y-147439691D01*
X105614121Y-147343414D01*
X105634000Y-147347440D01*
X106334000Y-147347440D01*
X106569317Y-147303162D01*
X106785441Y-147164090D01*
X106930431Y-146951890D01*
X106933081Y-146938803D01*
X107069910Y-147151441D01*
X107282110Y-147296431D01*
X107534000Y-147347440D01*
X108234000Y-147347440D01*
X108469317Y-147303162D01*
X108685441Y-147164090D01*
X108830431Y-146951890D01*
X108881440Y-146700000D01*
X108881440Y-145400000D01*
X108837162Y-145164683D01*
X108743808Y-145019607D01*
X108799317Y-145009162D01*
X109015441Y-144870090D01*
X109160431Y-144657890D01*
X109188759Y-144518000D01*
X109567338Y-144518000D01*
X109497569Y-144620110D01*
X109446560Y-144872000D01*
X109446560Y-145572000D01*
X109490838Y-145807317D01*
X109629910Y-146023441D01*
X109842110Y-146168431D01*
X109855000Y-146171041D01*
X109855000Y-146304000D01*
X109922671Y-146644206D01*
X110074430Y-146871329D01*
X110115382Y-146932618D01*
X114292397Y-151109633D01*
X114053343Y-151208408D01*
X113705629Y-151555515D01*
X113517215Y-152009266D01*
X113516786Y-152500579D01*
X113704408Y-152954657D01*
X114051515Y-153302371D01*
X114505266Y-153490785D01*
X114996579Y-153491214D01*
X115189000Y-153411707D01*
X115189000Y-155895110D01*
X114748107Y-155894725D01*
X114165343Y-156135519D01*
X113725884Y-156574211D01*
X113638350Y-156543255D01*
X112701605Y-157480000D01*
X113638350Y-158416745D01*
X113726439Y-158385593D01*
X114162997Y-158822914D01*
X114745341Y-159064724D01*
X115375893Y-159065275D01*
X115958657Y-158824481D01*
X116332261Y-158451529D01*
X116702997Y-158822914D01*
X117285341Y-159064724D01*
X117915893Y-159065275D01*
X118498657Y-158824481D01*
X118872261Y-158451529D01*
X119242997Y-158822914D01*
X119825341Y-159064724D01*
X120455893Y-159065275D01*
X121038657Y-158824481D01*
X121267186Y-158596350D01*
X121745255Y-158596350D01*
X121837792Y-158858019D01*
X122429398Y-159076188D01*
X123059461Y-159051352D01*
X123526208Y-158858019D01*
X123618745Y-158596350D01*
X122682000Y-157659605D01*
X121745255Y-158596350D01*
X121267186Y-158596350D01*
X121478116Y-158385789D01*
X121565650Y-158416745D01*
X122502395Y-157480000D01*
X122861605Y-157480000D01*
X123798350Y-158416745D01*
X124060019Y-158324208D01*
X124278188Y-157732602D01*
X124253352Y-157102539D01*
X124060019Y-156635792D01*
X123798350Y-156543255D01*
X122861605Y-157480000D01*
X122502395Y-157480000D01*
X121565650Y-156543255D01*
X121477561Y-156574407D01*
X121289000Y-156385517D01*
X121289000Y-156363650D01*
X121745255Y-156363650D01*
X122682000Y-157300395D01*
X123618745Y-156363650D01*
X123526208Y-156101981D01*
X122934602Y-155883812D01*
X122304539Y-155908648D01*
X121837792Y-156101981D01*
X121745255Y-156363650D01*
X121289000Y-156363650D01*
X121289000Y-155161102D01*
X121969051Y-154481051D01*
X122171544Y-154178000D01*
X124574560Y-154178000D01*
X124574560Y-155702000D01*
X124618838Y-155937317D01*
X124757910Y-156153441D01*
X124970110Y-156298431D01*
X125222000Y-156349440D01*
X126746000Y-156349440D01*
X126981317Y-156305162D01*
X127197441Y-156166090D01*
X127342431Y-155953890D01*
X127393440Y-155702000D01*
X127393440Y-154178000D01*
X127349162Y-153942683D01*
X127210090Y-153726559D01*
X126997890Y-153581569D01*
X126746000Y-153530560D01*
X125222000Y-153530560D01*
X124986683Y-153574838D01*
X124770559Y-153713910D01*
X124625569Y-153926110D01*
X124574560Y-154178000D01*
X122171544Y-154178000D01*
X122217690Y-154108938D01*
X122219336Y-154100662D01*
X122305000Y-153670000D01*
X122305000Y-153490942D01*
X122616579Y-153491214D01*
X123070657Y-153303592D01*
X123418371Y-152956485D01*
X123606785Y-152502734D01*
X123606786Y-152500579D01*
X123676786Y-152500579D01*
X123864408Y-152954657D01*
X124211515Y-153302371D01*
X124665266Y-153490785D01*
X125156579Y-153491214D01*
X125610657Y-153303592D01*
X125958371Y-152956485D01*
X126146785Y-152502734D01*
X126146786Y-152500579D01*
X126216786Y-152500579D01*
X126404408Y-152954657D01*
X126751515Y-153302371D01*
X127205266Y-153490785D01*
X127696579Y-153491214D01*
X128150657Y-153303592D01*
X128498371Y-152956485D01*
X128686785Y-152502734D01*
X128687214Y-152011421D01*
X128499592Y-151557343D01*
X128152485Y-151209629D01*
X127698734Y-151021215D01*
X127207421Y-151020786D01*
X126753343Y-151208408D01*
X126405629Y-151555515D01*
X126217215Y-152009266D01*
X126216786Y-152500579D01*
X126146786Y-152500579D01*
X126147214Y-152011421D01*
X125959592Y-151557343D01*
X125612485Y-151209629D01*
X125158734Y-151021215D01*
X124667421Y-151020786D01*
X124213343Y-151208408D01*
X123865629Y-151555515D01*
X123677215Y-152009266D01*
X123676786Y-152500579D01*
X123606786Y-152500579D01*
X123607214Y-152011421D01*
X123419592Y-151557343D01*
X123072485Y-151209629D01*
X122618734Y-151021215D01*
X122232771Y-151020878D01*
X122217690Y-150945062D01*
X121969052Y-150572949D01*
X121207051Y-149810949D01*
X120834938Y-149562310D01*
X120396000Y-149475000D01*
X116840000Y-149475000D01*
X116779940Y-149486947D01*
X116615225Y-149486803D01*
X116461654Y-149550258D01*
X116401062Y-149562310D01*
X116350143Y-149596333D01*
X116197914Y-149659233D01*
X116080314Y-149776628D01*
X116028949Y-149810949D01*
X115994927Y-149861866D01*
X115878355Y-149978235D01*
X115818828Y-150121592D01*
X111777223Y-146079987D01*
X111845441Y-146036090D01*
X111990431Y-145823890D01*
X112041440Y-145572000D01*
X112041440Y-144872000D01*
X111997162Y-144636683D01*
X111858090Y-144420559D01*
X111645890Y-144275569D01*
X111632803Y-144272919D01*
X111845441Y-144136090D01*
X111990431Y-143923890D01*
X112041440Y-143672000D01*
X112041440Y-142972000D01*
X112036728Y-142946955D01*
X112051605Y-142943996D01*
X112298815Y-142778815D01*
X113060816Y-142016815D01*
X113190984Y-141822004D01*
X113225996Y-141769605D01*
X113256264Y-141617440D01*
X113284000Y-141617440D01*
X113519317Y-141573162D01*
X113735441Y-141434090D01*
X113880431Y-141221890D01*
X113931440Y-140970000D01*
X113931440Y-139446000D01*
X113887162Y-139210683D01*
X113748090Y-138994559D01*
X113535890Y-138849569D01*
X113284000Y-138798560D01*
X112609204Y-138798560D01*
X112896618Y-138511146D01*
X113089329Y-138222734D01*
X113157000Y-137882528D01*
X113157000Y-137817679D01*
X113258371Y-137716485D01*
X113263052Y-137705213D01*
X113487716Y-137855329D01*
X113827922Y-137923000D01*
X113912387Y-137923000D01*
X114051515Y-138062371D01*
X114505266Y-138250785D01*
X114996579Y-138251214D01*
X115450657Y-138063592D01*
X115460515Y-138053751D01*
X116465382Y-139058618D01*
X116753794Y-139251329D01*
X117094000Y-139319000D01*
X118492000Y-139319000D01*
X118832206Y-139251329D01*
X119120618Y-139058618D01*
X119928152Y-138251084D01*
X120076579Y-138251214D01*
X120530657Y-138063592D01*
X120878371Y-137716485D01*
X121066785Y-137262734D01*
X121067214Y-136771421D01*
X120879592Y-136317343D01*
X120532485Y-135969629D01*
X120078734Y-135781215D01*
X119587421Y-135780786D01*
X119558734Y-135792639D01*
X119579645Y-135771765D01*
X119752803Y-135354756D01*
X119753197Y-134903225D01*
X119580767Y-134485914D01*
X119507000Y-134412018D01*
X119507000Y-133614362D01*
X119729216Y-133614362D01*
X119901646Y-134031673D01*
X120220648Y-134351232D01*
X120637657Y-134524390D01*
X120742071Y-134524481D01*
X122036107Y-135818517D01*
X121673343Y-135968408D01*
X121325629Y-136315515D01*
X121137215Y-136769266D01*
X121136786Y-137260579D01*
X121324408Y-137714657D01*
X121671515Y-138062371D01*
X122125266Y-138250785D01*
X122616579Y-138251214D01*
X123070657Y-138063592D01*
X123418371Y-137716485D01*
X123569681Y-137352091D01*
X123816640Y-137599050D01*
X123864408Y-137714657D01*
X124211515Y-138062371D01*
X124665266Y-138250785D01*
X125156579Y-138251214D01*
X125610657Y-138063592D01*
X125958371Y-137716485D01*
X126146785Y-137262734D01*
X126146786Y-137260579D01*
X126216786Y-137260579D01*
X126404408Y-137714657D01*
X126751515Y-138062371D01*
X127205266Y-138250785D01*
X127696579Y-138251214D01*
X128150657Y-138063592D01*
X128498371Y-137716485D01*
X128686785Y-137262734D01*
X128687214Y-136771421D01*
X128499592Y-136317343D01*
X128152485Y-135969629D01*
X127698734Y-135781215D01*
X127207421Y-135780786D01*
X126753343Y-135968408D01*
X126405629Y-136315515D01*
X126217215Y-136769266D01*
X126216786Y-137260579D01*
X126146786Y-137260579D01*
X126147214Y-136771421D01*
X125959592Y-136317343D01*
X125612485Y-135969629D01*
X125158734Y-135781215D01*
X124667421Y-135780786D01*
X124558042Y-135825980D01*
X122082062Y-133350000D01*
X126098560Y-133350000D01*
X126098560Y-134874000D01*
X126142838Y-135109317D01*
X126281910Y-135325441D01*
X126494110Y-135470431D01*
X126746000Y-135521440D01*
X128270000Y-135521440D01*
X128505317Y-135477162D01*
X128721441Y-135338090D01*
X128866431Y-135125890D01*
X128917440Y-134874000D01*
X128917440Y-133350000D01*
X128873162Y-133114683D01*
X128734090Y-132898559D01*
X128521890Y-132753569D01*
X128270000Y-132702560D01*
X126746000Y-132702560D01*
X126510683Y-132746838D01*
X126294559Y-132885910D01*
X126149569Y-133098110D01*
X126098560Y-133350000D01*
X122082062Y-133350000D01*
X121999520Y-133267458D01*
X121999610Y-133164812D01*
X121827180Y-132747501D01*
X121508178Y-132427942D01*
X121091169Y-132254784D01*
X120639638Y-132254390D01*
X120222327Y-132426820D01*
X119902768Y-132745822D01*
X119729610Y-133162831D01*
X119729216Y-133614362D01*
X119507000Y-133614362D01*
X119507000Y-130489067D01*
X119677670Y-130375029D01*
X119888000Y-130060248D01*
X120098330Y-130375029D01*
X120584511Y-130699885D01*
X121158000Y-130813959D01*
X121731489Y-130699885D01*
X122217670Y-130375029D01*
X122428000Y-130060248D01*
X122638330Y-130375029D01*
X123124511Y-130699885D01*
X123698000Y-130813959D01*
X124271489Y-130699885D01*
X124757670Y-130375029D01*
X124968000Y-130060248D01*
X125178330Y-130375029D01*
X125664511Y-130699885D01*
X126238000Y-130813959D01*
X126811489Y-130699885D01*
X127297670Y-130375029D01*
X127508000Y-130060248D01*
X127718330Y-130375029D01*
X128204511Y-130699885D01*
X128778000Y-130813959D01*
X129351489Y-130699885D01*
X129837670Y-130375029D01*
X130162526Y-129888848D01*
X130276600Y-129315359D01*
X130276600Y-129256641D01*
X130162526Y-128683152D01*
X129837670Y-128196971D01*
X129566839Y-128016008D01*
X129984821Y-127634490D01*
X130232968Y-127105027D01*
X130112469Y-126873000D01*
X128905000Y-126873000D01*
X128905000Y-126893000D01*
X128651000Y-126893000D01*
X128651000Y-126873000D01*
X128631000Y-126873000D01*
X128631000Y-126619000D01*
X128651000Y-126619000D01*
X128651000Y-125412183D01*
X128905000Y-125412183D01*
X128905000Y-126619000D01*
X130112469Y-126619000D01*
X130232968Y-126386973D01*
X129984821Y-125857510D01*
X129552947Y-125463312D01*
X129137026Y-125291042D01*
X128905000Y-125412183D01*
X128651000Y-125412183D01*
X128418974Y-125291042D01*
X128003053Y-125463312D01*
X127571179Y-125857510D01*
X127513664Y-125980228D01*
X127297670Y-125656971D01*
X127127000Y-125542933D01*
X127127000Y-125524686D01*
X127059329Y-125184480D01*
X126866618Y-124896068D01*
X121991932Y-120021382D01*
X121881104Y-119947329D01*
X121703520Y-119828671D01*
X121363314Y-119761000D01*
X120350283Y-119761000D01*
X120277765Y-119688355D01*
X119860756Y-119515197D01*
X119507000Y-119514888D01*
X119507000Y-112776000D01*
X119439329Y-112435794D01*
X119246618Y-112147382D01*
X118230618Y-111131382D01*
X118010046Y-110984000D01*
X131586000Y-110984000D01*
X131586000Y-156777136D01*
X131586000Y-156777136D01*
G37*
X131586000Y-156777136D02*
X131107880Y-156298181D01*
X130378573Y-155995346D01*
X129588891Y-155994657D01*
X128859057Y-156296218D01*
X128300181Y-156854120D01*
X127997346Y-157583427D01*
X127996657Y-158373109D01*
X128298218Y-159102943D01*
X128758471Y-159564000D01*
X83006000Y-159564000D01*
X83006000Y-158596350D01*
X83645255Y-158596350D01*
X83737792Y-158858019D01*
X84329398Y-159076188D01*
X84959461Y-159051352D01*
X85426208Y-158858019D01*
X85518745Y-158596350D01*
X84582000Y-157659605D01*
X83645255Y-158596350D01*
X83006000Y-158596350D01*
X83006000Y-157739546D01*
X83010648Y-157857461D01*
X83203981Y-158324208D01*
X83465650Y-158416745D01*
X84402395Y-157480000D01*
X84761605Y-157480000D01*
X85698350Y-158416745D01*
X85786439Y-158385593D01*
X86222997Y-158822914D01*
X86805341Y-159064724D01*
X87435893Y-159065275D01*
X88018657Y-158824481D01*
X88392261Y-158451529D01*
X88762997Y-158822914D01*
X89345341Y-159064724D01*
X89975893Y-159065275D01*
X90558657Y-158824481D01*
X90932261Y-158451529D01*
X91302997Y-158822914D01*
X91885341Y-159064724D01*
X92515893Y-159065275D01*
X93098657Y-158824481D01*
X93472261Y-158451529D01*
X93842997Y-158822914D01*
X94425341Y-159064724D01*
X95055893Y-159065275D01*
X95638657Y-158824481D01*
X96012261Y-158451529D01*
X96382997Y-158822914D01*
X96965341Y-159064724D01*
X97595893Y-159065275D01*
X98178657Y-158824481D01*
X98552261Y-158451529D01*
X98922997Y-158822914D01*
X99505341Y-159064724D01*
X100135893Y-159065275D01*
X100718657Y-158824481D01*
X101092261Y-158451529D01*
X101462997Y-158822914D01*
X102045341Y-159064724D01*
X102675893Y-159065275D01*
X103258657Y-158824481D01*
X103632261Y-158451529D01*
X104002997Y-158822914D01*
X104585341Y-159064724D01*
X105215893Y-159065275D01*
X105798657Y-158824481D01*
X106172261Y-158451529D01*
X106542997Y-158822914D01*
X107125341Y-159064724D01*
X107755893Y-159065275D01*
X108338657Y-158824481D01*
X108712261Y-158451529D01*
X109082997Y-158822914D01*
X109665341Y-159064724D01*
X110295893Y-159065275D01*
X110878657Y-158824481D01*
X111107186Y-158596350D01*
X111585255Y-158596350D01*
X111677792Y-158858019D01*
X112269398Y-159076188D01*
X112899461Y-159051352D01*
X113366208Y-158858019D01*
X113458745Y-158596350D01*
X112522000Y-157659605D01*
X111585255Y-158596350D01*
X111107186Y-158596350D01*
X111318116Y-158385789D01*
X111405650Y-158416745D01*
X112342395Y-157480000D01*
X111405650Y-156543255D01*
X111317561Y-156574407D01*
X111107172Y-156363650D01*
X111585255Y-156363650D01*
X112522000Y-157300395D01*
X113458745Y-156363650D01*
X113366208Y-156101981D01*
X112774602Y-155883812D01*
X112144539Y-155908648D01*
X111677792Y-156101981D01*
X111585255Y-156363650D01*
X111107172Y-156363650D01*
X110881003Y-156137086D01*
X110298659Y-155895276D01*
X109668107Y-155894725D01*
X109085343Y-156135519D01*
X108711739Y-156508471D01*
X108341003Y-156137086D01*
X107758659Y-155895276D01*
X107128107Y-155894725D01*
X106545343Y-156135519D01*
X106171739Y-156508471D01*
X105801003Y-156137086D01*
X105218659Y-155895276D01*
X104588107Y-155894725D01*
X104005343Y-156135519D01*
X103631739Y-156508471D01*
X103261003Y-156137086D01*
X102678659Y-155895276D01*
X102048107Y-155894725D01*
X101465343Y-156135519D01*
X101091739Y-156508471D01*
X100721003Y-156137086D01*
X100138659Y-155895276D01*
X99508107Y-155894725D01*
X98925343Y-156135519D01*
X98551739Y-156508471D01*
X98181003Y-156137086D01*
X97598659Y-155895276D01*
X96968107Y-155894725D01*
X96385343Y-156135519D01*
X96011739Y-156508471D01*
X95641003Y-156137086D01*
X95058659Y-155895276D01*
X94428107Y-155894725D01*
X93845343Y-156135519D01*
X93471739Y-156508471D01*
X93101003Y-156137086D01*
X92518659Y-155895276D01*
X91888107Y-155894725D01*
X91305343Y-156135519D01*
X90931739Y-156508471D01*
X90561003Y-156137086D01*
X89978659Y-155895276D01*
X89348107Y-155894725D01*
X88765343Y-156135519D01*
X88391739Y-156508471D01*
X88021003Y-156137086D01*
X87438659Y-155895276D01*
X86808107Y-155894725D01*
X86225343Y-156135519D01*
X85785884Y-156574211D01*
X85698350Y-156543255D01*
X84761605Y-157480000D01*
X84402395Y-157480000D01*
X83465650Y-156543255D01*
X83203981Y-156635792D01*
X83006000Y-157172654D01*
X83006000Y-156363650D01*
X83645255Y-156363650D01*
X84582000Y-157300395D01*
X85518745Y-156363650D01*
X85426208Y-156101981D01*
X84834602Y-155883812D01*
X84204539Y-155908648D01*
X83737792Y-156101981D01*
X83645255Y-156363650D01*
X83006000Y-156363650D01*
X83006000Y-151827236D01*
X84081382Y-152902618D01*
X84369795Y-153095330D01*
X84710000Y-153163000D01*
X85972387Y-153163000D01*
X86111515Y-153302371D01*
X86565266Y-153490785D01*
X87056579Y-153491214D01*
X87510657Y-153303592D01*
X87858371Y-152956485D01*
X88046785Y-152502734D01*
X88047214Y-152011421D01*
X87859592Y-151557343D01*
X87512485Y-151209629D01*
X87058734Y-151021215D01*
X86567421Y-151020786D01*
X86113343Y-151208408D01*
X85936442Y-151385000D01*
X85078236Y-151385000D01*
X84454676Y-150761440D01*
X89663324Y-150761440D01*
X89403719Y-151021045D01*
X89107421Y-151020786D01*
X88653343Y-151208408D01*
X88305629Y-151555515D01*
X88117215Y-152009266D01*
X88116786Y-152500579D01*
X88304408Y-152954657D01*
X88651515Y-153302371D01*
X89105266Y-153490785D01*
X89596579Y-153491214D01*
X90050657Y-153303592D01*
X90398371Y-152956485D01*
X90586785Y-152502734D01*
X90586916Y-152352320D01*
X90656977Y-152282259D01*
X90656786Y-152500579D01*
X90844408Y-152954657D01*
X91191515Y-153302371D01*
X91645266Y-153490785D01*
X92136579Y-153491214D01*
X92590657Y-153303592D01*
X92775837Y-153118735D01*
X93748870Y-153118735D01*
X93798383Y-153344164D01*
X94263036Y-153503807D01*
X94753413Y-153473482D01*
X95065617Y-153344164D01*
X95115130Y-153118735D01*
X94432000Y-152435605D01*
X93748870Y-153118735D01*
X92775837Y-153118735D01*
X92938371Y-152956485D01*
X93126785Y-152502734D01*
X93127147Y-152087036D01*
X93184193Y-152087036D01*
X93214518Y-152577413D01*
X93343836Y-152889617D01*
X93569265Y-152939130D01*
X94252395Y-152256000D01*
X94611605Y-152256000D01*
X95294735Y-152939130D01*
X95520164Y-152889617D01*
X95653827Y-152500579D01*
X95736786Y-152500579D01*
X95924408Y-152954657D01*
X96271515Y-153302371D01*
X96725266Y-153490785D01*
X97216579Y-153491214D01*
X97670657Y-153303592D01*
X98018371Y-152956485D01*
X98206785Y-152502734D01*
X98207214Y-152011421D01*
X98019592Y-151557343D01*
X97672485Y-151209629D01*
X97218734Y-151021215D01*
X96727421Y-151020786D01*
X96273343Y-151208408D01*
X95925629Y-151555515D01*
X95737215Y-152009266D01*
X95736786Y-152500579D01*
X95653827Y-152500579D01*
X95679807Y-152424964D01*
X95649482Y-151934587D01*
X95520164Y-151622383D01*
X95294735Y-151572870D01*
X94611605Y-152256000D01*
X94252395Y-152256000D01*
X93569265Y-151572870D01*
X93343836Y-151622383D01*
X93184193Y-152087036D01*
X93127147Y-152087036D01*
X93127214Y-152011421D01*
X92939592Y-151557343D01*
X92775801Y-151393265D01*
X93748870Y-151393265D01*
X94432000Y-152076395D01*
X95115130Y-151393265D01*
X95065617Y-151167836D01*
X94600964Y-151008193D01*
X94110587Y-151038518D01*
X93798383Y-151167836D01*
X93748870Y-151393265D01*
X92775801Y-151393265D01*
X92592485Y-151209629D01*
X92138734Y-151021215D01*
X91918214Y-151021022D01*
X92068618Y-150870618D01*
X92104664Y-150816671D01*
X92261329Y-150582206D01*
X92329000Y-150242000D01*
X92329000Y-149290397D01*
X92336235Y-149297645D01*
X92489695Y-149361367D01*
X92541062Y-149395690D01*
X92601124Y-149407637D01*
X92753244Y-149470803D01*
X92919410Y-149470948D01*
X92980000Y-149483000D01*
X93040060Y-149471053D01*
X93204775Y-149471197D01*
X93358346Y-149407742D01*
X93418938Y-149395690D01*
X93469857Y-149361667D01*
X93622086Y-149298767D01*
X93739686Y-149181372D01*
X93791051Y-149147051D01*
X93825073Y-149096134D01*
X93941645Y-148979765D01*
X94005367Y-148826305D01*
X94039690Y-148774938D01*
X94047944Y-148733441D01*
X94085910Y-148792441D01*
X94298110Y-148937431D01*
X94550000Y-148988440D01*
X95610000Y-148988440D01*
X95845317Y-148944162D01*
X95906176Y-148905000D01*
X96840000Y-148905000D01*
X97180206Y-148837329D01*
X97468618Y-148644618D01*
X97910618Y-148202618D01*
X98064354Y-147972536D01*
X98167317Y-147953162D01*
X98383441Y-147814090D01*
X98528431Y-147601890D01*
X98579440Y-147350000D01*
X98579440Y-147347440D01*
X98675000Y-147347440D01*
X98675000Y-151346509D01*
X98465629Y-151555515D01*
X98277215Y-152009266D01*
X98276786Y-152500579D01*
X98464408Y-152954657D01*
X98811515Y-153302371D01*
X99265266Y-153490785D01*
X99756579Y-153491214D01*
X100210657Y-153303592D01*
X100558371Y-152956485D01*
X100594410Y-152869692D01*
X100633051Y-152831052D01*
X100830954Y-152534869D01*
X101004408Y-152954657D01*
X101351515Y-153302371D01*
X101805266Y-153490785D01*
X102296579Y-153491214D01*
X102750657Y-153303592D01*
X103098371Y-152956485D01*
X103286785Y-152502734D01*
X103286786Y-152500579D01*
X103356786Y-152500579D01*
X103544408Y-152954657D01*
X103891515Y-153302371D01*
X104345266Y-153490785D01*
X104836579Y-153491214D01*
X105290657Y-153303592D01*
X105638371Y-152956485D01*
X105826785Y-152502734D01*
X105826786Y-152500579D01*
X105896786Y-152500579D01*
X106084408Y-152954657D01*
X106431515Y-153302371D01*
X106885266Y-153490785D01*
X107376579Y-153491214D01*
X107830657Y-153303592D01*
X108178371Y-152956485D01*
X108366785Y-152502734D01*
X108366786Y-152500579D01*
X108436786Y-152500579D01*
X108624408Y-152954657D01*
X108971515Y-153302371D01*
X109425266Y-153490785D01*
X109916579Y-153491214D01*
X110370657Y-153303592D01*
X110718371Y-152956485D01*
X110906785Y-152502734D01*
X110906786Y-152500579D01*
X110976786Y-152500579D01*
X111164408Y-152954657D01*
X111511515Y-153302371D01*
X111965266Y-153490785D01*
X112456579Y-153491214D01*
X112910657Y-153303592D01*
X113258371Y-152956485D01*
X113446785Y-152502734D01*
X113447214Y-152011421D01*
X113259592Y-151557343D01*
X112912485Y-151209629D01*
X112458734Y-151021215D01*
X111967421Y-151020786D01*
X111513343Y-151208408D01*
X111165629Y-151555515D01*
X110977215Y-152009266D01*
X110976786Y-152500579D01*
X110906786Y-152500579D01*
X110907214Y-152011421D01*
X110719592Y-151557343D01*
X110372485Y-151209629D01*
X109918734Y-151021215D01*
X109427421Y-151020786D01*
X108973343Y-151208408D01*
X108625629Y-151555515D01*
X108437215Y-152009266D01*
X108436786Y-152500579D01*
X108366786Y-152500579D01*
X108367214Y-152011421D01*
X108179592Y-151557343D01*
X107832485Y-151209629D01*
X107378734Y-151021215D01*
X106887421Y-151020786D01*
X106433343Y-151208408D01*
X106085629Y-151555515D01*
X105897215Y-152009266D01*
X105896786Y-152500579D01*
X105826786Y-152500579D01*
X105827214Y-152011421D01*
X105639592Y-151557343D01*
X105292485Y-151209629D01*
X104838734Y-151021215D01*
X104347421Y-151020786D01*
X103893343Y-151208408D01*
X103545629Y-151555515D01*
X103357215Y-152009266D01*
X103356786Y-152500579D01*
X103286786Y-152500579D01*
X103287214Y-152011421D01*
X103099592Y-151557343D01*
X102752485Y-151209629D01*
X102298734Y-151021215D01*
X101807421Y-151020786D01*
X101353343Y-151208408D01*
X101005629Y-151555515D01*
X100969000Y-151643727D01*
X100969000Y-148351750D01*
X103134000Y-148351750D01*
X103134000Y-148692309D01*
X103230673Y-148925698D01*
X103409301Y-149104327D01*
X103642690Y-149201000D01*
X104108250Y-149201000D01*
X104267000Y-149042250D01*
X104267000Y-148193000D01*
X104521000Y-148193000D01*
X104521000Y-149042250D01*
X104679750Y-149201000D01*
X105145310Y-149201000D01*
X105378699Y-149104327D01*
X105557327Y-148925698D01*
X105654000Y-148692309D01*
X105654000Y-148351750D01*
X105495250Y-148193000D01*
X104521000Y-148193000D01*
X104267000Y-148193000D01*
X103292750Y-148193000D01*
X103134000Y-148351750D01*
X100969000Y-148351750D01*
X100969000Y-147347440D01*
X101122000Y-147347440D01*
X101357317Y-147303162D01*
X101573441Y-147164090D01*
X101716306Y-146955000D01*
X103264730Y-146955000D01*
X103304910Y-147017441D01*
X103373006Y-147063969D01*
X103230673Y-147206302D01*
X103134000Y-147439691D01*
X103134000Y-147780250D01*
X103292750Y-147939000D01*
X104267000Y-147939000D01*
X104267000Y-147919000D01*
X104521000Y-147919000D01*
X104521000Y-147939000D01*
X105495250Y-147939000D01*
X105654000Y-147780250D01*
X105654000Y-147439691D01*
X105614121Y-147343414D01*
X105634000Y-147347440D01*
X106334000Y-147347440D01*
X106569317Y-147303162D01*
X106785441Y-147164090D01*
X106930431Y-146951890D01*
X106933081Y-146938803D01*
X107069910Y-147151441D01*
X107282110Y-147296431D01*
X107534000Y-147347440D01*
X108234000Y-147347440D01*
X108469317Y-147303162D01*
X108685441Y-147164090D01*
X108830431Y-146951890D01*
X108881440Y-146700000D01*
X108881440Y-145400000D01*
X108837162Y-145164683D01*
X108743808Y-145019607D01*
X108799317Y-145009162D01*
X109015441Y-144870090D01*
X109160431Y-144657890D01*
X109188759Y-144518000D01*
X109567338Y-144518000D01*
X109497569Y-144620110D01*
X109446560Y-144872000D01*
X109446560Y-145572000D01*
X109490838Y-145807317D01*
X109629910Y-146023441D01*
X109842110Y-146168431D01*
X109855000Y-146171041D01*
X109855000Y-146304000D01*
X109922671Y-146644206D01*
X110074430Y-146871329D01*
X110115382Y-146932618D01*
X114292397Y-151109633D01*
X114053343Y-151208408D01*
X113705629Y-151555515D01*
X113517215Y-152009266D01*
X113516786Y-152500579D01*
X113704408Y-152954657D01*
X114051515Y-153302371D01*
X114505266Y-153490785D01*
X114996579Y-153491214D01*
X115189000Y-153411707D01*
X115189000Y-155895110D01*
X114748107Y-155894725D01*
X114165343Y-156135519D01*
X113725884Y-156574211D01*
X113638350Y-156543255D01*
X112701605Y-157480000D01*
X113638350Y-158416745D01*
X113726439Y-158385593D01*
X114162997Y-158822914D01*
X114745341Y-159064724D01*
X115375893Y-159065275D01*
X115958657Y-158824481D01*
X116332261Y-158451529D01*
X116702997Y-158822914D01*
X117285341Y-159064724D01*
X117915893Y-159065275D01*
X118498657Y-158824481D01*
X118872261Y-158451529D01*
X119242997Y-158822914D01*
X119825341Y-159064724D01*
X120455893Y-159065275D01*
X121038657Y-158824481D01*
X121267186Y-158596350D01*
X121745255Y-158596350D01*
X121837792Y-158858019D01*
X122429398Y-159076188D01*
X123059461Y-159051352D01*
X123526208Y-158858019D01*
X123618745Y-158596350D01*
X122682000Y-157659605D01*
X121745255Y-158596350D01*
X121267186Y-158596350D01*
X121478116Y-158385789D01*
X121565650Y-158416745D01*
X122502395Y-157480000D01*
X122861605Y-157480000D01*
X123798350Y-158416745D01*
X124060019Y-158324208D01*
X124278188Y-157732602D01*
X124253352Y-157102539D01*
X124060019Y-156635792D01*
X123798350Y-156543255D01*
X122861605Y-157480000D01*
X122502395Y-157480000D01*
X121565650Y-156543255D01*
X121477561Y-156574407D01*
X121289000Y-156385517D01*
X121289000Y-156363650D01*
X121745255Y-156363650D01*
X122682000Y-157300395D01*
X123618745Y-156363650D01*
X123526208Y-156101981D01*
X122934602Y-155883812D01*
X122304539Y-155908648D01*
X121837792Y-156101981D01*
X121745255Y-156363650D01*
X121289000Y-156363650D01*
X121289000Y-155161102D01*
X121969051Y-154481051D01*
X122171544Y-154178000D01*
X124574560Y-154178000D01*
X124574560Y-155702000D01*
X124618838Y-155937317D01*
X124757910Y-156153441D01*
X124970110Y-156298431D01*
X125222000Y-156349440D01*
X126746000Y-156349440D01*
X126981317Y-156305162D01*
X127197441Y-156166090D01*
X127342431Y-155953890D01*
X127393440Y-155702000D01*
X127393440Y-154178000D01*
X127349162Y-153942683D01*
X127210090Y-153726559D01*
X126997890Y-153581569D01*
X126746000Y-153530560D01*
X125222000Y-153530560D01*
X124986683Y-153574838D01*
X124770559Y-153713910D01*
X124625569Y-153926110D01*
X124574560Y-154178000D01*
X122171544Y-154178000D01*
X122217690Y-154108938D01*
X122219336Y-154100662D01*
X122305000Y-153670000D01*
X122305000Y-153490942D01*
X122616579Y-153491214D01*
X123070657Y-153303592D01*
X123418371Y-152956485D01*
X123606785Y-152502734D01*
X123606786Y-152500579D01*
X123676786Y-152500579D01*
X123864408Y-152954657D01*
X124211515Y-153302371D01*
X124665266Y-153490785D01*
X125156579Y-153491214D01*
X125610657Y-153303592D01*
X125958371Y-152956485D01*
X126146785Y-152502734D01*
X126146786Y-152500579D01*
X126216786Y-152500579D01*
X126404408Y-152954657D01*
X126751515Y-153302371D01*
X127205266Y-153490785D01*
X127696579Y-153491214D01*
X128150657Y-153303592D01*
X128498371Y-152956485D01*
X128686785Y-152502734D01*
X128687214Y-152011421D01*
X128499592Y-151557343D01*
X128152485Y-151209629D01*
X127698734Y-151021215D01*
X127207421Y-151020786D01*
X126753343Y-151208408D01*
X126405629Y-151555515D01*
X126217215Y-152009266D01*
X126216786Y-152500579D01*
X126146786Y-152500579D01*
X126147214Y-152011421D01*
X125959592Y-151557343D01*
X125612485Y-151209629D01*
X125158734Y-151021215D01*
X124667421Y-151020786D01*
X124213343Y-151208408D01*
X123865629Y-151555515D01*
X123677215Y-152009266D01*
X123676786Y-152500579D01*
X123606786Y-152500579D01*
X123607214Y-152011421D01*
X123419592Y-151557343D01*
X123072485Y-151209629D01*
X122618734Y-151021215D01*
X122232771Y-151020878D01*
X122217690Y-150945062D01*
X121969052Y-150572949D01*
X121207051Y-149810949D01*
X120834938Y-149562310D01*
X120396000Y-149475000D01*
X116840000Y-149475000D01*
X116779940Y-149486947D01*
X116615225Y-149486803D01*
X116461654Y-149550258D01*
X116401062Y-149562310D01*
X116350143Y-149596333D01*
X116197914Y-149659233D01*
X116080314Y-149776628D01*
X116028949Y-149810949D01*
X115994927Y-149861866D01*
X115878355Y-149978235D01*
X115818828Y-150121592D01*
X111777223Y-146079987D01*
X111845441Y-146036090D01*
X111990431Y-145823890D01*
X112041440Y-145572000D01*
X112041440Y-144872000D01*
X111997162Y-144636683D01*
X111858090Y-144420559D01*
X111645890Y-144275569D01*
X111632803Y-144272919D01*
X111845441Y-144136090D01*
X111990431Y-143923890D01*
X112041440Y-143672000D01*
X112041440Y-142972000D01*
X112036728Y-142946955D01*
X112051605Y-142943996D01*
X112298815Y-142778815D01*
X113060816Y-142016815D01*
X113190984Y-141822004D01*
X113225996Y-141769605D01*
X113256264Y-141617440D01*
X113284000Y-141617440D01*
X113519317Y-141573162D01*
X113735441Y-141434090D01*
X113880431Y-141221890D01*
X113931440Y-140970000D01*
X113931440Y-139446000D01*
X113887162Y-139210683D01*
X113748090Y-138994559D01*
X113535890Y-138849569D01*
X113284000Y-138798560D01*
X112609204Y-138798560D01*
X112896618Y-138511146D01*
X113089329Y-138222734D01*
X113157000Y-137882528D01*
X113157000Y-137817679D01*
X113258371Y-137716485D01*
X113263052Y-137705213D01*
X113487716Y-137855329D01*
X113827922Y-137923000D01*
X113912387Y-137923000D01*
X114051515Y-138062371D01*
X114505266Y-138250785D01*
X114996579Y-138251214D01*
X115450657Y-138063592D01*
X115460515Y-138053751D01*
X116465382Y-139058618D01*
X116753794Y-139251329D01*
X117094000Y-139319000D01*
X118492000Y-139319000D01*
X118832206Y-139251329D01*
X119120618Y-139058618D01*
X119928152Y-138251084D01*
X120076579Y-138251214D01*
X120530657Y-138063592D01*
X120878371Y-137716485D01*
X121066785Y-137262734D01*
X121067214Y-136771421D01*
X120879592Y-136317343D01*
X120532485Y-135969629D01*
X120078734Y-135781215D01*
X119587421Y-135780786D01*
X119558734Y-135792639D01*
X119579645Y-135771765D01*
X119752803Y-135354756D01*
X119753197Y-134903225D01*
X119580767Y-134485914D01*
X119507000Y-134412018D01*
X119507000Y-133614362D01*
X119729216Y-133614362D01*
X119901646Y-134031673D01*
X120220648Y-134351232D01*
X120637657Y-134524390D01*
X120742071Y-134524481D01*
X122036107Y-135818517D01*
X121673343Y-135968408D01*
X121325629Y-136315515D01*
X121137215Y-136769266D01*
X121136786Y-137260579D01*
X121324408Y-137714657D01*
X121671515Y-138062371D01*
X122125266Y-138250785D01*
X122616579Y-138251214D01*
X123070657Y-138063592D01*
X123418371Y-137716485D01*
X123569681Y-137352091D01*
X123816640Y-137599050D01*
X123864408Y-137714657D01*
X124211515Y-138062371D01*
X124665266Y-138250785D01*
X125156579Y-138251214D01*
X125610657Y-138063592D01*
X125958371Y-137716485D01*
X126146785Y-137262734D01*
X126146786Y-137260579D01*
X126216786Y-137260579D01*
X126404408Y-137714657D01*
X126751515Y-138062371D01*
X127205266Y-138250785D01*
X127696579Y-138251214D01*
X128150657Y-138063592D01*
X128498371Y-137716485D01*
X128686785Y-137262734D01*
X128687214Y-136771421D01*
X128499592Y-136317343D01*
X128152485Y-135969629D01*
X127698734Y-135781215D01*
X127207421Y-135780786D01*
X126753343Y-135968408D01*
X126405629Y-136315515D01*
X126217215Y-136769266D01*
X126216786Y-137260579D01*
X126146786Y-137260579D01*
X126147214Y-136771421D01*
X125959592Y-136317343D01*
X125612485Y-135969629D01*
X125158734Y-135781215D01*
X124667421Y-135780786D01*
X124558042Y-135825980D01*
X122082062Y-133350000D01*
X126098560Y-133350000D01*
X126098560Y-134874000D01*
X126142838Y-135109317D01*
X126281910Y-135325441D01*
X126494110Y-135470431D01*
X126746000Y-135521440D01*
X128270000Y-135521440D01*
X128505317Y-135477162D01*
X128721441Y-135338090D01*
X128866431Y-135125890D01*
X128917440Y-134874000D01*
X128917440Y-133350000D01*
X128873162Y-133114683D01*
X128734090Y-132898559D01*
X128521890Y-132753569D01*
X128270000Y-132702560D01*
X126746000Y-132702560D01*
X126510683Y-132746838D01*
X126294559Y-132885910D01*
X126149569Y-133098110D01*
X126098560Y-133350000D01*
X122082062Y-133350000D01*
X121999520Y-133267458D01*
X121999610Y-133164812D01*
X121827180Y-132747501D01*
X121508178Y-132427942D01*
X121091169Y-132254784D01*
X120639638Y-132254390D01*
X120222327Y-132426820D01*
X119902768Y-132745822D01*
X119729610Y-133162831D01*
X119729216Y-133614362D01*
X119507000Y-133614362D01*
X119507000Y-130489067D01*
X119677670Y-130375029D01*
X119888000Y-130060248D01*
X120098330Y-130375029D01*
X120584511Y-130699885D01*
X121158000Y-130813959D01*
X121731489Y-130699885D01*
X122217670Y-130375029D01*
X122428000Y-130060248D01*
X122638330Y-130375029D01*
X123124511Y-130699885D01*
X123698000Y-130813959D01*
X124271489Y-130699885D01*
X124757670Y-130375029D01*
X124968000Y-130060248D01*
X125178330Y-130375029D01*
X125664511Y-130699885D01*
X126238000Y-130813959D01*
X126811489Y-130699885D01*
X127297670Y-130375029D01*
X127508000Y-130060248D01*
X127718330Y-130375029D01*
X128204511Y-130699885D01*
X128778000Y-130813959D01*
X129351489Y-130699885D01*
X129837670Y-130375029D01*
X130162526Y-129888848D01*
X130276600Y-129315359D01*
X130276600Y-129256641D01*
X130162526Y-128683152D01*
X129837670Y-128196971D01*
X129566839Y-128016008D01*
X129984821Y-127634490D01*
X130232968Y-127105027D01*
X130112469Y-126873000D01*
X128905000Y-126873000D01*
X128905000Y-126893000D01*
X128651000Y-126893000D01*
X128651000Y-126873000D01*
X128631000Y-126873000D01*
X128631000Y-126619000D01*
X128651000Y-126619000D01*
X128651000Y-125412183D01*
X128905000Y-125412183D01*
X128905000Y-126619000D01*
X130112469Y-126619000D01*
X130232968Y-126386973D01*
X129984821Y-125857510D01*
X129552947Y-125463312D01*
X129137026Y-125291042D01*
X128905000Y-125412183D01*
X128651000Y-125412183D01*
X128418974Y-125291042D01*
X128003053Y-125463312D01*
X127571179Y-125857510D01*
X127513664Y-125980228D01*
X127297670Y-125656971D01*
X127127000Y-125542933D01*
X127127000Y-125524686D01*
X127059329Y-125184480D01*
X126866618Y-124896068D01*
X121991932Y-120021382D01*
X121881104Y-119947329D01*
X121703520Y-119828671D01*
X121363314Y-119761000D01*
X120350283Y-119761000D01*
X120277765Y-119688355D01*
X119860756Y-119515197D01*
X119507000Y-119514888D01*
X119507000Y-112776000D01*
X119439329Y-112435794D01*
X119246618Y-112147382D01*
X118230618Y-111131382D01*
X118010046Y-110984000D01*
X131586000Y-110984000D01*
X131586000Y-156777136D01*
G36*
X95105764Y-141829000D02*
X95027750Y-141829000D01*
X94869000Y-141987750D01*
X94869000Y-142687000D01*
X95868250Y-142687000D01*
X95916007Y-142639243D01*
X96393000Y-143116236D01*
X96393000Y-144149208D01*
X96180559Y-144285910D01*
X96039440Y-144492445D01*
X96039440Y-144364000D01*
X95995162Y-144128683D01*
X95856090Y-143912559D01*
X95643890Y-143767569D01*
X95610510Y-143760809D01*
X95751699Y-143702327D01*
X95930327Y-143523698D01*
X96027000Y-143290309D01*
X96027000Y-143099750D01*
X95868250Y-142941000D01*
X94869000Y-142941000D01*
X94869000Y-142961000D01*
X94615000Y-142961000D01*
X94615000Y-142941000D01*
X94595000Y-142941000D01*
X94595000Y-142687000D01*
X94615000Y-142687000D01*
X94615000Y-141987750D01*
X94456250Y-141829000D01*
X93965690Y-141829000D01*
X93732301Y-141925673D01*
X93717943Y-141940032D01*
X93611890Y-141867569D01*
X93360000Y-141816560D01*
X93001110Y-141816560D01*
X92913695Y-141605000D01*
X94881764Y-141605000D01*
X95105764Y-141829000D01*
X95105764Y-141829000D01*
G37*
X95105764Y-141829000D02*
X95027750Y-141829000D01*
X94869000Y-141987750D01*
X94869000Y-142687000D01*
X95868250Y-142687000D01*
X95916007Y-142639243D01*
X96393000Y-143116236D01*
X96393000Y-144149208D01*
X96180559Y-144285910D01*
X96039440Y-144492445D01*
X96039440Y-144364000D01*
X95995162Y-144128683D01*
X95856090Y-143912559D01*
X95643890Y-143767569D01*
X95610510Y-143760809D01*
X95751699Y-143702327D01*
X95930327Y-143523698D01*
X96027000Y-143290309D01*
X96027000Y-143099750D01*
X95868250Y-142941000D01*
X94869000Y-142941000D01*
X94869000Y-142961000D01*
X94615000Y-142961000D01*
X94615000Y-142941000D01*
X94595000Y-142941000D01*
X94595000Y-142687000D01*
X94615000Y-142687000D01*
X94615000Y-141987750D01*
X94456250Y-141829000D01*
X93965690Y-141829000D01*
X93732301Y-141925673D01*
X93717943Y-141940032D01*
X93611890Y-141867569D01*
X93360000Y-141816560D01*
X93001110Y-141816560D01*
X92913695Y-141605000D01*
X94881764Y-141605000D01*
X95105764Y-141829000D01*
G36*
X107780014Y-138222734D02*
X107829382Y-138296618D01*
X108591382Y-139058618D01*
X108867628Y-139243200D01*
X108826560Y-139446000D01*
X108826560Y-140970000D01*
X108870838Y-141205317D01*
X109009910Y-141421441D01*
X109131708Y-141504662D01*
X108996198Y-141640172D01*
X108923698Y-141567673D01*
X108690309Y-141471000D01*
X108149750Y-141471000D01*
X107991000Y-141629750D01*
X107991000Y-141958560D01*
X107737000Y-141958560D01*
X107737000Y-141629750D01*
X107578250Y-141471000D01*
X107037691Y-141471000D01*
X106804302Y-141567673D01*
X106680000Y-141691974D01*
X106680000Y-138493630D01*
X106922813Y-138250818D01*
X107376579Y-138251214D01*
X107707642Y-138114421D01*
X107780014Y-138222734D01*
X107780014Y-138222734D01*
G37*
X107780014Y-138222734D02*
X107829382Y-138296618D01*
X108591382Y-139058618D01*
X108867628Y-139243200D01*
X108826560Y-139446000D01*
X108826560Y-140970000D01*
X108870838Y-141205317D01*
X109009910Y-141421441D01*
X109131708Y-141504662D01*
X108996198Y-141640172D01*
X108923698Y-141567673D01*
X108690309Y-141471000D01*
X108149750Y-141471000D01*
X107991000Y-141629750D01*
X107991000Y-141958560D01*
X107737000Y-141958560D01*
X107737000Y-141629750D01*
X107578250Y-141471000D01*
X107037691Y-141471000D01*
X106804302Y-141567673D01*
X106680000Y-141691974D01*
X106680000Y-138493630D01*
X106922813Y-138250818D01*
X107376579Y-138251214D01*
X107707642Y-138114421D01*
X107780014Y-138222734D01*
G36*
X105543382Y-121278618D02*
X105831794Y-121471329D01*
X106172000Y-121539000D01*
X107007000Y-121539000D01*
X107007000Y-121634250D01*
X107165750Y-121793000D01*
X108265000Y-121793000D01*
X108265000Y-121773000D01*
X108519000Y-121773000D01*
X108519000Y-121793000D01*
X108539000Y-121793000D01*
X108539000Y-122047000D01*
X108519000Y-122047000D01*
X108519000Y-122067000D01*
X108265000Y-122067000D01*
X108265000Y-122047000D01*
X107165750Y-122047000D01*
X107007000Y-122205750D01*
X107007000Y-122346310D01*
X107103673Y-122579699D01*
X107282302Y-122758327D01*
X107515691Y-122855000D01*
X108066966Y-122855000D01*
X107829382Y-123092584D01*
X107636671Y-123380996D01*
X107569000Y-123721202D01*
X107569000Y-132080000D01*
X107636671Y-132420206D01*
X107813293Y-132684539D01*
X107829382Y-132708618D01*
X108343764Y-133223000D01*
X106286236Y-133223000D01*
X103497107Y-130433871D01*
X103497197Y-130331225D01*
X103324767Y-129913914D01*
X103005765Y-129594355D01*
X102862408Y-129534828D01*
X106040129Y-126357107D01*
X106142775Y-126357197D01*
X106560086Y-126184767D01*
X106879645Y-125865765D01*
X107052803Y-125448756D01*
X107053197Y-124997225D01*
X106880767Y-124579914D01*
X106561765Y-124260355D01*
X106465049Y-124220195D01*
X106465284Y-123951108D01*
X106292854Y-123533797D01*
X105973852Y-123214238D01*
X105556843Y-123041080D01*
X105105312Y-123040686D01*
X104688001Y-123213116D01*
X104368442Y-123532118D01*
X104195284Y-123949127D01*
X104195190Y-124056662D01*
X104008759Y-124335676D01*
X103961791Y-124571799D01*
X103893294Y-124640296D01*
X103657217Y-124403807D01*
X103240208Y-124230649D01*
X102788677Y-124230255D01*
X102371366Y-124402685D01*
X102059507Y-124714000D01*
X101113000Y-124714000D01*
X101113000Y-124618750D01*
X100954250Y-124460000D01*
X99855000Y-124460000D01*
X99855000Y-124480000D01*
X99601000Y-124480000D01*
X99601000Y-124460000D01*
X99581000Y-124460000D01*
X99581000Y-124206000D01*
X99601000Y-124206000D01*
X99601000Y-124186000D01*
X99607349Y-124186000D01*
X99728000Y-124209999D01*
X99848651Y-124186000D01*
X99855000Y-124186000D01*
X99855000Y-124206000D01*
X100954250Y-124206000D01*
X101113000Y-124047250D01*
X101113000Y-123906690D01*
X101023194Y-123689878D01*
X101074431Y-123614890D01*
X101125440Y-123363000D01*
X101125440Y-122763000D01*
X101081162Y-122527683D01*
X100942090Y-122311559D01*
X100729890Y-122166569D01*
X100478000Y-122115560D01*
X100402663Y-122115560D01*
X99683207Y-121396105D01*
X99683240Y-121358715D01*
X99472831Y-120849485D01*
X99083564Y-120459539D01*
X98574702Y-120248241D01*
X98023715Y-120247760D01*
X97514485Y-120458169D01*
X97453548Y-120519000D01*
X92575173Y-120519000D01*
X92573000Y-120518560D01*
X91323000Y-120518560D01*
X91087683Y-120562838D01*
X90871559Y-120701910D01*
X90726569Y-120914110D01*
X90675560Y-121166000D01*
X90675560Y-122166000D01*
X90719838Y-122401317D01*
X90858910Y-122617441D01*
X90927006Y-122663969D01*
X90784673Y-122806302D01*
X90688000Y-123039691D01*
X90688000Y-123380250D01*
X90846750Y-123539000D01*
X91821000Y-123539000D01*
X91821000Y-123519000D01*
X92075000Y-123519000D01*
X92075000Y-123539000D01*
X92095000Y-123539000D01*
X92095000Y-123793000D01*
X92075000Y-123793000D01*
X92075000Y-124642250D01*
X92233750Y-124801000D01*
X92699310Y-124801000D01*
X92932699Y-124704327D01*
X92942194Y-124694832D01*
X92974838Y-124868317D01*
X93038678Y-124967528D01*
X92981569Y-125051110D01*
X92930560Y-125303000D01*
X92930560Y-125903000D01*
X92974838Y-126138317D01*
X93038678Y-126237528D01*
X92981569Y-126321110D01*
X92930560Y-126573000D01*
X92930560Y-127173000D01*
X92974838Y-127408317D01*
X93038678Y-127507528D01*
X92981569Y-127591110D01*
X92930560Y-127843000D01*
X92930560Y-128443000D01*
X92974838Y-128678317D01*
X93038678Y-128777528D01*
X92981569Y-128861110D01*
X92930560Y-129113000D01*
X92930560Y-129713000D01*
X92974838Y-129948317D01*
X93038678Y-130047528D01*
X92981569Y-130131110D01*
X92930560Y-130383000D01*
X92930560Y-130983000D01*
X92974838Y-131218317D01*
X93033178Y-131308980D01*
X92943000Y-131526690D01*
X92943000Y-131667250D01*
X93101750Y-131826000D01*
X94201000Y-131826000D01*
X94201000Y-131806000D01*
X94455000Y-131806000D01*
X94455000Y-131826000D01*
X94475000Y-131826000D01*
X94475000Y-132080000D01*
X94455000Y-132080000D01*
X94455000Y-132729250D01*
X94613750Y-132888000D01*
X94869000Y-132888000D01*
X94869000Y-134874000D01*
X94936671Y-135214206D01*
X95076714Y-135423795D01*
X95129382Y-135502618D01*
X95933961Y-136307197D01*
X95925629Y-136315515D01*
X95737215Y-136769266D01*
X95736786Y-137260579D01*
X95924408Y-137714657D01*
X96271515Y-138062371D01*
X96725266Y-138250785D01*
X97216579Y-138251214D01*
X97670657Y-138063592D01*
X97855837Y-137878735D01*
X98828870Y-137878735D01*
X98878383Y-138104164D01*
X99343036Y-138263807D01*
X99833413Y-138233482D01*
X100145617Y-138104164D01*
X100195130Y-137878735D01*
X99512000Y-137195605D01*
X98828870Y-137878735D01*
X97855837Y-137878735D01*
X98018371Y-137716485D01*
X98206785Y-137262734D01*
X98207214Y-136771421D01*
X98131633Y-136588501D01*
X98353019Y-136588501D01*
X98264193Y-136847036D01*
X98294518Y-137337413D01*
X98423836Y-137649617D01*
X98649265Y-137699130D01*
X99332395Y-137016000D01*
X99318253Y-137001858D01*
X99497858Y-136822253D01*
X99512000Y-136836395D01*
X99526143Y-136822253D01*
X99705748Y-137001858D01*
X99691605Y-137016000D01*
X100374735Y-137699130D01*
X100600164Y-137649617D01*
X100759807Y-137184964D01*
X100729482Y-136694587D01*
X100685540Y-136588501D01*
X100892275Y-136588501D01*
X100817215Y-136769266D01*
X100816786Y-137260579D01*
X101004408Y-137714657D01*
X101346000Y-138056846D01*
X101346000Y-140697284D01*
X101114702Y-140601241D01*
X100563715Y-140600760D01*
X100054485Y-140811169D01*
X99664539Y-141200436D01*
X99453241Y-141709298D01*
X99453207Y-141748691D01*
X99441000Y-141760897D01*
X95807051Y-138126949D01*
X95434938Y-137878310D01*
X95335981Y-137858626D01*
X95478371Y-137716485D01*
X95666785Y-137262734D01*
X95667214Y-136771421D01*
X95479592Y-136317343D01*
X95132485Y-135969629D01*
X94678734Y-135781215D01*
X94187421Y-135780786D01*
X93733343Y-135968408D01*
X93385629Y-136315515D01*
X93197215Y-136769266D01*
X93196786Y-137260579D01*
X93384408Y-137714657D01*
X93460618Y-137791000D01*
X92863726Y-137791000D01*
X92938371Y-137716485D01*
X93126785Y-137262734D01*
X93127214Y-136771421D01*
X92939592Y-136317343D01*
X92592485Y-135969629D01*
X92138734Y-135781215D01*
X91825000Y-135780941D01*
X91825000Y-134669979D01*
X91851461Y-134643564D01*
X92062759Y-134134702D01*
X92063240Y-133583715D01*
X91852831Y-133074485D01*
X91463564Y-132684539D01*
X90954702Y-132473241D01*
X90403715Y-132472760D01*
X89894485Y-132683169D01*
X89504539Y-133072436D01*
X89293241Y-133581298D01*
X89292760Y-134132285D01*
X89503169Y-134641515D01*
X89531000Y-134669395D01*
X89531000Y-135781156D01*
X89107421Y-135780786D01*
X88871595Y-135878228D01*
X88831329Y-135675794D01*
X88638618Y-135387382D01*
X86741000Y-133489764D01*
X86741000Y-132238750D01*
X92943000Y-132238750D01*
X92943000Y-132379310D01*
X93039673Y-132612699D01*
X93218302Y-132791327D01*
X93451691Y-132888000D01*
X94042250Y-132888000D01*
X94201000Y-132729250D01*
X94201000Y-132080000D01*
X93101750Y-132080000D01*
X92943000Y-132238750D01*
X86741000Y-132238750D01*
X86741000Y-123951750D01*
X90688000Y-123951750D01*
X90688000Y-124292309D01*
X90784673Y-124525698D01*
X90963301Y-124704327D01*
X91196690Y-124801000D01*
X91662250Y-124801000D01*
X91821000Y-124642250D01*
X91821000Y-123793000D01*
X90846750Y-123793000D01*
X90688000Y-123951750D01*
X86741000Y-123951750D01*
X86741000Y-122034236D01*
X88760236Y-120015000D01*
X100215764Y-120015000D01*
X101988893Y-121788129D01*
X101988803Y-121890775D01*
X102161233Y-122308086D01*
X102480235Y-122627645D01*
X102897244Y-122800803D01*
X103348775Y-122801197D01*
X103766086Y-122628767D01*
X104085645Y-122309765D01*
X104258803Y-121892756D01*
X104259197Y-121441225D01*
X104086767Y-121023914D01*
X103767765Y-120704355D01*
X103350756Y-120531197D01*
X103246342Y-120531106D01*
X101714236Y-118999000D01*
X103263764Y-118999000D01*
X105543382Y-121278618D01*
X105543382Y-121278618D01*
G37*
X105543382Y-121278618D02*
X105831794Y-121471329D01*
X106172000Y-121539000D01*
X107007000Y-121539000D01*
X107007000Y-121634250D01*
X107165750Y-121793000D01*
X108265000Y-121793000D01*
X108265000Y-121773000D01*
X108519000Y-121773000D01*
X108519000Y-121793000D01*
X108539000Y-121793000D01*
X108539000Y-122047000D01*
X108519000Y-122047000D01*
X108519000Y-122067000D01*
X108265000Y-122067000D01*
X108265000Y-122047000D01*
X107165750Y-122047000D01*
X107007000Y-122205750D01*
X107007000Y-122346310D01*
X107103673Y-122579699D01*
X107282302Y-122758327D01*
X107515691Y-122855000D01*
X108066966Y-122855000D01*
X107829382Y-123092584D01*
X107636671Y-123380996D01*
X107569000Y-123721202D01*
X107569000Y-132080000D01*
X107636671Y-132420206D01*
X107813293Y-132684539D01*
X107829382Y-132708618D01*
X108343764Y-133223000D01*
X106286236Y-133223000D01*
X103497107Y-130433871D01*
X103497197Y-130331225D01*
X103324767Y-129913914D01*
X103005765Y-129594355D01*
X102862408Y-129534828D01*
X106040129Y-126357107D01*
X106142775Y-126357197D01*
X106560086Y-126184767D01*
X106879645Y-125865765D01*
X107052803Y-125448756D01*
X107053197Y-124997225D01*
X106880767Y-124579914D01*
X106561765Y-124260355D01*
X106465049Y-124220195D01*
X106465284Y-123951108D01*
X106292854Y-123533797D01*
X105973852Y-123214238D01*
X105556843Y-123041080D01*
X105105312Y-123040686D01*
X104688001Y-123213116D01*
X104368442Y-123532118D01*
X104195284Y-123949127D01*
X104195190Y-124056662D01*
X104008759Y-124335676D01*
X103961791Y-124571799D01*
X103893294Y-124640296D01*
X103657217Y-124403807D01*
X103240208Y-124230649D01*
X102788677Y-124230255D01*
X102371366Y-124402685D01*
X102059507Y-124714000D01*
X101113000Y-124714000D01*
X101113000Y-124618750D01*
X100954250Y-124460000D01*
X99855000Y-124460000D01*
X99855000Y-124480000D01*
X99601000Y-124480000D01*
X99601000Y-124460000D01*
X99581000Y-124460000D01*
X99581000Y-124206000D01*
X99601000Y-124206000D01*
X99601000Y-124186000D01*
X99607349Y-124186000D01*
X99728000Y-124209999D01*
X99848651Y-124186000D01*
X99855000Y-124186000D01*
X99855000Y-124206000D01*
X100954250Y-124206000D01*
X101113000Y-124047250D01*
X101113000Y-123906690D01*
X101023194Y-123689878D01*
X101074431Y-123614890D01*
X101125440Y-123363000D01*
X101125440Y-122763000D01*
X101081162Y-122527683D01*
X100942090Y-122311559D01*
X100729890Y-122166569D01*
X100478000Y-122115560D01*
X100402663Y-122115560D01*
X99683207Y-121396105D01*
X99683240Y-121358715D01*
X99472831Y-120849485D01*
X99083564Y-120459539D01*
X98574702Y-120248241D01*
X98023715Y-120247760D01*
X97514485Y-120458169D01*
X97453548Y-120519000D01*
X92575173Y-120519000D01*
X92573000Y-120518560D01*
X91323000Y-120518560D01*
X91087683Y-120562838D01*
X90871559Y-120701910D01*
X90726569Y-120914110D01*
X90675560Y-121166000D01*
X90675560Y-122166000D01*
X90719838Y-122401317D01*
X90858910Y-122617441D01*
X90927006Y-122663969D01*
X90784673Y-122806302D01*
X90688000Y-123039691D01*
X90688000Y-123380250D01*
X90846750Y-123539000D01*
X91821000Y-123539000D01*
X91821000Y-123519000D01*
X92075000Y-123519000D01*
X92075000Y-123539000D01*
X92095000Y-123539000D01*
X92095000Y-123793000D01*
X92075000Y-123793000D01*
X92075000Y-124642250D01*
X92233750Y-124801000D01*
X92699310Y-124801000D01*
X92932699Y-124704327D01*
X92942194Y-124694832D01*
X92974838Y-124868317D01*
X93038678Y-124967528D01*
X92981569Y-125051110D01*
X92930560Y-125303000D01*
X92930560Y-125903000D01*
X92974838Y-126138317D01*
X93038678Y-126237528D01*
X92981569Y-126321110D01*
X92930560Y-126573000D01*
X92930560Y-127173000D01*
X92974838Y-127408317D01*
X93038678Y-127507528D01*
X92981569Y-127591110D01*
X92930560Y-127843000D01*
X92930560Y-128443000D01*
X92974838Y-128678317D01*
X93038678Y-128777528D01*
X92981569Y-128861110D01*
X92930560Y-129113000D01*
X92930560Y-129713000D01*
X92974838Y-129948317D01*
X93038678Y-130047528D01*
X92981569Y-130131110D01*
X92930560Y-130383000D01*
X92930560Y-130983000D01*
X92974838Y-131218317D01*
X93033178Y-131308980D01*
X92943000Y-131526690D01*
X92943000Y-131667250D01*
X93101750Y-131826000D01*
X94201000Y-131826000D01*
X94201000Y-131806000D01*
X94455000Y-131806000D01*
X94455000Y-131826000D01*
X94475000Y-131826000D01*
X94475000Y-132080000D01*
X94455000Y-132080000D01*
X94455000Y-132729250D01*
X94613750Y-132888000D01*
X94869000Y-132888000D01*
X94869000Y-134874000D01*
X94936671Y-135214206D01*
X95076714Y-135423795D01*
X95129382Y-135502618D01*
X95933961Y-136307197D01*
X95925629Y-136315515D01*
X95737215Y-136769266D01*
X95736786Y-137260579D01*
X95924408Y-137714657D01*
X96271515Y-138062371D01*
X96725266Y-138250785D01*
X97216579Y-138251214D01*
X97670657Y-138063592D01*
X97855837Y-137878735D01*
X98828870Y-137878735D01*
X98878383Y-138104164D01*
X99343036Y-138263807D01*
X99833413Y-138233482D01*
X100145617Y-138104164D01*
X100195130Y-137878735D01*
X99512000Y-137195605D01*
X98828870Y-137878735D01*
X97855837Y-137878735D01*
X98018371Y-137716485D01*
X98206785Y-137262734D01*
X98207214Y-136771421D01*
X98131633Y-136588501D01*
X98353019Y-136588501D01*
X98264193Y-136847036D01*
X98294518Y-137337413D01*
X98423836Y-137649617D01*
X98649265Y-137699130D01*
X99332395Y-137016000D01*
X99318253Y-137001858D01*
X99497858Y-136822253D01*
X99512000Y-136836395D01*
X99526143Y-136822253D01*
X99705748Y-137001858D01*
X99691605Y-137016000D01*
X100374735Y-137699130D01*
X100600164Y-137649617D01*
X100759807Y-137184964D01*
X100729482Y-136694587D01*
X100685540Y-136588501D01*
X100892275Y-136588501D01*
X100817215Y-136769266D01*
X100816786Y-137260579D01*
X101004408Y-137714657D01*
X101346000Y-138056846D01*
X101346000Y-140697284D01*
X101114702Y-140601241D01*
X100563715Y-140600760D01*
X100054485Y-140811169D01*
X99664539Y-141200436D01*
X99453241Y-141709298D01*
X99453207Y-141748691D01*
X99441000Y-141760897D01*
X95807051Y-138126949D01*
X95434938Y-137878310D01*
X95335981Y-137858626D01*
X95478371Y-137716485D01*
X95666785Y-137262734D01*
X95667214Y-136771421D01*
X95479592Y-136317343D01*
X95132485Y-135969629D01*
X94678734Y-135781215D01*
X94187421Y-135780786D01*
X93733343Y-135968408D01*
X93385629Y-136315515D01*
X93197215Y-136769266D01*
X93196786Y-137260579D01*
X93384408Y-137714657D01*
X93460618Y-137791000D01*
X92863726Y-137791000D01*
X92938371Y-137716485D01*
X93126785Y-137262734D01*
X93127214Y-136771421D01*
X92939592Y-136317343D01*
X92592485Y-135969629D01*
X92138734Y-135781215D01*
X91825000Y-135780941D01*
X91825000Y-134669979D01*
X91851461Y-134643564D01*
X92062759Y-134134702D01*
X92063240Y-133583715D01*
X91852831Y-133074485D01*
X91463564Y-132684539D01*
X90954702Y-132473241D01*
X90403715Y-132472760D01*
X89894485Y-132683169D01*
X89504539Y-133072436D01*
X89293241Y-133581298D01*
X89292760Y-134132285D01*
X89503169Y-134641515D01*
X89531000Y-134669395D01*
X89531000Y-135781156D01*
X89107421Y-135780786D01*
X88871595Y-135878228D01*
X88831329Y-135675794D01*
X88638618Y-135387382D01*
X86741000Y-133489764D01*
X86741000Y-132238750D01*
X92943000Y-132238750D01*
X92943000Y-132379310D01*
X93039673Y-132612699D01*
X93218302Y-132791327D01*
X93451691Y-132888000D01*
X94042250Y-132888000D01*
X94201000Y-132729250D01*
X94201000Y-132080000D01*
X93101750Y-132080000D01*
X92943000Y-132238750D01*
X86741000Y-132238750D01*
X86741000Y-123951750D01*
X90688000Y-123951750D01*
X90688000Y-124292309D01*
X90784673Y-124525698D01*
X90963301Y-124704327D01*
X91196690Y-124801000D01*
X91662250Y-124801000D01*
X91821000Y-124642250D01*
X91821000Y-123793000D01*
X90846750Y-123793000D01*
X90688000Y-123951750D01*
X86741000Y-123951750D01*
X86741000Y-122034236D01*
X88760236Y-120015000D01*
X100215764Y-120015000D01*
X101988893Y-121788129D01*
X101988803Y-121890775D01*
X102161233Y-122308086D01*
X102480235Y-122627645D01*
X102897244Y-122800803D01*
X103348775Y-122801197D01*
X103766086Y-122628767D01*
X104085645Y-122309765D01*
X104258803Y-121892756D01*
X104259197Y-121441225D01*
X104086767Y-121023914D01*
X103767765Y-120704355D01*
X103350756Y-120531197D01*
X103246342Y-120531106D01*
X101714236Y-118999000D01*
X103263764Y-118999000D01*
X105543382Y-121278618D01*
G36*
X112394560Y-120950000D02*
X112438838Y-121185317D01*
X112502678Y-121284528D01*
X112445569Y-121368110D01*
X112394560Y-121620000D01*
X112394560Y-122220000D01*
X112431143Y-122414423D01*
X112267172Y-122578108D01*
X112094014Y-122995117D01*
X112093620Y-123446648D01*
X112266050Y-123863959D01*
X112585052Y-124183518D01*
X113002061Y-124356676D01*
X113453592Y-124357070D01*
X113870903Y-124184640D01*
X114190462Y-123865638D01*
X114363620Y-123448629D01*
X114363651Y-123413585D01*
X114420618Y-123356618D01*
X114613330Y-123068205D01*
X114657590Y-122845690D01*
X114777317Y-122823162D01*
X114993441Y-122684090D01*
X115138431Y-122471890D01*
X115189440Y-122220000D01*
X115189440Y-121620000D01*
X115174199Y-121539000D01*
X116885717Y-121539000D01*
X116958235Y-121611645D01*
X117375244Y-121784803D01*
X117729000Y-121785112D01*
X117729000Y-125542933D01*
X117558330Y-125656971D01*
X117348000Y-125971752D01*
X117137670Y-125656971D01*
X116651489Y-125332115D01*
X116078000Y-125218041D01*
X115504511Y-125332115D01*
X115018330Y-125656971D01*
X114808000Y-125971752D01*
X114597670Y-125656971D01*
X114111489Y-125332115D01*
X113538000Y-125218041D01*
X112964511Y-125332115D01*
X112478330Y-125656971D01*
X112469195Y-125670642D01*
X112464762Y-125647083D01*
X112325690Y-125430959D01*
X112113490Y-125285969D01*
X111861600Y-125234960D01*
X110134400Y-125234960D01*
X110055010Y-125249898D01*
X110055010Y-124628226D01*
X111626618Y-123056618D01*
X111707212Y-122936000D01*
X111819329Y-122768206D01*
X111887000Y-122428000D01*
X111887000Y-121257513D01*
X112394560Y-120749953D01*
X112394560Y-120950000D01*
X112394560Y-120950000D01*
G37*
X112394560Y-120950000D02*
X112438838Y-121185317D01*
X112502678Y-121284528D01*
X112445569Y-121368110D01*
X112394560Y-121620000D01*
X112394560Y-122220000D01*
X112431143Y-122414423D01*
X112267172Y-122578108D01*
X112094014Y-122995117D01*
X112093620Y-123446648D01*
X112266050Y-123863959D01*
X112585052Y-124183518D01*
X113002061Y-124356676D01*
X113453592Y-124357070D01*
X113870903Y-124184640D01*
X114190462Y-123865638D01*
X114363620Y-123448629D01*
X114363651Y-123413585D01*
X114420618Y-123356618D01*
X114613330Y-123068205D01*
X114657590Y-122845690D01*
X114777317Y-122823162D01*
X114993441Y-122684090D01*
X115138431Y-122471890D01*
X115189440Y-122220000D01*
X115189440Y-121620000D01*
X115174199Y-121539000D01*
X116885717Y-121539000D01*
X116958235Y-121611645D01*
X117375244Y-121784803D01*
X117729000Y-121785112D01*
X117729000Y-125542933D01*
X117558330Y-125656971D01*
X117348000Y-125971752D01*
X117137670Y-125656971D01*
X116651489Y-125332115D01*
X116078000Y-125218041D01*
X115504511Y-125332115D01*
X115018330Y-125656971D01*
X114808000Y-125971752D01*
X114597670Y-125656971D01*
X114111489Y-125332115D01*
X113538000Y-125218041D01*
X112964511Y-125332115D01*
X112478330Y-125656971D01*
X112469195Y-125670642D01*
X112464762Y-125647083D01*
X112325690Y-125430959D01*
X112113490Y-125285969D01*
X111861600Y-125234960D01*
X110134400Y-125234960D01*
X110055010Y-125249898D01*
X110055010Y-124628226D01*
X111626618Y-123056618D01*
X111707212Y-122936000D01*
X111819329Y-122768206D01*
X111887000Y-122428000D01*
X111887000Y-121257513D01*
X112394560Y-120749953D01*
X112394560Y-120950000D01*
G36*
X125152182Y-125696104D02*
X124968000Y-125971752D01*
X124757670Y-125656971D01*
X124271489Y-125332115D01*
X123698000Y-125218041D01*
X123124511Y-125332115D01*
X122638330Y-125656971D01*
X122428000Y-125971752D01*
X122217670Y-125656971D01*
X121731489Y-125332115D01*
X121158000Y-125218041D01*
X120584511Y-125332115D01*
X120098330Y-125656971D01*
X119888000Y-125971752D01*
X119677670Y-125656971D01*
X119507000Y-125542933D01*
X119507000Y-121784890D01*
X119858775Y-121785197D01*
X120276086Y-121612767D01*
X120349982Y-121539000D01*
X120995078Y-121539000D01*
X125152182Y-125696104D01*
X125152182Y-125696104D01*
G37*
X125152182Y-125696104D02*
X124968000Y-125971752D01*
X124757670Y-125656971D01*
X124271489Y-125332115D01*
X123698000Y-125218041D01*
X123124511Y-125332115D01*
X122638330Y-125656971D01*
X122428000Y-125971752D01*
X122217670Y-125656971D01*
X121731489Y-125332115D01*
X121158000Y-125218041D01*
X120584511Y-125332115D01*
X120098330Y-125656971D01*
X119888000Y-125971752D01*
X119677670Y-125656971D01*
X119507000Y-125542933D01*
X119507000Y-121784890D01*
X119858775Y-121785197D01*
X120276086Y-121612767D01*
X120349982Y-121539000D01*
X120995078Y-121539000D01*
X125152182Y-125696104D01*
G36*
X98021298Y-123017759D02*
X98060691Y-123017793D01*
X98330560Y-123287663D01*
X98330560Y-123363000D01*
X98374838Y-123598317D01*
X98433178Y-123688980D01*
X98343000Y-123906690D01*
X98343000Y-123915875D01*
X98179765Y-123752355D01*
X97762756Y-123579197D01*
X97596048Y-123579052D01*
X97495206Y-123511671D01*
X97155000Y-123444000D01*
X95713000Y-123444000D01*
X95713000Y-123348750D01*
X95554250Y-123190000D01*
X94455000Y-123190000D01*
X94455000Y-123210000D01*
X94201000Y-123210000D01*
X94201000Y-123190000D01*
X94181000Y-123190000D01*
X94181000Y-122936000D01*
X94201000Y-122936000D01*
X94201000Y-122916000D01*
X94455000Y-122916000D01*
X94455000Y-122936000D01*
X95554250Y-122936000D01*
X95677250Y-122813000D01*
X97528184Y-122813000D01*
X98021298Y-123017759D01*
X98021298Y-123017759D01*
G37*
X98021298Y-123017759D02*
X98060691Y-123017793D01*
X98330560Y-123287663D01*
X98330560Y-123363000D01*
X98374838Y-123598317D01*
X98433178Y-123688980D01*
X98343000Y-123906690D01*
X98343000Y-123915875D01*
X98179765Y-123752355D01*
X97762756Y-123579197D01*
X97596048Y-123579052D01*
X97495206Y-123511671D01*
X97155000Y-123444000D01*
X95713000Y-123444000D01*
X95713000Y-123348750D01*
X95554250Y-123190000D01*
X94455000Y-123190000D01*
X94455000Y-123210000D01*
X94201000Y-123210000D01*
X94201000Y-123190000D01*
X94181000Y-123190000D01*
X94181000Y-122936000D01*
X94201000Y-122936000D01*
X94201000Y-122916000D01*
X94455000Y-122916000D01*
X94455000Y-122936000D01*
X95554250Y-122936000D01*
X95677250Y-122813000D01*
X97528184Y-122813000D01*
X98021298Y-123017759D01*
G36*
X110115382Y-111131382D02*
X109353382Y-111893382D01*
X109218665Y-112095000D01*
X108677750Y-112095000D01*
X108519000Y-112253750D01*
X108519000Y-112903000D01*
X108539000Y-112903000D01*
X108539000Y-113157000D01*
X108519000Y-113157000D01*
X108519000Y-113177000D01*
X108265000Y-113177000D01*
X108265000Y-113157000D01*
X107165750Y-113157000D01*
X107007000Y-113315750D01*
X107007000Y-113456310D01*
X107096806Y-113673122D01*
X107045569Y-113748110D01*
X106994560Y-114000000D01*
X106994560Y-114600000D01*
X107009801Y-114681000D01*
X100538283Y-114681000D01*
X100465765Y-114608355D01*
X100048756Y-114435197D01*
X99597225Y-114434803D01*
X99179914Y-114607233D01*
X98860355Y-114926235D01*
X98687197Y-115343244D01*
X98686803Y-115794775D01*
X98856305Y-116205000D01*
X87376000Y-116205000D01*
X87035794Y-116272671D01*
X86858210Y-116391329D01*
X86747382Y-116465382D01*
X83006000Y-120206764D01*
X83006000Y-112603690D01*
X107007000Y-112603690D01*
X107007000Y-112744250D01*
X107165750Y-112903000D01*
X108265000Y-112903000D01*
X108265000Y-112253750D01*
X108106250Y-112095000D01*
X107515691Y-112095000D01*
X107282302Y-112191673D01*
X107103673Y-112370301D01*
X107007000Y-112603690D01*
X83006000Y-112603690D01*
X83006000Y-110984000D01*
X110335954Y-110984000D01*
X110115382Y-111131382D01*
X110115382Y-111131382D01*
G37*
X110115382Y-111131382D02*
X109353382Y-111893382D01*
X109218665Y-112095000D01*
X108677750Y-112095000D01*
X108519000Y-112253750D01*
X108519000Y-112903000D01*
X108539000Y-112903000D01*
X108539000Y-113157000D01*
X108519000Y-113157000D01*
X108519000Y-113177000D01*
X108265000Y-113177000D01*
X108265000Y-113157000D01*
X107165750Y-113157000D01*
X107007000Y-113315750D01*
X107007000Y-113456310D01*
X107096806Y-113673122D01*
X107045569Y-113748110D01*
X106994560Y-114000000D01*
X106994560Y-114600000D01*
X107009801Y-114681000D01*
X100538283Y-114681000D01*
X100465765Y-114608355D01*
X100048756Y-114435197D01*
X99597225Y-114434803D01*
X99179914Y-114607233D01*
X98860355Y-114926235D01*
X98687197Y-115343244D01*
X98686803Y-115794775D01*
X98856305Y-116205000D01*
X87376000Y-116205000D01*
X87035794Y-116272671D01*
X86858210Y-116391329D01*
X86747382Y-116465382D01*
X83006000Y-120206764D01*
X83006000Y-112603690D01*
X107007000Y-112603690D01*
X107007000Y-112744250D01*
X107165750Y-112903000D01*
X108265000Y-112903000D01*
X108265000Y-112253750D01*
X108106250Y-112095000D01*
X107515691Y-112095000D01*
X107282302Y-112191673D01*
X107103673Y-112370301D01*
X107007000Y-112603690D01*
X83006000Y-112603690D01*
X83006000Y-110984000D01*
X110335954Y-110984000D01*
X110115382Y-111131382D01*
G36*
X117729000Y-113144236D02*
X117729000Y-119515110D01*
X117377225Y-119514803D01*
X116959914Y-119687233D01*
X116886018Y-119761000D01*
X115173037Y-119761000D01*
X115189440Y-119680000D01*
X115189440Y-119080000D01*
X115169718Y-118975187D01*
X115390206Y-118931329D01*
X115678618Y-118738618D01*
X117178454Y-117238782D01*
X117214618Y-117214618D01*
X117407329Y-116926206D01*
X117475000Y-116586000D01*
X117475000Y-114762283D01*
X117547645Y-114689765D01*
X117720803Y-114272756D01*
X117721197Y-113821225D01*
X117548767Y-113403914D01*
X117229765Y-113084355D01*
X116812756Y-112911197D01*
X116361225Y-112910803D01*
X115943914Y-113083233D01*
X115624355Y-113402235D01*
X115451197Y-113819244D01*
X115450803Y-114270775D01*
X115518641Y-114434954D01*
X115345225Y-114434803D01*
X115119373Y-114528123D01*
X115018250Y-114427000D01*
X113919000Y-114427000D01*
X113919000Y-114447000D01*
X113665000Y-114447000D01*
X113665000Y-114427000D01*
X112565750Y-114427000D01*
X112407000Y-114585750D01*
X112407000Y-114726310D01*
X112496806Y-114943122D01*
X112445569Y-115018110D01*
X112394560Y-115270000D01*
X112394560Y-115870000D01*
X112414282Y-115974813D01*
X112193794Y-116018671D01*
X111924485Y-116198618D01*
X111905382Y-116211382D01*
X111385382Y-116731382D01*
X111222471Y-116975195D01*
X111120342Y-116975106D01*
X110356618Y-116211382D01*
X110337515Y-116198618D01*
X110068206Y-116018671D01*
X109771293Y-115959612D01*
X109789440Y-115870000D01*
X109789440Y-115270000D01*
X109745162Y-115034683D01*
X109681322Y-114935472D01*
X109738431Y-114851890D01*
X109786953Y-114612283D01*
X110450341Y-113948895D01*
X110720436Y-114219461D01*
X111229298Y-114430759D01*
X111780285Y-114431240D01*
X112289515Y-114220831D01*
X112451689Y-114058939D01*
X112565750Y-114173000D01*
X113665000Y-114173000D01*
X113665000Y-114153000D01*
X113919000Y-114153000D01*
X113919000Y-114173000D01*
X115018250Y-114173000D01*
X115177000Y-114014250D01*
X115177000Y-113873690D01*
X115087194Y-113656878D01*
X115138431Y-113581890D01*
X115189440Y-113330000D01*
X115189440Y-112730000D01*
X115174199Y-112649000D01*
X117233764Y-112649000D01*
X117729000Y-113144236D01*
X117729000Y-113144236D01*
G37*
X117729000Y-113144236D02*
X117729000Y-119515110D01*
X117377225Y-119514803D01*
X116959914Y-119687233D01*
X116886018Y-119761000D01*
X115173037Y-119761000D01*
X115189440Y-119680000D01*
X115189440Y-119080000D01*
X115169718Y-118975187D01*
X115390206Y-118931329D01*
X115678618Y-118738618D01*
X117178454Y-117238782D01*
X117214618Y-117214618D01*
X117407329Y-116926206D01*
X117475000Y-116586000D01*
X117475000Y-114762283D01*
X117547645Y-114689765D01*
X117720803Y-114272756D01*
X117721197Y-113821225D01*
X117548767Y-113403914D01*
X117229765Y-113084355D01*
X116812756Y-112911197D01*
X116361225Y-112910803D01*
X115943914Y-113083233D01*
X115624355Y-113402235D01*
X115451197Y-113819244D01*
X115450803Y-114270775D01*
X115518641Y-114434954D01*
X115345225Y-114434803D01*
X115119373Y-114528123D01*
X115018250Y-114427000D01*
X113919000Y-114427000D01*
X113919000Y-114447000D01*
X113665000Y-114447000D01*
X113665000Y-114427000D01*
X112565750Y-114427000D01*
X112407000Y-114585750D01*
X112407000Y-114726310D01*
X112496806Y-114943122D01*
X112445569Y-115018110D01*
X112394560Y-115270000D01*
X112394560Y-115870000D01*
X112414282Y-115974813D01*
X112193794Y-116018671D01*
X111924485Y-116198618D01*
X111905382Y-116211382D01*
X111385382Y-116731382D01*
X111222471Y-116975195D01*
X111120342Y-116975106D01*
X110356618Y-116211382D01*
X110337515Y-116198618D01*
X110068206Y-116018671D01*
X109771293Y-115959612D01*
X109789440Y-115870000D01*
X109789440Y-115270000D01*
X109745162Y-115034683D01*
X109681322Y-114935472D01*
X109738431Y-114851890D01*
X109786953Y-114612283D01*
X110450341Y-113948895D01*
X110720436Y-114219461D01*
X111229298Y-114430759D01*
X111780285Y-114431240D01*
X112289515Y-114220831D01*
X112451689Y-114058939D01*
X112565750Y-114173000D01*
X113665000Y-114173000D01*
X113665000Y-114153000D01*
X113919000Y-114153000D01*
X113919000Y-114173000D01*
X115018250Y-114173000D01*
X115177000Y-114014250D01*
X115177000Y-113873690D01*
X115087194Y-113656878D01*
X115138431Y-113581890D01*
X115189440Y-113330000D01*
X115189440Y-112730000D01*
X115174199Y-112649000D01*
X117233764Y-112649000D01*
X117729000Y-113144236D01*
M02*
