M48
METRIC,TZ
T1C0.500
T2C0.600
T3C0.800
T4C1.000
T5C1.016
T6C2.500
%
G90
G05
T1
X94328Y-129413
X95758Y-126746
X95758Y-128270
X96774Y-125730
X97536Y-124714
X97790Y-128016
X99728Y-129413
X99822Y-115570
X101600Y-145542
X102362Y-130556
X103013Y-125365
X103124Y-121666
X104648Y-147320
X105330Y-124176
X105918Y-125222
X107950Y-146050
X109728Y-119380
X110998Y-118110
X113229Y-123222
X115570Y-115570
X115824Y-149606
X116586Y-114046
X116586Y-123952
X117348Y-135128
X117602Y-120650
X118618Y-135128
X119634Y-120650
X119634Y-123952
X120864Y-133390
X126238Y-147066
X128016Y-139954
X130302Y-130048
T2
X114300Y-133858
T3
X86614Y-115062
X86868Y-137034
X86868Y-152274
X89408Y-137034
X89408Y-152274
X90678Y-133858
X91948Y-137034
X91948Y-152274
X92554Y-131953
X94488Y-137034
X94488Y-152274
X97028Y-137034
X97028Y-152274
X97094Y-141085
X97094Y-147508
X98298Y-121633
X99568Y-137034
X99568Y-152274
X100838Y-141986
X102108Y-137034
X102108Y-152274
X103571Y-141656
X104648Y-137034
X104648Y-152274
X107188Y-137034
X107188Y-152274
X107744Y-141656
X108392Y-113030
X108392Y-121920
X109728Y-137034
X109728Y-152274
X111506Y-113046
X111506Y-115046
X112268Y-137034
X112268Y-152274
X113506Y-142755
X114808Y-137034
X114808Y-152274
X117178Y-142306
X117348Y-137034
X117348Y-152274
X119888Y-137034
X119888Y-152274
X122428Y-137034
X122428Y-152274
X124968Y-137034
X124968Y-152274
X127508Y-137034
X127508Y-152274
T4
X84582Y-157480
X87122Y-157480
X89662Y-157480
X92202Y-157480
X94742Y-157480
X97282Y-157480
X99822Y-157480
X102362Y-157480
X104902Y-157480
X107442Y-157480
X109982Y-157480
X112522Y-157480
X115062Y-157480
X117602Y-157480
X120142Y-157480
X122682Y-157480
T5
X102108Y-148336
X107188Y-148336
X110998Y-126746
X110998Y-129286
X113538Y-126746
X113538Y-129286
X116078Y-126746
X116078Y-129286
X118618Y-126746
X118618Y-129286
X121158Y-126746
X121158Y-129286
X123698Y-126746
X123698Y-129286
X125984Y-154940
X126238Y-126746
X126238Y-129286
X127508Y-134112
X128778Y-126746
X128778Y-129286
T6
X36982Y-102980
X36982Y-157980
X129982Y-102980
X129982Y-157980
T0
M30
