G04 #@! TF.FileFunction,Legend,Top*
%FSLAX46Y46*%
G04 Gerber Fmt 4.6, Leading zero omitted, Abs format (unit mm)*
G04 Created by KiCad (PCBNEW 4.0.1-3.201512221402+6198~38~ubuntu14.04.1-stable) date Wed 06 Jan 2016 15:47:40 GMT*
%MOMM*%
G01*
G04 APERTURE LIST*
%ADD10C,0.100000*%
%ADD11C,0.120000*%
%ADD12C,0.150000*%
%ADD13C,0.350000*%
%ADD14C,0.110000*%
G04 APERTURE END LIST*
D10*
D11*
X128833714Y-134564381D02*
X128833714Y-133564381D01*
X129071809Y-133564381D01*
X129214667Y-133612000D01*
X129309905Y-133707238D01*
X129357524Y-133802476D01*
X129405143Y-133992952D01*
X129405143Y-134135810D01*
X129357524Y-134326286D01*
X129309905Y-134421524D01*
X129214667Y-134516762D01*
X129071809Y-134564381D01*
X128833714Y-134564381D01*
X130357524Y-134564381D02*
X129786095Y-134564381D01*
X130071809Y-134564381D02*
X130071809Y-133564381D01*
X129976571Y-133707238D01*
X129881333Y-133802476D01*
X129786095Y-133850095D01*
X130738476Y-133659619D02*
X130786095Y-133612000D01*
X130881333Y-133564381D01*
X131119429Y-133564381D01*
X131214667Y-133612000D01*
X131262286Y-133659619D01*
X131309905Y-133754857D01*
X131309905Y-133850095D01*
X131262286Y-133992952D01*
X130690857Y-134564381D01*
X131309905Y-134564381D01*
X127563714Y-155392381D02*
X127563714Y-154392381D01*
X127801809Y-154392381D01*
X127944667Y-154440000D01*
X128039905Y-154535238D01*
X128087524Y-154630476D01*
X128135143Y-154820952D01*
X128135143Y-154963810D01*
X128087524Y-155154286D01*
X128039905Y-155249524D01*
X127944667Y-155344762D01*
X127801809Y-155392381D01*
X127563714Y-155392381D01*
X129087524Y-155392381D02*
X128516095Y-155392381D01*
X128801809Y-155392381D02*
X128801809Y-154392381D01*
X128706571Y-154535238D01*
X128611333Y-154630476D01*
X128516095Y-154678095D01*
X129420857Y-154392381D02*
X130039905Y-154392381D01*
X129706571Y-154773333D01*
X129849429Y-154773333D01*
X129944667Y-154820952D01*
X129992286Y-154868571D01*
X130039905Y-154963810D01*
X130039905Y-155201905D01*
X129992286Y-155297143D01*
X129944667Y-155344762D01*
X129849429Y-155392381D01*
X129563714Y-155392381D01*
X129468476Y-155344762D01*
X129420857Y-155297143D01*
X83138760Y-112214381D02*
X83138760Y-111214381D01*
X83472094Y-111928667D01*
X83805427Y-111214381D01*
X83805427Y-112214381D01*
X84281617Y-112214381D02*
X84281617Y-111547714D01*
X84281617Y-111214381D02*
X84233998Y-111262000D01*
X84281617Y-111309619D01*
X84329236Y-111262000D01*
X84281617Y-111214381D01*
X84281617Y-111309619D01*
X85186379Y-112166762D02*
X85091141Y-112214381D01*
X84900664Y-112214381D01*
X84805426Y-112166762D01*
X84757807Y-112119143D01*
X84710188Y-112023905D01*
X84710188Y-111738190D01*
X84757807Y-111642952D01*
X84805426Y-111595333D01*
X84900664Y-111547714D01*
X85091141Y-111547714D01*
X85186379Y-111595333D01*
X85614950Y-112214381D02*
X85614950Y-111547714D01*
X85614950Y-111738190D02*
X85662569Y-111642952D01*
X85710188Y-111595333D01*
X85805426Y-111547714D01*
X85900665Y-111547714D01*
X86376855Y-112214381D02*
X86281617Y-112166762D01*
X86233998Y-112119143D01*
X86186379Y-112023905D01*
X86186379Y-111738190D01*
X86233998Y-111642952D01*
X86281617Y-111595333D01*
X86376855Y-111547714D01*
X86519713Y-111547714D01*
X86614951Y-111595333D01*
X86662570Y-111642952D01*
X86710189Y-111738190D01*
X86710189Y-112023905D01*
X86662570Y-112119143D01*
X86614951Y-112166762D01*
X86519713Y-112214381D01*
X86376855Y-112214381D01*
X87472094Y-111690571D02*
X87138760Y-111690571D01*
X87138760Y-112214381D02*
X87138760Y-111214381D01*
X87614951Y-111214381D01*
X88472094Y-112214381D02*
X87995903Y-112214381D01*
X87995903Y-111214381D01*
X88805427Y-112214381D02*
X88805427Y-111547714D01*
X88805427Y-111214381D02*
X88757808Y-111262000D01*
X88805427Y-111309619D01*
X88853046Y-111262000D01*
X88805427Y-111214381D01*
X88805427Y-111309619D01*
X89853046Y-112119143D02*
X89805427Y-112166762D01*
X89662570Y-112214381D01*
X89567332Y-112214381D01*
X89424474Y-112166762D01*
X89329236Y-112071524D01*
X89281617Y-111976286D01*
X89233998Y-111785810D01*
X89233998Y-111642952D01*
X89281617Y-111452476D01*
X89329236Y-111357238D01*
X89424474Y-111262000D01*
X89567332Y-111214381D01*
X89662570Y-111214381D01*
X89805427Y-111262000D01*
X89853046Y-111309619D01*
X91519713Y-112214381D02*
X91043522Y-112214381D01*
X91043522Y-111214381D01*
X92424475Y-112119143D02*
X92376856Y-112166762D01*
X92233999Y-112214381D01*
X92138761Y-112214381D01*
X91995903Y-112166762D01*
X91900665Y-112071524D01*
X91853046Y-111976286D01*
X91805427Y-111785810D01*
X91805427Y-111642952D01*
X91853046Y-111452476D01*
X91900665Y-111357238D01*
X91995903Y-111262000D01*
X92138761Y-111214381D01*
X92233999Y-111214381D01*
X92376856Y-111262000D01*
X92424475Y-111309619D01*
X92853046Y-112214381D02*
X92853046Y-111214381D01*
X93091141Y-111214381D01*
X93233999Y-111262000D01*
X93329237Y-111357238D01*
X93376856Y-111452476D01*
X93424475Y-111642952D01*
X93424475Y-111785810D01*
X93376856Y-111976286D01*
X93329237Y-112071524D01*
X93233999Y-112166762D01*
X93091141Y-112214381D01*
X92853046Y-112214381D01*
X95043523Y-112166762D02*
X94948285Y-112214381D01*
X94757808Y-112214381D01*
X94662570Y-112166762D01*
X94614951Y-112119143D01*
X94567332Y-112023905D01*
X94567332Y-111738190D01*
X94614951Y-111642952D01*
X94662570Y-111595333D01*
X94757808Y-111547714D01*
X94948285Y-111547714D01*
X95043523Y-111595333D01*
X95614951Y-112214381D02*
X95519713Y-112166762D01*
X95472094Y-112119143D01*
X95424475Y-112023905D01*
X95424475Y-111738190D01*
X95472094Y-111642952D01*
X95519713Y-111595333D01*
X95614951Y-111547714D01*
X95757809Y-111547714D01*
X95853047Y-111595333D01*
X95900666Y-111642952D01*
X95948285Y-111738190D01*
X95948285Y-112023905D01*
X95900666Y-112119143D01*
X95853047Y-112166762D01*
X95757809Y-112214381D01*
X95614951Y-112214381D01*
X96376856Y-111547714D02*
X96376856Y-112214381D01*
X96376856Y-111642952D02*
X96424475Y-111595333D01*
X96519713Y-111547714D01*
X96662571Y-111547714D01*
X96757809Y-111595333D01*
X96805428Y-111690571D01*
X96805428Y-112214381D01*
X97138761Y-111547714D02*
X97519713Y-111547714D01*
X97281618Y-111214381D02*
X97281618Y-112071524D01*
X97329237Y-112166762D01*
X97424475Y-112214381D01*
X97519713Y-112214381D01*
X97853047Y-112214381D02*
X97853047Y-111547714D01*
X97853047Y-111738190D02*
X97900666Y-111642952D01*
X97948285Y-111595333D01*
X98043523Y-111547714D01*
X98138762Y-111547714D01*
X98614952Y-112214381D02*
X98519714Y-112166762D01*
X98472095Y-112119143D01*
X98424476Y-112023905D01*
X98424476Y-111738190D01*
X98472095Y-111642952D01*
X98519714Y-111595333D01*
X98614952Y-111547714D01*
X98757810Y-111547714D01*
X98853048Y-111595333D01*
X98900667Y-111642952D01*
X98948286Y-111738190D01*
X98948286Y-112023905D01*
X98900667Y-112119143D01*
X98853048Y-112166762D01*
X98757810Y-112214381D01*
X98614952Y-112214381D01*
X99519714Y-112214381D02*
X99424476Y-112166762D01*
X99376857Y-112071524D01*
X99376857Y-111214381D01*
X100043524Y-112214381D02*
X99948286Y-112166762D01*
X99900667Y-112071524D01*
X99900667Y-111214381D01*
X100805430Y-112166762D02*
X100710192Y-112214381D01*
X100519715Y-112214381D01*
X100424477Y-112166762D01*
X100376858Y-112071524D01*
X100376858Y-111690571D01*
X100424477Y-111595333D01*
X100519715Y-111547714D01*
X100710192Y-111547714D01*
X100805430Y-111595333D01*
X100853049Y-111690571D01*
X100853049Y-111785810D01*
X100376858Y-111881048D01*
X101281620Y-112214381D02*
X101281620Y-111547714D01*
X101281620Y-111738190D02*
X101329239Y-111642952D01*
X101376858Y-111595333D01*
X101472096Y-111547714D01*
X101567335Y-111547714D01*
X102567335Y-111547714D02*
X102805430Y-112214381D01*
X103043526Y-111547714D01*
X103948288Y-112214381D02*
X103376859Y-112214381D01*
X103662573Y-112214381D02*
X103662573Y-111214381D01*
X103567335Y-111357238D01*
X103472097Y-111452476D01*
X103376859Y-111500095D01*
X104376859Y-112119143D02*
X104424478Y-112166762D01*
X104376859Y-112214381D01*
X104329240Y-112166762D01*
X104376859Y-112119143D01*
X104376859Y-112214381D01*
X105043525Y-111214381D02*
X105138764Y-111214381D01*
X105234002Y-111262000D01*
X105281621Y-111309619D01*
X105329240Y-111404857D01*
X105376859Y-111595333D01*
X105376859Y-111833429D01*
X105329240Y-112023905D01*
X105281621Y-112119143D01*
X105234002Y-112166762D01*
X105138764Y-112214381D01*
X105043525Y-112214381D01*
X104948287Y-112166762D01*
X104900668Y-112119143D01*
X104853049Y-112023905D01*
X104805430Y-111833429D01*
X104805430Y-111595333D01*
X104853049Y-111404857D01*
X104900668Y-111309619D01*
X104948287Y-111262000D01*
X105043525Y-111214381D01*
X87376857Y-112734381D02*
X87376857Y-113448667D01*
X87329237Y-113591524D01*
X87233999Y-113686762D01*
X87091142Y-113734381D01*
X86995904Y-113734381D01*
X88281619Y-113734381D02*
X88281619Y-113210571D01*
X88234000Y-113115333D01*
X88138762Y-113067714D01*
X87948285Y-113067714D01*
X87853047Y-113115333D01*
X88281619Y-113686762D02*
X88186381Y-113734381D01*
X87948285Y-113734381D01*
X87853047Y-113686762D01*
X87805428Y-113591524D01*
X87805428Y-113496286D01*
X87853047Y-113401048D01*
X87948285Y-113353429D01*
X88186381Y-113353429D01*
X88281619Y-113305810D01*
X88757809Y-113734381D02*
X88757809Y-112734381D01*
X88853047Y-113353429D02*
X89138762Y-113734381D01*
X89138762Y-113067714D02*
X88757809Y-113448667D01*
X89995905Y-113067714D02*
X89995905Y-113734381D01*
X89567333Y-113067714D02*
X89567333Y-113591524D01*
X89614952Y-113686762D01*
X89710190Y-113734381D01*
X89853048Y-113734381D01*
X89948286Y-113686762D01*
X89995905Y-113639143D01*
X90472095Y-113734381D02*
X90472095Y-112734381D01*
X90472095Y-113115333D02*
X90567333Y-113067714D01*
X90757810Y-113067714D01*
X90853048Y-113115333D01*
X90900667Y-113162952D01*
X90948286Y-113258190D01*
X90948286Y-113543905D01*
X90900667Y-113639143D01*
X90853048Y-113686762D01*
X90757810Y-113734381D01*
X90567333Y-113734381D01*
X90472095Y-113686762D01*
X92138762Y-113734381D02*
X92138762Y-112734381D01*
X92710191Y-113734381D01*
X92710191Y-112734381D01*
X93567334Y-113686762D02*
X93472096Y-113734381D01*
X93281619Y-113734381D01*
X93186381Y-113686762D01*
X93138762Y-113591524D01*
X93138762Y-113210571D01*
X93186381Y-113115333D01*
X93281619Y-113067714D01*
X93472096Y-113067714D01*
X93567334Y-113115333D01*
X93614953Y-113210571D01*
X93614953Y-113305810D01*
X93138762Y-113401048D01*
X94472096Y-113734381D02*
X94472096Y-112734381D01*
X94472096Y-113686762D02*
X94376858Y-113734381D01*
X94186381Y-113734381D01*
X94091143Y-113686762D01*
X94043524Y-113639143D01*
X93995905Y-113543905D01*
X93995905Y-113258190D01*
X94043524Y-113162952D01*
X94091143Y-113115333D01*
X94186381Y-113067714D01*
X94376858Y-113067714D01*
X94472096Y-113115333D01*
X94948286Y-113734381D02*
X94948286Y-112734381D01*
X94948286Y-113115333D02*
X95043524Y-113067714D01*
X95234001Y-113067714D01*
X95329239Y-113115333D01*
X95376858Y-113162952D01*
X95424477Y-113258190D01*
X95424477Y-113543905D01*
X95376858Y-113639143D01*
X95329239Y-113686762D01*
X95234001Y-113734381D01*
X95043524Y-113734381D01*
X94948286Y-113686762D01*
X96281620Y-113734381D02*
X96281620Y-113210571D01*
X96234001Y-113115333D01*
X96138763Y-113067714D01*
X95948286Y-113067714D01*
X95853048Y-113115333D01*
X96281620Y-113686762D02*
X96186382Y-113734381D01*
X95948286Y-113734381D01*
X95853048Y-113686762D01*
X95805429Y-113591524D01*
X95805429Y-113496286D01*
X95853048Y-113401048D01*
X95948286Y-113353429D01*
X96186382Y-113353429D01*
X96281620Y-113305810D01*
X96900667Y-113734381D02*
X96805429Y-113686762D01*
X96757810Y-113591524D01*
X96757810Y-112734381D01*
X97995906Y-112829619D02*
X98043525Y-112782000D01*
X98138763Y-112734381D01*
X98376859Y-112734381D01*
X98472097Y-112782000D01*
X98519716Y-112829619D01*
X98567335Y-112924857D01*
X98567335Y-113020095D01*
X98519716Y-113162952D01*
X97948287Y-113734381D01*
X98567335Y-113734381D01*
X99186382Y-112734381D02*
X99281621Y-112734381D01*
X99376859Y-112782000D01*
X99424478Y-112829619D01*
X99472097Y-112924857D01*
X99519716Y-113115333D01*
X99519716Y-113353429D01*
X99472097Y-113543905D01*
X99424478Y-113639143D01*
X99376859Y-113686762D01*
X99281621Y-113734381D01*
X99186382Y-113734381D01*
X99091144Y-113686762D01*
X99043525Y-113639143D01*
X98995906Y-113543905D01*
X98948287Y-113353429D01*
X98948287Y-113115333D01*
X98995906Y-112924857D01*
X99043525Y-112829619D01*
X99091144Y-112782000D01*
X99186382Y-112734381D01*
X100472097Y-113734381D02*
X99900668Y-113734381D01*
X100186382Y-113734381D02*
X100186382Y-112734381D01*
X100091144Y-112877238D01*
X99995906Y-112972476D01*
X99900668Y-113020095D01*
X101376859Y-112734381D02*
X100900668Y-112734381D01*
X100853049Y-113210571D01*
X100900668Y-113162952D01*
X100995906Y-113115333D01*
X101234002Y-113115333D01*
X101329240Y-113162952D01*
X101376859Y-113210571D01*
X101424478Y-113305810D01*
X101424478Y-113543905D01*
X101376859Y-113639143D01*
X101329240Y-113686762D01*
X101234002Y-113734381D01*
X100995906Y-113734381D01*
X100900668Y-113686762D01*
X100853049Y-113639143D01*
X105116571Y-150820381D02*
X105116571Y-149820381D01*
X105354666Y-149820381D01*
X105497524Y-149868000D01*
X105592762Y-149963238D01*
X105640381Y-150058476D01*
X105688000Y-150248952D01*
X105688000Y-150391810D01*
X105640381Y-150582286D01*
X105592762Y-150677524D01*
X105497524Y-150772762D01*
X105354666Y-150820381D01*
X105116571Y-150820381D01*
X106068952Y-150534667D02*
X106545143Y-150534667D01*
X105973714Y-150820381D02*
X106307047Y-149820381D01*
X106640381Y-150820381D01*
X107545143Y-150725143D02*
X107497524Y-150772762D01*
X107354667Y-150820381D01*
X107259429Y-150820381D01*
X107116571Y-150772762D01*
X107021333Y-150677524D01*
X106973714Y-150582286D01*
X106926095Y-150391810D01*
X106926095Y-150248952D01*
X106973714Y-150058476D01*
X107021333Y-149963238D01*
X107116571Y-149868000D01*
X107259429Y-149820381D01*
X107354667Y-149820381D01*
X107497524Y-149868000D01*
X107545143Y-149915619D01*
X107735619Y-150915619D02*
X108497524Y-150915619D01*
X109307048Y-150725143D02*
X109259429Y-150772762D01*
X109116572Y-150820381D01*
X109021334Y-150820381D01*
X108878476Y-150772762D01*
X108783238Y-150677524D01*
X108735619Y-150582286D01*
X108688000Y-150391810D01*
X108688000Y-150248952D01*
X108735619Y-150058476D01*
X108783238Y-149963238D01*
X108878476Y-149868000D01*
X109021334Y-149820381D01*
X109116572Y-149820381D01*
X109259429Y-149868000D01*
X109307048Y-149915619D01*
X100036571Y-150820381D02*
X100036571Y-149820381D01*
X100274666Y-149820381D01*
X100417524Y-149868000D01*
X100512762Y-149963238D01*
X100560381Y-150058476D01*
X100608000Y-150248952D01*
X100608000Y-150391810D01*
X100560381Y-150582286D01*
X100512762Y-150677524D01*
X100417524Y-150772762D01*
X100274666Y-150820381D01*
X100036571Y-150820381D01*
X100988952Y-150534667D02*
X101465143Y-150534667D01*
X100893714Y-150820381D02*
X101227047Y-149820381D01*
X101560381Y-150820381D01*
X102465143Y-150725143D02*
X102417524Y-150772762D01*
X102274667Y-150820381D01*
X102179429Y-150820381D01*
X102036571Y-150772762D01*
X101941333Y-150677524D01*
X101893714Y-150582286D01*
X101846095Y-150391810D01*
X101846095Y-150248952D01*
X101893714Y-150058476D01*
X101941333Y-149963238D01*
X102036571Y-149868000D01*
X102179429Y-149820381D01*
X102274667Y-149820381D01*
X102417524Y-149868000D01*
X102465143Y-149915619D01*
X102655619Y-150915619D02*
X103417524Y-150915619D01*
X103655619Y-150820381D02*
X103655619Y-149820381D01*
X103893714Y-149820381D01*
X104036572Y-149868000D01*
X104131810Y-149963238D01*
X104179429Y-150058476D01*
X104227048Y-150248952D01*
X104227048Y-150391810D01*
X104179429Y-150582286D01*
X104131810Y-150677524D01*
X104036572Y-150772762D01*
X103893714Y-150820381D01*
X103655619Y-150820381D01*
D12*
X111619000Y-143672000D02*
X111619000Y-144872000D01*
X109869000Y-144872000D02*
X109869000Y-143672000D01*
X115412000Y-145429000D02*
X116612000Y-145429000D01*
X116612000Y-147179000D02*
X115412000Y-147179000D01*
X113905000Y-143672000D02*
X113905000Y-144872000D01*
X112155000Y-144872000D02*
X112155000Y-143672000D01*
X103989000Y-141581000D02*
X103989000Y-141881000D01*
X107339000Y-141581000D02*
X107339000Y-141881000D01*
X107339000Y-144931000D02*
X107339000Y-144631000D01*
X103989000Y-144931000D02*
X103989000Y-144631000D01*
X103989000Y-141581000D02*
X107339000Y-141581000D01*
X103989000Y-144931000D02*
X107339000Y-144931000D01*
X103989000Y-141881000D02*
X102764000Y-141881000D01*
X115878000Y-141556000D02*
G75*
G03X115878000Y-141556000I-100000J0D01*
G01*
X116328000Y-141806000D02*
X115828000Y-141806000D01*
X116328000Y-144706000D02*
X116328000Y-141806000D01*
X115828000Y-144706000D02*
X116328000Y-144706000D01*
X115828000Y-141806000D02*
X115828000Y-144706000D01*
X125760480Y-144901920D02*
X125460760Y-144653000D01*
X125460760Y-144653000D02*
X125310900Y-144551400D01*
X125310900Y-144551400D02*
X126159260Y-144551400D01*
X124259340Y-145252440D02*
X126060200Y-145252440D01*
X124259340Y-145252440D02*
X124259340Y-144602200D01*
X124259340Y-140751560D02*
X126060200Y-140751560D01*
X124259340Y-140751560D02*
X124259340Y-141401800D01*
X92798000Y-123166000D02*
X92798000Y-122166000D01*
X91098000Y-122166000D02*
X91098000Y-123166000D01*
X109017000Y-112400000D02*
X109017000Y-112505000D01*
X113167000Y-112400000D02*
X113167000Y-112505000D01*
X113167000Y-122550000D02*
X113167000Y-122445000D01*
X109017000Y-122550000D02*
X109017000Y-122445000D01*
X109017000Y-112400000D02*
X113167000Y-112400000D01*
X109017000Y-122550000D02*
X113167000Y-122550000D01*
X109017000Y-112505000D02*
X107642000Y-112505000D01*
X94953000Y-122433000D02*
X94953000Y-122538000D01*
X99103000Y-122433000D02*
X99103000Y-122538000D01*
X99103000Y-132583000D02*
X99103000Y-132478000D01*
X94953000Y-132583000D02*
X94953000Y-132478000D01*
X94953000Y-122433000D02*
X99103000Y-122433000D01*
X94953000Y-132583000D02*
X99103000Y-132583000D01*
X94953000Y-122538000D02*
X93578000Y-122538000D01*
D13*
X123182000Y-157480000D02*
G75*
G03X123182000Y-157480000I-500000J0D01*
G01*
X34482000Y-100480000D02*
X132482000Y-100480000D01*
X132482000Y-160480000D02*
X132482000Y-100480000D01*
X34482000Y-160480000D02*
X132482000Y-160480000D01*
X34482000Y-100480000D02*
X34482000Y-160480000D01*
D14*
X110627334Y-142556667D02*
X110394000Y-142223333D01*
X110227334Y-142556667D02*
X110227334Y-141856667D01*
X110494000Y-141856667D01*
X110560667Y-141890000D01*
X110594000Y-141923333D01*
X110627334Y-141990000D01*
X110627334Y-142090000D01*
X110594000Y-142156667D01*
X110560667Y-142190000D01*
X110494000Y-142223333D01*
X110227334Y-142223333D01*
X111294000Y-142556667D02*
X110894000Y-142556667D01*
X111094000Y-142556667D02*
X111094000Y-141856667D01*
X111027334Y-141956667D01*
X110960667Y-142023333D01*
X110894000Y-142056667D01*
X115895334Y-148144667D02*
X115662000Y-147811333D01*
X115495334Y-148144667D02*
X115495334Y-147444667D01*
X115762000Y-147444667D01*
X115828667Y-147478000D01*
X115862000Y-147511333D01*
X115895334Y-147578000D01*
X115895334Y-147678000D01*
X115862000Y-147744667D01*
X115828667Y-147778000D01*
X115762000Y-147811333D01*
X115495334Y-147811333D01*
X116162000Y-147511333D02*
X116195334Y-147478000D01*
X116262000Y-147444667D01*
X116428667Y-147444667D01*
X116495334Y-147478000D01*
X116528667Y-147511333D01*
X116562000Y-147578000D01*
X116562000Y-147644667D01*
X116528667Y-147744667D01*
X116128667Y-148144667D01*
X116562000Y-148144667D01*
X112913334Y-141794667D02*
X112680000Y-141461333D01*
X112513334Y-141794667D02*
X112513334Y-141094667D01*
X112780000Y-141094667D01*
X112846667Y-141128000D01*
X112880000Y-141161333D01*
X112913334Y-141228000D01*
X112913334Y-141328000D01*
X112880000Y-141394667D01*
X112846667Y-141428000D01*
X112780000Y-141461333D01*
X112513334Y-141461333D01*
X113146667Y-141094667D02*
X113580000Y-141094667D01*
X113346667Y-141361333D01*
X113446667Y-141361333D01*
X113513334Y-141394667D01*
X113546667Y-141428000D01*
X113580000Y-141494667D01*
X113580000Y-141661333D01*
X113546667Y-141728000D01*
X113513334Y-141761333D01*
X113446667Y-141794667D01*
X113246667Y-141794667D01*
X113180000Y-141761333D01*
X113146667Y-141728000D01*
X105130667Y-140332667D02*
X105130667Y-140899333D01*
X105164000Y-140966000D01*
X105197333Y-140999333D01*
X105264000Y-141032667D01*
X105397333Y-141032667D01*
X105464000Y-140999333D01*
X105497333Y-140966000D01*
X105530667Y-140899333D01*
X105530667Y-140332667D01*
X106230666Y-141032667D02*
X105830666Y-141032667D01*
X106030666Y-141032667D02*
X106030666Y-140332667D01*
X105964000Y-140432667D01*
X105897333Y-140499333D01*
X105830666Y-140532667D01*
X115494667Y-140322667D02*
X115494667Y-140889333D01*
X115528000Y-140956000D01*
X115561333Y-140989333D01*
X115628000Y-141022667D01*
X115761333Y-141022667D01*
X115828000Y-140989333D01*
X115861333Y-140956000D01*
X115894667Y-140889333D01*
X115894667Y-140322667D01*
X116194666Y-140389333D02*
X116228000Y-140356000D01*
X116294666Y-140322667D01*
X116461333Y-140322667D01*
X116528000Y-140356000D01*
X116561333Y-140389333D01*
X116594666Y-140456000D01*
X116594666Y-140522667D01*
X116561333Y-140622667D01*
X116161333Y-141022667D01*
X116594666Y-141022667D01*
X125409333Y-140591333D02*
X125342667Y-140558000D01*
X125276000Y-140491333D01*
X125176000Y-140391333D01*
X125109333Y-140358000D01*
X125042667Y-140358000D01*
X125076000Y-140524667D02*
X125009333Y-140491333D01*
X124942667Y-140424667D01*
X124909333Y-140291333D01*
X124909333Y-140058000D01*
X124942667Y-139924667D01*
X125009333Y-139858000D01*
X125076000Y-139824667D01*
X125209333Y-139824667D01*
X125276000Y-139858000D01*
X125342667Y-139924667D01*
X125376000Y-140058000D01*
X125376000Y-140291333D01*
X125342667Y-140424667D01*
X125276000Y-140491333D01*
X125209333Y-140524667D01*
X125076000Y-140524667D01*
X126042666Y-140524667D02*
X125642666Y-140524667D01*
X125842666Y-140524667D02*
X125842666Y-139824667D01*
X125776000Y-139924667D01*
X125709333Y-139991333D01*
X125642666Y-140024667D01*
X90674000Y-122782666D02*
X90707333Y-122816000D01*
X90740667Y-122916000D01*
X90740667Y-122982666D01*
X90707333Y-123082666D01*
X90640667Y-123149333D01*
X90574000Y-123182666D01*
X90440667Y-123216000D01*
X90340667Y-123216000D01*
X90207333Y-123182666D01*
X90140667Y-123149333D01*
X90074000Y-123082666D01*
X90040667Y-122982666D01*
X90040667Y-122916000D01*
X90074000Y-122816000D01*
X90107333Y-122782666D01*
X90040667Y-122149333D02*
X90040667Y-122482666D01*
X90374000Y-122516000D01*
X90340667Y-122482666D01*
X90307333Y-122416000D01*
X90307333Y-122249333D01*
X90340667Y-122182666D01*
X90374000Y-122149333D01*
X90440667Y-122116000D01*
X90607333Y-122116000D01*
X90674000Y-122149333D01*
X90707333Y-122182666D01*
X90740667Y-122249333D01*
X90740667Y-122416000D01*
X90707333Y-122482666D01*
X90674000Y-122516000D01*
X110558667Y-111091667D02*
X110558667Y-111658333D01*
X110592000Y-111725000D01*
X110625333Y-111758333D01*
X110692000Y-111791667D01*
X110825333Y-111791667D01*
X110892000Y-111758333D01*
X110925333Y-111725000D01*
X110958667Y-111658333D01*
X110958667Y-111091667D01*
X111225333Y-111091667D02*
X111658666Y-111091667D01*
X111425333Y-111358333D01*
X111525333Y-111358333D01*
X111592000Y-111391667D01*
X111625333Y-111425000D01*
X111658666Y-111491667D01*
X111658666Y-111658333D01*
X111625333Y-111725000D01*
X111592000Y-111758333D01*
X111525333Y-111791667D01*
X111325333Y-111791667D01*
X111258666Y-111758333D01*
X111225333Y-111725000D01*
X96494667Y-121124667D02*
X96494667Y-121691333D01*
X96528000Y-121758000D01*
X96561333Y-121791333D01*
X96628000Y-121824667D01*
X96761333Y-121824667D01*
X96828000Y-121791333D01*
X96861333Y-121758000D01*
X96894667Y-121691333D01*
X96894667Y-121124667D01*
X97528000Y-121358000D02*
X97528000Y-121824667D01*
X97361333Y-121091333D02*
X97194666Y-121591333D01*
X97628000Y-121591333D01*
X124405333Y-157796667D02*
X124072000Y-157796667D01*
X124072000Y-157096667D01*
X125038667Y-157730000D02*
X125005333Y-157763333D01*
X124905333Y-157796667D01*
X124838667Y-157796667D01*
X124738667Y-157763333D01*
X124672000Y-157696667D01*
X124638667Y-157630000D01*
X124605333Y-157496667D01*
X124605333Y-157396667D01*
X124638667Y-157263333D01*
X124672000Y-157196667D01*
X124738667Y-157130000D01*
X124838667Y-157096667D01*
X124905333Y-157096667D01*
X125005333Y-157130000D01*
X125038667Y-157163333D01*
X125338667Y-157796667D02*
X125338667Y-157096667D01*
X125505333Y-157096667D01*
X125605333Y-157130000D01*
X125672000Y-157196667D01*
X125705333Y-157263333D01*
X125738667Y-157396667D01*
X125738667Y-157496667D01*
X125705333Y-157630000D01*
X125672000Y-157696667D01*
X125605333Y-157763333D01*
X125505333Y-157796667D01*
X125338667Y-157796667D01*
X126405333Y-157796667D02*
X126005333Y-157796667D01*
X126205333Y-157796667D02*
X126205333Y-157096667D01*
X126138667Y-157196667D01*
X126072000Y-157263333D01*
X126005333Y-157296667D01*
D12*
X122967715Y-155062381D02*
X122396286Y-155062381D01*
X122682000Y-155062381D02*
X122682000Y-154062381D01*
X122586762Y-154205238D01*
X122491524Y-154300476D01*
X122396286Y-154348095D01*
X84391524Y-155062381D02*
X83820095Y-155062381D01*
X84105809Y-155062381D02*
X84105809Y-154062381D01*
X84010571Y-154205238D01*
X83915333Y-154300476D01*
X83820095Y-154348095D01*
X85248667Y-154062381D02*
X85058190Y-154062381D01*
X84962952Y-154110000D01*
X84915333Y-154157619D01*
X84820095Y-154300476D01*
X84772476Y-154490952D01*
X84772476Y-154871905D01*
X84820095Y-154967143D01*
X84867714Y-155014762D01*
X84962952Y-155062381D01*
X85153429Y-155062381D01*
X85248667Y-155014762D01*
X85296286Y-154967143D01*
X85343905Y-154871905D01*
X85343905Y-154633810D01*
X85296286Y-154538571D01*
X85248667Y-154490952D01*
X85153429Y-154443333D01*
X84962952Y-154443333D01*
X84867714Y-154490952D01*
X84820095Y-154538571D01*
X84772476Y-154633810D01*
M02*
