G04 #@! TF.FileFunction,Legend,Bot*
%FSLAX46Y46*%
G04 Gerber Fmt 4.6, Leading zero omitted, Abs format (unit mm)*
G04 Created by KiCad (PCBNEW 4.0.1-3.201512221402+6198~38~ubuntu14.04.1-stable) date Wed 06 Jan 2016 15:47:40 GMT*
%MOMM*%
G01*
G04 APERTURE LIST*
%ADD10C,0.100000*%
%ADD11C,0.120000*%
%ADD12C,0.150000*%
%ADD13C,0.110000*%
G04 APERTURE END LIST*
D10*
X124825046Y-153904190D02*
X124515523Y-153904190D01*
X124682189Y-154094667D01*
X124610761Y-154094667D01*
X124563142Y-154118476D01*
X124539332Y-154142286D01*
X124515523Y-154189905D01*
X124515523Y-154308952D01*
X124539332Y-154356571D01*
X124563142Y-154380381D01*
X124610761Y-154404190D01*
X124753618Y-154404190D01*
X124801237Y-154380381D01*
X124825046Y-154356571D01*
X124372666Y-153904190D02*
X124205999Y-154404190D01*
X124039333Y-153904190D01*
X123920285Y-153904190D02*
X123610762Y-153904190D01*
X123777428Y-154094667D01*
X123706000Y-154094667D01*
X123658381Y-154118476D01*
X123634571Y-154142286D01*
X123610762Y-154189905D01*
X123610762Y-154308952D01*
X123634571Y-154356571D01*
X123658381Y-154380381D01*
X123706000Y-154404190D01*
X123848857Y-154404190D01*
X123896476Y-154380381D01*
X123920285Y-154356571D01*
X87741516Y-135432640D02*
X87912526Y-134962794D01*
X87800659Y-134922078D01*
X87725394Y-134920021D01*
X87664360Y-134948482D01*
X87625700Y-134985086D01*
X87570753Y-135066437D01*
X87546323Y-135133558D01*
X87536123Y-135231196D01*
X87542210Y-135284087D01*
X87570671Y-135345121D01*
X87629649Y-135391924D01*
X87741516Y-135432640D01*
X87448767Y-134844676D02*
X87434537Y-134814158D01*
X87397933Y-134775497D01*
X87286065Y-134734781D01*
X87233174Y-134740868D01*
X87202657Y-134755099D01*
X87163997Y-134791703D01*
X87147710Y-134836450D01*
X87145654Y-134911714D01*
X87316417Y-135277917D01*
X87025561Y-135172054D01*
X86919779Y-135184229D02*
X86561801Y-135053935D01*
X86413494Y-134417191D02*
X86637230Y-134498624D01*
X86578170Y-134730505D01*
X86563940Y-134699987D01*
X86527336Y-134661327D01*
X86415468Y-134620611D01*
X86362578Y-134626697D01*
X86332060Y-134640928D01*
X86293400Y-134677532D01*
X86252684Y-134789399D01*
X86258770Y-134842290D01*
X86273001Y-134872807D01*
X86309605Y-134911467D01*
X86421473Y-134952184D01*
X86474363Y-134946097D01*
X86504881Y-134931867D01*
X86256879Y-134360188D02*
X85929253Y-134773030D01*
X85943649Y-134246181D01*
X90281516Y-135432640D02*
X90452526Y-134962794D01*
X90340659Y-134922078D01*
X90265394Y-134920021D01*
X90204360Y-134948482D01*
X90165700Y-134985086D01*
X90110753Y-135066437D01*
X90086323Y-135133558D01*
X90076123Y-135231196D01*
X90082210Y-135284087D01*
X90110671Y-135345121D01*
X90169649Y-135391924D01*
X90281516Y-135432640D01*
X89893186Y-134759211D02*
X89848438Y-134742924D01*
X89795548Y-134749011D01*
X89765031Y-134763242D01*
X89726370Y-134799846D01*
X89671424Y-134881197D01*
X89630707Y-134993065D01*
X89620507Y-135090702D01*
X89626595Y-135143593D01*
X89640824Y-135174110D01*
X89677428Y-135212770D01*
X89722175Y-135229057D01*
X89775066Y-135222970D01*
X89805583Y-135208740D01*
X89844243Y-135172136D01*
X89899191Y-135090785D01*
X89939907Y-134978917D01*
X89950106Y-134881279D01*
X89944020Y-134828389D01*
X89929789Y-134797871D01*
X89893186Y-134759211D01*
X89459779Y-135184229D02*
X89101801Y-135053935D01*
X88953494Y-134417191D02*
X89177230Y-134498624D01*
X89118170Y-134730505D01*
X89103940Y-134699987D01*
X89067336Y-134661327D01*
X88955468Y-134620611D01*
X88902578Y-134626697D01*
X88872060Y-134640928D01*
X88833400Y-134677532D01*
X88792684Y-134789399D01*
X88798770Y-134842290D01*
X88813001Y-134872807D01*
X88849605Y-134911467D01*
X88961473Y-134952184D01*
X89014363Y-134946097D01*
X89044881Y-134931867D01*
X88796879Y-134360188D02*
X88469253Y-134773030D01*
X88483649Y-134246181D01*
X92328952Y-134600190D02*
X92043238Y-134600190D01*
X92186095Y-135100190D02*
X92186095Y-134600190D01*
X91924190Y-134600190D02*
X91590857Y-135100190D01*
X91590857Y-134600190D02*
X91924190Y-135100190D01*
X94571333Y-135100190D02*
X94738000Y-134862095D01*
X94857047Y-135100190D02*
X94857047Y-134600190D01*
X94666571Y-134600190D01*
X94618952Y-134624000D01*
X94595143Y-134647810D01*
X94571333Y-134695429D01*
X94571333Y-134766857D01*
X94595143Y-134814476D01*
X94618952Y-134838286D01*
X94666571Y-134862095D01*
X94857047Y-134862095D01*
X94404666Y-134600190D02*
X94071333Y-135100190D01*
X94071333Y-134600190D02*
X94404666Y-135100190D01*
X97812022Y-135400067D02*
X98050071Y-135233334D01*
X98080505Y-135497787D02*
X98251515Y-135027941D01*
X98072526Y-134962794D01*
X98019636Y-134968881D01*
X97989119Y-134983112D01*
X97950458Y-135019716D01*
X97926028Y-135086836D01*
X97932116Y-135139727D01*
X97946345Y-135170244D01*
X97982950Y-135208904D01*
X98161938Y-135274051D01*
X97641176Y-135312547D02*
X97565912Y-135310490D01*
X97454044Y-135269774D01*
X97417440Y-135231114D01*
X97403209Y-135200596D01*
X97397123Y-135147706D01*
X97413410Y-135102959D01*
X97452069Y-135066355D01*
X97482587Y-135052125D01*
X97535477Y-135046038D01*
X97633115Y-135056238D01*
X97686006Y-135050150D01*
X97716522Y-135035920D01*
X97755183Y-134999317D01*
X97771469Y-134954569D01*
X97765382Y-134901679D01*
X97751152Y-134871161D01*
X97714549Y-134832501D01*
X97602680Y-134791784D01*
X97527416Y-134789728D01*
X97401318Y-134718494D02*
X97132835Y-134620774D01*
X97096066Y-135139480D02*
X97267076Y-134669634D01*
X96900790Y-135119082D02*
X96542813Y-134988789D01*
X96394505Y-134352044D02*
X96618241Y-134433477D01*
X96559182Y-134665358D01*
X96544951Y-134634840D01*
X96508347Y-134596181D01*
X96396479Y-134555464D01*
X96343589Y-134561551D01*
X96313071Y-134575781D01*
X96274412Y-134612385D01*
X96233695Y-134724253D01*
X96239782Y-134777143D01*
X96254012Y-134807661D01*
X96290616Y-134846321D01*
X96402484Y-134887037D01*
X96455374Y-134880951D01*
X96485892Y-134866720D01*
X96237890Y-134295041D02*
X95910264Y-134707884D01*
X95924660Y-134181034D01*
X98392862Y-134987665D02*
X95909391Y-134083756D01*
X99948953Y-134624000D02*
X99996572Y-134600190D01*
X100068000Y-134600190D01*
X100139429Y-134624000D01*
X100187048Y-134671619D01*
X100210857Y-134719238D01*
X100234667Y-134814476D01*
X100234667Y-134885905D01*
X100210857Y-134981143D01*
X100187048Y-135028762D01*
X100139429Y-135076381D01*
X100068000Y-135100190D01*
X100020381Y-135100190D01*
X99948953Y-135076381D01*
X99925143Y-135052571D01*
X99925143Y-134885905D01*
X100020381Y-134885905D01*
X99710857Y-135100190D02*
X99710857Y-134600190D01*
X99425143Y-135100190D01*
X99425143Y-134600190D01*
X99187047Y-135100190D02*
X99187047Y-134600190D01*
X99068000Y-134600190D01*
X98996571Y-134624000D01*
X98948952Y-134671619D01*
X98925143Y-134719238D01*
X98901333Y-134814476D01*
X98901333Y-134885905D01*
X98925143Y-134981143D01*
X98948952Y-135028762D01*
X98996571Y-135076381D01*
X99068000Y-135100190D01*
X99187047Y-135100190D01*
X102715142Y-135076381D02*
X102643713Y-135100190D01*
X102524666Y-135100190D01*
X102477047Y-135076381D01*
X102453237Y-135052571D01*
X102429428Y-135004952D01*
X102429428Y-134957333D01*
X102453237Y-134909714D01*
X102477047Y-134885905D01*
X102524666Y-134862095D01*
X102619904Y-134838286D01*
X102667523Y-134814476D01*
X102691332Y-134790667D01*
X102715142Y-134743048D01*
X102715142Y-134695429D01*
X102691332Y-134647810D01*
X102667523Y-134624000D01*
X102619904Y-134600190D01*
X102500856Y-134600190D01*
X102429428Y-134624000D01*
X102215142Y-135100190D02*
X102215142Y-134600190D01*
X102096095Y-134600190D01*
X102024666Y-134624000D01*
X101977047Y-134671619D01*
X101953238Y-134719238D01*
X101929428Y-134814476D01*
X101929428Y-134885905D01*
X101953238Y-134981143D01*
X101977047Y-135028762D01*
X102024666Y-135076381D01*
X102096095Y-135100190D01*
X102215142Y-135100190D01*
X101738952Y-134957333D02*
X101500857Y-134957333D01*
X101786571Y-135100190D02*
X101619904Y-134600190D01*
X101453238Y-135100190D01*
X107636418Y-135277917D02*
X107860154Y-135359350D01*
X108031164Y-134889504D01*
X107479802Y-135220914D02*
X107650812Y-134751067D01*
X107538945Y-134710351D01*
X107463680Y-134708295D01*
X107402646Y-134736755D01*
X107363986Y-134773360D01*
X107309039Y-134854710D01*
X107284609Y-134921832D01*
X107274410Y-135019470D01*
X107280496Y-135072360D01*
X107308957Y-135133394D01*
X107367935Y-135180197D01*
X107479802Y-135220914D01*
X107081190Y-134923805D02*
X106857454Y-134842372D01*
X107077077Y-135074334D02*
X107091472Y-134547484D01*
X106763847Y-134960327D01*
X106355034Y-134760857D02*
X106369265Y-134791374D01*
X106428242Y-134838177D01*
X106472989Y-134854464D01*
X106548254Y-134856521D01*
X106609288Y-134828060D01*
X106647948Y-134791456D01*
X106702895Y-134710105D01*
X106727325Y-134642984D01*
X106737524Y-134545346D01*
X106731438Y-134492456D01*
X106702977Y-134431422D01*
X106643999Y-134384617D01*
X106599252Y-134368331D01*
X106523988Y-134366275D01*
X106493471Y-134380506D01*
X108172512Y-134849229D02*
X106449742Y-134222192D01*
X110639190Y-135294327D02*
X110415454Y-135212894D01*
X110635077Y-135444856D02*
X110649472Y-134918006D01*
X110321847Y-135330849D01*
X109919122Y-135184269D02*
X110187605Y-135281989D01*
X110053363Y-135233129D02*
X110224374Y-134763283D01*
X110244691Y-134846691D01*
X110273151Y-134907725D01*
X110309755Y-134946385D01*
X109813340Y-135196444D02*
X109455363Y-135066151D01*
X109307055Y-134429406D02*
X109530791Y-134510839D01*
X109471732Y-134742720D01*
X109457501Y-134712202D01*
X109420897Y-134673542D01*
X109309029Y-134632826D01*
X109256139Y-134638913D01*
X109225621Y-134653143D01*
X109186962Y-134689747D01*
X109146245Y-134801615D01*
X109152332Y-134854505D01*
X109166562Y-134885023D01*
X109203166Y-134923683D01*
X109315034Y-134964399D01*
X109367924Y-134958312D01*
X109398442Y-134944082D01*
X109150440Y-134372403D02*
X108822814Y-134785246D01*
X108837210Y-134258396D01*
X113179190Y-135294327D02*
X112955454Y-135212894D01*
X113175077Y-135444856D02*
X113189472Y-134918006D01*
X112861847Y-135330849D01*
X112786747Y-134771426D02*
X112741999Y-134755139D01*
X112689109Y-134761227D01*
X112658592Y-134775458D01*
X112619931Y-134812061D01*
X112564985Y-134893413D01*
X112524268Y-135005280D01*
X112514068Y-135102918D01*
X112520156Y-135155808D01*
X112534385Y-135186326D01*
X112570989Y-135224985D01*
X112615737Y-135241272D01*
X112668627Y-135235186D01*
X112699145Y-135220955D01*
X112737804Y-135184351D01*
X112792752Y-135103000D01*
X112833468Y-134991132D01*
X112843667Y-134893495D01*
X112837581Y-134840604D01*
X112823350Y-134810087D01*
X112786747Y-134771426D01*
X112353340Y-135196444D02*
X111995363Y-135066151D01*
X111847055Y-134429406D02*
X112070791Y-134510839D01*
X112011732Y-134742720D01*
X111997501Y-134712202D01*
X111960897Y-134673542D01*
X111849029Y-134632826D01*
X111796139Y-134638913D01*
X111765621Y-134653143D01*
X111726962Y-134689747D01*
X111686245Y-134801615D01*
X111692332Y-134854505D01*
X111706562Y-134885023D01*
X111743166Y-134923683D01*
X111855034Y-134964399D01*
X111907924Y-134958312D01*
X111938442Y-134944082D01*
X111690440Y-134372403D02*
X111362814Y-134785246D01*
X111377210Y-134258396D01*
X114921320Y-135290173D02*
X114935550Y-135320691D01*
X114994527Y-135367494D01*
X115039275Y-135383780D01*
X115114539Y-135385837D01*
X115175573Y-135357377D01*
X115214233Y-135320773D01*
X115269180Y-135239422D01*
X115293610Y-135172300D01*
X115303810Y-135074662D01*
X115297723Y-135021772D01*
X115269262Y-134960738D01*
X115210285Y-134913934D01*
X115165537Y-134897647D01*
X115090274Y-134895592D01*
X115059756Y-134909822D01*
X114734187Y-135247401D02*
X114658923Y-135245344D01*
X114547055Y-135204627D01*
X114510451Y-135165967D01*
X114496220Y-135135450D01*
X114490134Y-135082559D01*
X114506421Y-135037812D01*
X114545080Y-135001208D01*
X114575598Y-134986978D01*
X114628488Y-134980891D01*
X114726126Y-134991091D01*
X114779017Y-134985004D01*
X114809533Y-134970774D01*
X114848194Y-134934170D01*
X114864480Y-134889423D01*
X114858393Y-134836532D01*
X114844163Y-134806015D01*
X114807560Y-134767354D01*
X114695691Y-134726637D01*
X114620427Y-134724582D01*
X114351779Y-135184229D02*
X113993801Y-135053935D01*
X113845494Y-134417191D02*
X114069230Y-134498624D01*
X114010170Y-134730505D01*
X113995940Y-134699987D01*
X113959336Y-134661327D01*
X113847468Y-134620611D01*
X113794578Y-134626697D01*
X113764060Y-134640928D01*
X113725400Y-134677532D01*
X113684684Y-134789399D01*
X113690770Y-134842290D01*
X113705001Y-134872807D01*
X113741605Y-134911467D01*
X113853473Y-134952184D01*
X113906363Y-134946097D01*
X113936881Y-134931867D01*
X113688879Y-134360188D02*
X113361253Y-134773030D01*
X113375649Y-134246181D01*
X115485874Y-134922519D02*
X113360380Y-134148902D01*
X118359903Y-134338190D02*
X118359903Y-133838190D01*
X118240856Y-133838190D01*
X118169427Y-133862000D01*
X118121808Y-133909619D01*
X118097999Y-133957238D01*
X118074189Y-134052476D01*
X118074189Y-134123905D01*
X118097999Y-134219143D01*
X118121808Y-134266762D01*
X118169427Y-134314381D01*
X118240856Y-134338190D01*
X118359903Y-134338190D01*
X117645618Y-134004857D02*
X117645618Y-134338190D01*
X117764665Y-133814381D02*
X117883713Y-134171524D01*
X117574189Y-134171524D01*
X117502761Y-134385810D02*
X117121809Y-134385810D01*
X116764666Y-133838190D02*
X117002761Y-133838190D01*
X117026571Y-134076286D01*
X117002761Y-134052476D01*
X116955142Y-134028667D01*
X116836095Y-134028667D01*
X116788476Y-134052476D01*
X116764666Y-134076286D01*
X116740857Y-134123905D01*
X116740857Y-134242952D01*
X116764666Y-134290571D01*
X116788476Y-134314381D01*
X116836095Y-134338190D01*
X116955142Y-134338190D01*
X117002761Y-134314381D01*
X117026571Y-134290571D01*
X116598000Y-133838190D02*
X116431333Y-134338190D01*
X116264667Y-133838190D01*
X121015516Y-135432640D02*
X121186526Y-134962794D01*
X121074659Y-134922078D01*
X120999394Y-134920021D01*
X120938360Y-134948482D01*
X120899700Y-134985086D01*
X120844753Y-135066437D01*
X120820323Y-135133558D01*
X120810123Y-135231196D01*
X120816210Y-135284087D01*
X120844671Y-135345121D01*
X120903649Y-135391924D01*
X121015516Y-135432640D01*
X120492944Y-134710351D02*
X120716680Y-134791784D01*
X120657620Y-135023664D01*
X120643390Y-134993147D01*
X120606786Y-134954487D01*
X120494918Y-134913771D01*
X120442028Y-134919857D01*
X120411510Y-134934088D01*
X120372850Y-134970692D01*
X120332134Y-135082559D01*
X120338220Y-135135450D01*
X120352451Y-135165967D01*
X120389055Y-135204627D01*
X120500923Y-135245344D01*
X120553813Y-135239257D01*
X120584331Y-135225026D01*
X120193779Y-135184229D02*
X119835801Y-135053935D01*
X119687494Y-134417191D02*
X119911230Y-134498624D01*
X119852170Y-134730505D01*
X119837940Y-134699987D01*
X119801336Y-134661327D01*
X119689468Y-134620611D01*
X119636578Y-134626697D01*
X119606060Y-134640928D01*
X119567400Y-134677532D01*
X119526684Y-134789399D01*
X119532770Y-134842290D01*
X119547001Y-134872807D01*
X119583605Y-134911467D01*
X119695473Y-134952184D01*
X119748363Y-134946097D01*
X119778881Y-134931867D01*
X119530879Y-134360188D02*
X119203253Y-134773030D01*
X119217649Y-134246181D01*
X123301516Y-135432640D02*
X123472526Y-134962794D01*
X123360659Y-134922078D01*
X123285394Y-134920021D01*
X123224360Y-134948482D01*
X123185700Y-134985086D01*
X123130753Y-135066437D01*
X123106323Y-135133558D01*
X123096123Y-135231196D01*
X123102210Y-135284087D01*
X123130671Y-135345121D01*
X123189649Y-135391924D01*
X123301516Y-135432640D01*
X122801318Y-134718494D02*
X122890812Y-134751067D01*
X122927416Y-134789728D01*
X122941646Y-134820245D01*
X122961963Y-134903652D01*
X122951764Y-135001290D01*
X122886617Y-135180279D01*
X122847957Y-135216883D01*
X122817440Y-135231114D01*
X122764550Y-135237200D01*
X122675055Y-135204627D01*
X122638451Y-135165967D01*
X122624220Y-135135450D01*
X122618134Y-135082559D01*
X122658850Y-134970692D01*
X122697510Y-134934088D01*
X122728028Y-134919857D01*
X122780918Y-134913771D01*
X122870413Y-134946344D01*
X122907017Y-134985004D01*
X122921246Y-135015521D01*
X122927334Y-135068412D01*
X122479779Y-135184229D02*
X122121801Y-135053935D01*
X121973494Y-134417191D02*
X122197230Y-134498624D01*
X122138170Y-134730505D01*
X122123940Y-134699987D01*
X122087336Y-134661327D01*
X121975468Y-134620611D01*
X121922578Y-134626697D01*
X121892060Y-134640928D01*
X121853400Y-134677532D01*
X121812684Y-134789399D01*
X121818770Y-134842290D01*
X121833001Y-134872807D01*
X121869605Y-134911467D01*
X121981473Y-134952184D01*
X122034363Y-134946097D01*
X122064881Y-134931867D01*
X121816879Y-134360188D02*
X121489253Y-134773030D01*
X121503649Y-134246181D01*
X125841516Y-135432640D02*
X126012526Y-134962794D01*
X125900659Y-134922078D01*
X125825394Y-134920021D01*
X125764360Y-134948482D01*
X125725700Y-134985086D01*
X125670753Y-135066437D01*
X125646323Y-135133558D01*
X125636123Y-135231196D01*
X125642210Y-135284087D01*
X125670671Y-135345121D01*
X125729649Y-135391924D01*
X125841516Y-135432640D01*
X125587427Y-134808071D02*
X125274197Y-134694064D01*
X125304550Y-135237200D01*
X125019779Y-135184229D02*
X124661801Y-135053935D01*
X124513494Y-134417191D02*
X124737230Y-134498624D01*
X124678170Y-134730505D01*
X124663940Y-134699987D01*
X124627336Y-134661327D01*
X124515468Y-134620611D01*
X124462578Y-134626697D01*
X124432060Y-134640928D01*
X124393400Y-134677532D01*
X124352684Y-134789399D01*
X124358770Y-134842290D01*
X124373001Y-134872807D01*
X124409605Y-134911467D01*
X124521473Y-134952184D01*
X124574363Y-134946097D01*
X124604881Y-134931867D01*
X124356879Y-134360188D02*
X124029253Y-134773030D01*
X124043649Y-134246181D01*
X105243238Y-135076381D02*
X105171809Y-135100190D01*
X105052762Y-135100190D01*
X105005143Y-135076381D01*
X104981333Y-135052571D01*
X104957524Y-135004952D01*
X104957524Y-134957333D01*
X104981333Y-134909714D01*
X105005143Y-134885905D01*
X105052762Y-134862095D01*
X105148000Y-134838286D01*
X105195619Y-134814476D01*
X105219428Y-134790667D01*
X105243238Y-134743048D01*
X105243238Y-134695429D01*
X105219428Y-134647810D01*
X105195619Y-134624000D01*
X105148000Y-134600190D01*
X105028952Y-134600190D01*
X104957524Y-134624000D01*
X104457524Y-135052571D02*
X104481334Y-135076381D01*
X104552762Y-135100190D01*
X104600381Y-135100190D01*
X104671810Y-135076381D01*
X104719429Y-135028762D01*
X104743238Y-134981143D01*
X104767048Y-134885905D01*
X104767048Y-134814476D01*
X104743238Y-134719238D01*
X104719429Y-134671619D01*
X104671810Y-134624000D01*
X104600381Y-134600190D01*
X104552762Y-134600190D01*
X104481334Y-134624000D01*
X104457524Y-134647810D01*
X104005143Y-135100190D02*
X104243238Y-135100190D01*
X104243238Y-134600190D01*
X122906201Y-154787181D02*
X122682465Y-154705747D01*
X122902088Y-154937709D02*
X122916483Y-154410859D01*
X122588858Y-154823702D01*
X122163759Y-154668979D02*
X122401808Y-154502246D01*
X122432242Y-154766699D02*
X122603252Y-154296853D01*
X122424263Y-154231706D01*
X122371373Y-154237793D01*
X122340856Y-154252024D01*
X122302195Y-154288628D01*
X122277765Y-154355748D01*
X122283853Y-154408639D01*
X122298082Y-154439156D01*
X122334687Y-154477816D01*
X122513675Y-154542963D01*
X122051972Y-154349580D02*
X121895357Y-154292576D01*
X121738660Y-154514255D02*
X121962396Y-154595689D01*
X122133406Y-154125842D01*
X121909670Y-154044409D01*
X121470258Y-154137853D02*
X121626873Y-154194856D01*
X121537297Y-154440965D02*
X121708307Y-153971119D01*
X121484571Y-153889686D01*
X120526594Y-154905136D02*
X120750330Y-154986569D01*
X120921340Y-154516723D01*
X120117782Y-154705665D02*
X120132012Y-154736183D01*
X120190989Y-154782985D01*
X120235737Y-154799272D01*
X120311001Y-154801329D01*
X120372035Y-154772869D01*
X120410695Y-154736265D01*
X120465642Y-154654914D01*
X120490072Y-154587792D01*
X120500272Y-154490154D01*
X120494185Y-154437264D01*
X120465724Y-154376230D01*
X120406747Y-154329426D01*
X120361999Y-154313139D01*
X120286736Y-154311083D01*
X120256218Y-154325314D01*
X119900132Y-154677122D02*
X120071142Y-154207276D01*
X119959274Y-154166559D01*
X119884010Y-154164503D01*
X119822976Y-154192964D01*
X119784316Y-154229568D01*
X119729369Y-154310919D01*
X119704938Y-154378040D01*
X119694739Y-154475678D01*
X119700826Y-154528568D01*
X119729286Y-154589602D01*
X119788264Y-154636406D01*
X119900132Y-154677122D01*
X119525867Y-154591577D02*
X119167889Y-154461284D01*
X119161884Y-154129709D02*
X119005270Y-154072706D01*
X118848572Y-154294385D02*
X119072308Y-154375819D01*
X119243318Y-153905972D01*
X119019582Y-153824539D01*
X118232704Y-154994712D02*
X118456440Y-155076146D01*
X118627450Y-154606299D01*
X117823892Y-154795242D02*
X117838122Y-154825759D01*
X117897100Y-154872562D01*
X117941847Y-154888849D01*
X118017111Y-154890906D01*
X118078145Y-154862445D01*
X118116805Y-154825841D01*
X118171752Y-154744490D01*
X118196183Y-154677369D01*
X118206382Y-154579731D01*
X118200295Y-154526841D01*
X118171835Y-154465807D01*
X118112857Y-154419003D01*
X118068110Y-154402716D01*
X117992846Y-154400660D01*
X117962328Y-154414891D01*
X117606242Y-154766699D02*
X117777252Y-154296853D01*
X117665385Y-154256136D01*
X117590120Y-154254080D01*
X117529086Y-154282541D01*
X117490426Y-154319145D01*
X117435479Y-154400496D01*
X117411049Y-154467617D01*
X117400849Y-154565255D01*
X117406936Y-154618145D01*
X117435396Y-154679179D01*
X117494375Y-154725982D01*
X117606242Y-154766699D01*
X117231977Y-154681154D02*
X116874000Y-154550860D01*
X116509935Y-154367676D02*
X116747984Y-154200943D01*
X116778418Y-154465396D02*
X116949428Y-153995549D01*
X116770439Y-153930403D01*
X116717549Y-153936490D01*
X116687032Y-153950721D01*
X116648371Y-153987325D01*
X116623941Y-154054445D01*
X116630029Y-154107336D01*
X116644258Y-154137853D01*
X116680862Y-154176513D01*
X116859851Y-154241659D01*
X116339089Y-154280156D02*
X116263825Y-154278099D01*
X116151957Y-154237382D01*
X116115353Y-154198723D01*
X116101122Y-154168205D01*
X116095036Y-154115315D01*
X116111322Y-154070567D01*
X116149982Y-154033963D01*
X116180500Y-154019734D01*
X116233390Y-154013646D01*
X116331028Y-154023846D01*
X116383919Y-154017759D01*
X116414435Y-154003529D01*
X116453096Y-153966925D01*
X116469382Y-153922178D01*
X116463295Y-153869287D01*
X116449065Y-153838770D01*
X116412461Y-153800109D01*
X116300593Y-153759392D01*
X116225329Y-153757337D01*
X115692704Y-154994712D02*
X115916440Y-155076146D01*
X116087450Y-154606299D01*
X115283892Y-154795242D02*
X115298122Y-154825759D01*
X115357100Y-154872562D01*
X115401847Y-154888849D01*
X115477111Y-154890906D01*
X115538145Y-154862445D01*
X115576805Y-154825841D01*
X115631752Y-154744490D01*
X115656183Y-154677369D01*
X115666382Y-154579731D01*
X115660295Y-154526841D01*
X115631835Y-154465807D01*
X115572857Y-154419003D01*
X115528110Y-154402716D01*
X115452846Y-154400660D01*
X115422328Y-154414891D01*
X115066242Y-154766699D02*
X115237252Y-154296853D01*
X115125385Y-154256136D01*
X115050120Y-154254080D01*
X114989086Y-154282541D01*
X114950426Y-154319145D01*
X114895479Y-154400496D01*
X114871049Y-154467617D01*
X114860849Y-154565255D01*
X114866936Y-154618145D01*
X114895396Y-154679179D01*
X114954375Y-154725982D01*
X115066242Y-154766699D01*
X114691977Y-154681154D02*
X114334000Y-154550860D01*
X114238418Y-154465396D02*
X114409428Y-153995549D01*
X114297561Y-153954833D01*
X114222296Y-153952777D01*
X114161262Y-153981237D01*
X114122602Y-154017841D01*
X114067655Y-154099192D01*
X114043225Y-154166314D01*
X114033025Y-154263951D01*
X114039112Y-154316842D01*
X114067572Y-154377876D01*
X114126550Y-154424679D01*
X114238418Y-154465396D01*
X113984329Y-153840826D02*
X113671098Y-153726819D01*
X113701451Y-154269956D01*
X113152704Y-154994712D02*
X113376440Y-155076146D01*
X113547450Y-154606299D01*
X112743892Y-154795242D02*
X112758122Y-154825759D01*
X112817100Y-154872562D01*
X112861847Y-154888849D01*
X112937111Y-154890906D01*
X112998145Y-154862445D01*
X113036805Y-154825841D01*
X113091752Y-154744490D01*
X113116183Y-154677369D01*
X113126382Y-154579731D01*
X113120295Y-154526841D01*
X113091835Y-154465807D01*
X113032857Y-154419003D01*
X112988110Y-154402716D01*
X112912846Y-154400660D01*
X112882328Y-154414891D01*
X112526242Y-154766699D02*
X112697252Y-154296853D01*
X112585385Y-154256136D01*
X112510120Y-154254080D01*
X112449086Y-154282541D01*
X112410426Y-154319145D01*
X112355479Y-154400496D01*
X112331049Y-154467617D01*
X112320849Y-154565255D01*
X112326936Y-154618145D01*
X112355396Y-154679179D01*
X112414375Y-154725982D01*
X112526242Y-154766699D01*
X112151977Y-154681154D02*
X111794000Y-154550860D01*
X111698418Y-154465396D02*
X111869428Y-153995549D01*
X111757561Y-153954833D01*
X111682296Y-153952777D01*
X111621262Y-153981237D01*
X111582602Y-154017841D01*
X111527655Y-154099192D01*
X111503225Y-154166314D01*
X111493025Y-154263951D01*
X111499112Y-154316842D01*
X111527572Y-154377876D01*
X111586550Y-154424679D01*
X111698418Y-154465396D01*
X111198220Y-153751249D02*
X111287714Y-153783823D01*
X111324318Y-153822483D01*
X111338548Y-153853001D01*
X111358865Y-153936408D01*
X111348666Y-154034046D01*
X111283519Y-154213034D01*
X111244858Y-154249638D01*
X111214342Y-154263869D01*
X111161451Y-154269956D01*
X111071957Y-154237382D01*
X111035353Y-154198723D01*
X111021122Y-154168205D01*
X111015036Y-154115315D01*
X111055752Y-154003447D01*
X111094412Y-153966843D01*
X111124930Y-153952612D01*
X111177820Y-153946526D01*
X111267314Y-153979099D01*
X111303919Y-154017759D01*
X111318148Y-154048276D01*
X111324236Y-154101167D01*
X110612704Y-154994712D02*
X110836440Y-155076146D01*
X111007450Y-154606299D01*
X110203892Y-154795242D02*
X110218122Y-154825759D01*
X110277100Y-154872562D01*
X110321847Y-154888849D01*
X110397111Y-154890906D01*
X110458145Y-154862445D01*
X110496805Y-154825841D01*
X110551752Y-154744490D01*
X110576183Y-154677369D01*
X110586382Y-154579731D01*
X110580295Y-154526841D01*
X110551835Y-154465807D01*
X110492857Y-154419003D01*
X110448110Y-154402716D01*
X110372846Y-154400660D01*
X110342328Y-154414891D01*
X109986242Y-154766699D02*
X110157252Y-154296853D01*
X110045385Y-154256136D01*
X109970120Y-154254080D01*
X109909086Y-154282541D01*
X109870426Y-154319145D01*
X109815479Y-154400496D01*
X109791049Y-154467617D01*
X109780849Y-154565255D01*
X109786936Y-154618145D01*
X109815396Y-154679179D01*
X109874375Y-154725982D01*
X109986242Y-154766699D01*
X109611977Y-154681154D02*
X109254000Y-154550860D01*
X109158418Y-154465396D02*
X109329428Y-153995549D01*
X109217561Y-153954833D01*
X109142296Y-153952777D01*
X109081262Y-153981237D01*
X109042602Y-154017841D01*
X108987655Y-154099192D01*
X108963225Y-154166314D01*
X108953025Y-154263951D01*
X108959112Y-154316842D01*
X108987572Y-154377876D01*
X109046550Y-154424679D01*
X109158418Y-154465396D01*
X108635846Y-153743106D02*
X108859582Y-153824539D01*
X108800522Y-154056420D01*
X108786292Y-154025902D01*
X108749688Y-153987242D01*
X108637820Y-153946526D01*
X108584930Y-153952612D01*
X108554412Y-153966843D01*
X108515752Y-154003447D01*
X108475036Y-154115315D01*
X108481122Y-154168205D01*
X108495353Y-154198723D01*
X108531957Y-154237382D01*
X108643825Y-154278099D01*
X108696715Y-154272012D01*
X108727233Y-154257782D01*
X108072704Y-154994712D02*
X108296440Y-155076146D01*
X108467450Y-154606299D01*
X107663892Y-154795242D02*
X107678122Y-154825759D01*
X107737100Y-154872562D01*
X107781847Y-154888849D01*
X107857111Y-154890906D01*
X107918145Y-154862445D01*
X107956805Y-154825841D01*
X108011752Y-154744490D01*
X108036183Y-154677369D01*
X108046382Y-154579731D01*
X108040295Y-154526841D01*
X108011835Y-154465807D01*
X107952857Y-154419003D01*
X107908110Y-154402716D01*
X107832846Y-154400660D01*
X107802328Y-154414891D01*
X107446242Y-154766699D02*
X107617252Y-154296853D01*
X107505385Y-154256136D01*
X107430120Y-154254080D01*
X107369086Y-154282541D01*
X107330426Y-154319145D01*
X107275479Y-154400496D01*
X107251049Y-154467617D01*
X107240849Y-154565255D01*
X107246936Y-154618145D01*
X107275396Y-154679179D01*
X107334375Y-154725982D01*
X107446242Y-154766699D01*
X107071977Y-154681154D02*
X106714000Y-154550860D01*
X106618418Y-154465396D02*
X106789428Y-153995549D01*
X106677561Y-153954833D01*
X106602296Y-153952777D01*
X106541262Y-153981237D01*
X106502602Y-154017841D01*
X106447655Y-154099192D01*
X106423225Y-154166314D01*
X106413025Y-154263951D01*
X106419112Y-154316842D01*
X106447572Y-154377876D01*
X106506550Y-154424679D01*
X106618418Y-154465396D01*
X106061216Y-153907865D02*
X105947210Y-154221096D01*
X106238231Y-153769593D02*
X106227949Y-154145914D01*
X105937092Y-154040051D01*
X100210856Y-154467714D02*
X99829904Y-154467714D01*
X100020380Y-154658190D02*
X100020380Y-154277238D01*
X99353713Y-154158190D02*
X99591808Y-154158190D01*
X99615618Y-154396286D01*
X99591808Y-154372476D01*
X99544189Y-154348667D01*
X99425142Y-154348667D01*
X99377523Y-154372476D01*
X99353713Y-154396286D01*
X99329904Y-154443905D01*
X99329904Y-154562952D01*
X99353713Y-154610571D01*
X99377523Y-154634381D01*
X99425142Y-154658190D01*
X99544189Y-154658190D01*
X99591808Y-154634381D01*
X99615618Y-154610571D01*
X99187047Y-154158190D02*
X99020380Y-154658190D01*
X98853714Y-154158190D01*
X97812022Y-154958067D02*
X98050071Y-154791334D01*
X98080505Y-155055787D02*
X98251515Y-154585941D01*
X98072526Y-154520794D01*
X98019636Y-154526881D01*
X97989119Y-154541112D01*
X97950458Y-154577716D01*
X97926028Y-154644836D01*
X97932116Y-154697727D01*
X97946345Y-154728244D01*
X97982950Y-154766904D01*
X98161938Y-154832051D01*
X97641176Y-154870547D02*
X97565912Y-154868490D01*
X97454044Y-154827774D01*
X97417440Y-154789114D01*
X97403209Y-154758596D01*
X97397123Y-154705706D01*
X97413410Y-154660959D01*
X97452069Y-154624355D01*
X97482587Y-154610125D01*
X97535477Y-154604038D01*
X97633115Y-154614238D01*
X97686006Y-154608150D01*
X97716522Y-154593920D01*
X97755183Y-154557317D01*
X97771469Y-154512569D01*
X97765382Y-154459679D01*
X97751152Y-154429161D01*
X97714549Y-154390501D01*
X97602680Y-154349784D01*
X97527416Y-154347728D01*
X97401318Y-154276494D02*
X97132835Y-154178774D01*
X97096066Y-154697480D02*
X97267076Y-154227634D01*
X96900790Y-154677082D02*
X96542813Y-154546789D01*
X96394505Y-153910044D02*
X96618241Y-153991477D01*
X96559182Y-154223358D01*
X96544951Y-154192840D01*
X96508347Y-154154181D01*
X96396479Y-154113464D01*
X96343589Y-154119551D01*
X96313071Y-154133781D01*
X96274412Y-154170385D01*
X96233695Y-154282253D01*
X96239782Y-154335143D01*
X96254012Y-154365661D01*
X96290616Y-154404321D01*
X96402484Y-154445037D01*
X96455374Y-154438951D01*
X96485892Y-154424720D01*
X96237890Y-153853041D02*
X95910264Y-154265884D01*
X95924660Y-153739034D01*
X98392862Y-154545665D02*
X95909391Y-153641756D01*
X94868953Y-154182000D02*
X94916572Y-154158190D01*
X94988000Y-154158190D01*
X95059429Y-154182000D01*
X95107048Y-154229619D01*
X95130857Y-154277238D01*
X95154667Y-154372476D01*
X95154667Y-154443905D01*
X95130857Y-154539143D01*
X95107048Y-154586762D01*
X95059429Y-154634381D01*
X94988000Y-154658190D01*
X94940381Y-154658190D01*
X94868953Y-154634381D01*
X94845143Y-154610571D01*
X94845143Y-154443905D01*
X94940381Y-154443905D01*
X94630857Y-154658190D02*
X94630857Y-154158190D01*
X94345143Y-154658190D01*
X94345143Y-154158190D01*
X94107047Y-154658190D02*
X94107047Y-154158190D01*
X93988000Y-154158190D01*
X93916571Y-154182000D01*
X93868952Y-154229619D01*
X93845143Y-154277238D01*
X93821333Y-154372476D01*
X93821333Y-154443905D01*
X93845143Y-154539143D01*
X93868952Y-154586762D01*
X93916571Y-154634381D01*
X93988000Y-154658190D01*
X94107047Y-154658190D01*
X92828951Y-154467714D02*
X92447999Y-154467714D01*
X92638475Y-154658190D02*
X92638475Y-154277238D01*
X91947999Y-154658190D02*
X92233713Y-154658190D01*
X92090856Y-154658190D02*
X92090856Y-154158190D01*
X92138475Y-154229619D01*
X92186094Y-154277238D01*
X92233713Y-154301048D01*
X91757523Y-154205810D02*
X91733713Y-154182000D01*
X91686094Y-154158190D01*
X91567047Y-154158190D01*
X91519428Y-154182000D01*
X91495618Y-154205810D01*
X91471809Y-154253429D01*
X91471809Y-154301048D01*
X91495618Y-154372476D01*
X91781332Y-154658190D01*
X91471809Y-154658190D01*
X91328952Y-154158190D02*
X91162285Y-154658190D01*
X90995619Y-154158190D01*
X90281516Y-154990640D02*
X90452526Y-154520794D01*
X90340659Y-154480078D01*
X90265394Y-154478021D01*
X90204360Y-154506482D01*
X90165700Y-154543086D01*
X90110753Y-154624437D01*
X90086323Y-154691558D01*
X90076123Y-154789196D01*
X90082210Y-154842087D01*
X90110671Y-154903121D01*
X90169649Y-154949924D01*
X90281516Y-154990640D01*
X90027427Y-154366071D02*
X89736571Y-154260207D01*
X89828039Y-154496200D01*
X89760918Y-154471771D01*
X89708028Y-154477857D01*
X89677510Y-154492088D01*
X89638850Y-154528692D01*
X89598134Y-154640559D01*
X89604220Y-154693450D01*
X89618451Y-154723967D01*
X89655055Y-154762627D01*
X89789297Y-154811487D01*
X89842187Y-154805401D01*
X89872704Y-154791170D01*
X89459779Y-154742229D02*
X89101801Y-154611935D01*
X88953494Y-153975191D02*
X89177230Y-154056624D01*
X89118170Y-154288505D01*
X89103940Y-154257987D01*
X89067336Y-154219327D01*
X88955468Y-154178611D01*
X88902578Y-154184697D01*
X88872060Y-154198928D01*
X88833400Y-154235532D01*
X88792684Y-154347399D01*
X88798770Y-154400290D01*
X88813001Y-154430807D01*
X88849605Y-154469467D01*
X88961473Y-154510184D01*
X89014363Y-154504097D01*
X89044881Y-154489867D01*
X88796879Y-153918188D02*
X88469253Y-154331030D01*
X88483649Y-153804181D01*
X87741516Y-154990640D02*
X87912526Y-154520794D01*
X87800659Y-154480078D01*
X87725394Y-154478021D01*
X87664360Y-154506482D01*
X87625700Y-154543086D01*
X87570753Y-154624437D01*
X87546323Y-154691558D01*
X87536123Y-154789196D01*
X87542210Y-154842087D01*
X87570671Y-154903121D01*
X87629649Y-154949924D01*
X87741516Y-154990640D01*
X87025561Y-154730054D02*
X87294044Y-154827774D01*
X87159802Y-154778914D02*
X87330812Y-154309067D01*
X87351129Y-154392475D01*
X87379590Y-154453509D01*
X87416194Y-154492170D01*
X86919779Y-154742229D02*
X86561801Y-154611935D01*
X86413494Y-153975191D02*
X86637230Y-154056624D01*
X86578170Y-154288505D01*
X86563940Y-154257987D01*
X86527336Y-154219327D01*
X86415468Y-154178611D01*
X86362578Y-154184697D01*
X86332060Y-154198928D01*
X86293400Y-154235532D01*
X86252684Y-154347399D01*
X86258770Y-154400290D01*
X86273001Y-154430807D01*
X86309605Y-154469467D01*
X86421473Y-154510184D01*
X86474363Y-154504097D01*
X86504881Y-154489867D01*
X86256879Y-153918188D02*
X85929253Y-154331030D01*
X85943649Y-153804181D01*
X111878951Y-131353714D02*
X111497999Y-131353714D01*
X111688475Y-131544190D02*
X111688475Y-131163238D01*
X110997999Y-131544190D02*
X111283713Y-131544190D01*
X111140856Y-131544190D02*
X111140856Y-131044190D01*
X111188475Y-131115619D01*
X111236094Y-131163238D01*
X111283713Y-131187048D01*
X110807523Y-131091810D02*
X110783713Y-131068000D01*
X110736094Y-131044190D01*
X110617047Y-131044190D01*
X110569428Y-131068000D01*
X110545618Y-131091810D01*
X110521809Y-131139429D01*
X110521809Y-131187048D01*
X110545618Y-131258476D01*
X110831332Y-131544190D01*
X110521809Y-131544190D01*
X110378952Y-131044190D02*
X110212285Y-131544190D01*
X110045619Y-131044190D01*
X113811809Y-131544190D02*
X113978476Y-131306095D01*
X114097523Y-131544190D02*
X114097523Y-131044190D01*
X113907047Y-131044190D01*
X113859428Y-131068000D01*
X113835619Y-131091810D01*
X113811809Y-131139429D01*
X113811809Y-131210857D01*
X113835619Y-131258476D01*
X113859428Y-131282286D01*
X113907047Y-131306095D01*
X114097523Y-131306095D01*
X113621333Y-131520381D02*
X113549904Y-131544190D01*
X113430857Y-131544190D01*
X113383238Y-131520381D01*
X113359428Y-131496571D01*
X113335619Y-131448952D01*
X113335619Y-131401333D01*
X113359428Y-131353714D01*
X113383238Y-131329905D01*
X113430857Y-131306095D01*
X113526095Y-131282286D01*
X113573714Y-131258476D01*
X113597523Y-131234667D01*
X113621333Y-131187048D01*
X113621333Y-131139429D01*
X113597523Y-131091810D01*
X113573714Y-131068000D01*
X113526095Y-131044190D01*
X113407047Y-131044190D01*
X113335619Y-131068000D01*
X113192762Y-131044190D02*
X112907048Y-131044190D01*
X113049905Y-131544190D02*
X113049905Y-131044190D01*
X114216571Y-130958000D02*
X112859429Y-130958000D01*
X116685142Y-131520381D02*
X116613713Y-131544190D01*
X116494666Y-131544190D01*
X116447047Y-131520381D01*
X116423237Y-131496571D01*
X116399428Y-131448952D01*
X116399428Y-131401333D01*
X116423237Y-131353714D01*
X116447047Y-131329905D01*
X116494666Y-131306095D01*
X116589904Y-131282286D01*
X116637523Y-131258476D01*
X116661332Y-131234667D01*
X116685142Y-131187048D01*
X116685142Y-131139429D01*
X116661332Y-131091810D01*
X116637523Y-131068000D01*
X116589904Y-131044190D01*
X116470856Y-131044190D01*
X116399428Y-131068000D01*
X116185142Y-131544190D02*
X116185142Y-131044190D01*
X116066095Y-131044190D01*
X115994666Y-131068000D01*
X115947047Y-131115619D01*
X115923238Y-131163238D01*
X115899428Y-131258476D01*
X115899428Y-131329905D01*
X115923238Y-131425143D01*
X115947047Y-131472762D01*
X115994666Y-131520381D01*
X116066095Y-131544190D01*
X116185142Y-131544190D01*
X115708952Y-131401333D02*
X115470857Y-131401333D01*
X115756571Y-131544190D02*
X115589904Y-131044190D01*
X115423238Y-131544190D01*
X119213238Y-131520381D02*
X119141809Y-131544190D01*
X119022762Y-131544190D01*
X118975143Y-131520381D01*
X118951333Y-131496571D01*
X118927524Y-131448952D01*
X118927524Y-131401333D01*
X118951333Y-131353714D01*
X118975143Y-131329905D01*
X119022762Y-131306095D01*
X119118000Y-131282286D01*
X119165619Y-131258476D01*
X119189428Y-131234667D01*
X119213238Y-131187048D01*
X119213238Y-131139429D01*
X119189428Y-131091810D01*
X119165619Y-131068000D01*
X119118000Y-131044190D01*
X118998952Y-131044190D01*
X118927524Y-131068000D01*
X118427524Y-131496571D02*
X118451334Y-131520381D01*
X118522762Y-131544190D01*
X118570381Y-131544190D01*
X118641810Y-131520381D01*
X118689429Y-131472762D01*
X118713238Y-131425143D01*
X118737048Y-131329905D01*
X118737048Y-131258476D01*
X118713238Y-131163238D01*
X118689429Y-131115619D01*
X118641810Y-131068000D01*
X118570381Y-131044190D01*
X118522762Y-131044190D01*
X118451334Y-131068000D01*
X118427524Y-131091810D01*
X117975143Y-131544190D02*
X118213238Y-131544190D01*
X118213238Y-131044190D01*
X121527047Y-131544190D02*
X121527047Y-131044190D01*
X121408000Y-131044190D01*
X121336571Y-131068000D01*
X121288952Y-131115619D01*
X121265143Y-131163238D01*
X121241333Y-131258476D01*
X121241333Y-131329905D01*
X121265143Y-131425143D01*
X121288952Y-131472762D01*
X121336571Y-131520381D01*
X121408000Y-131544190D01*
X121527047Y-131544190D01*
X121074666Y-131044190D02*
X120741333Y-131044190D01*
X120955619Y-131544190D01*
X124067047Y-131544190D02*
X124067047Y-131044190D01*
X123948000Y-131044190D01*
X123876571Y-131068000D01*
X123828952Y-131115619D01*
X123805143Y-131163238D01*
X123781333Y-131258476D01*
X123781333Y-131329905D01*
X123805143Y-131425143D01*
X123828952Y-131472762D01*
X123876571Y-131520381D01*
X123948000Y-131544190D01*
X124067047Y-131544190D01*
X123352762Y-131044190D02*
X123448000Y-131044190D01*
X123495619Y-131068000D01*
X123519428Y-131091810D01*
X123567047Y-131163238D01*
X123590857Y-131258476D01*
X123590857Y-131448952D01*
X123567047Y-131496571D01*
X123543238Y-131520381D01*
X123495619Y-131544190D01*
X123400381Y-131544190D01*
X123352762Y-131520381D01*
X123328952Y-131496571D01*
X123305143Y-131448952D01*
X123305143Y-131329905D01*
X123328952Y-131282286D01*
X123352762Y-131258476D01*
X123400381Y-131234667D01*
X123495619Y-131234667D01*
X123543238Y-131258476D01*
X123567047Y-131282286D01*
X123590857Y-131329905D01*
X126607047Y-131544190D02*
X126607047Y-131044190D01*
X126488000Y-131044190D01*
X126416571Y-131068000D01*
X126368952Y-131115619D01*
X126345143Y-131163238D01*
X126321333Y-131258476D01*
X126321333Y-131329905D01*
X126345143Y-131425143D01*
X126368952Y-131472762D01*
X126416571Y-131520381D01*
X126488000Y-131544190D01*
X126607047Y-131544190D01*
X125868952Y-131044190D02*
X126107047Y-131044190D01*
X126130857Y-131282286D01*
X126107047Y-131258476D01*
X126059428Y-131234667D01*
X125940381Y-131234667D01*
X125892762Y-131258476D01*
X125868952Y-131282286D01*
X125845143Y-131329905D01*
X125845143Y-131448952D01*
X125868952Y-131496571D01*
X125892762Y-131520381D01*
X125940381Y-131544190D01*
X126059428Y-131544190D01*
X126107047Y-131520381D01*
X126130857Y-131496571D01*
X129147047Y-131544190D02*
X129147047Y-131044190D01*
X129028000Y-131044190D01*
X128956571Y-131068000D01*
X128908952Y-131115619D01*
X128885143Y-131163238D01*
X128861333Y-131258476D01*
X128861333Y-131329905D01*
X128885143Y-131425143D01*
X128908952Y-131472762D01*
X128956571Y-131520381D01*
X129028000Y-131544190D01*
X129147047Y-131544190D01*
X128432762Y-131210857D02*
X128432762Y-131544190D01*
X128551809Y-131020381D02*
X128670857Y-131377524D01*
X128361333Y-131377524D01*
X129158953Y-124464000D02*
X129206572Y-124440190D01*
X129278000Y-124440190D01*
X129349429Y-124464000D01*
X129397048Y-124511619D01*
X129420857Y-124559238D01*
X129444667Y-124654476D01*
X129444667Y-124725905D01*
X129420857Y-124821143D01*
X129397048Y-124868762D01*
X129349429Y-124916381D01*
X129278000Y-124940190D01*
X129230381Y-124940190D01*
X129158953Y-124916381D01*
X129135143Y-124892571D01*
X129135143Y-124725905D01*
X129230381Y-124725905D01*
X128920857Y-124940190D02*
X128920857Y-124440190D01*
X128635143Y-124940190D01*
X128635143Y-124440190D01*
X128397047Y-124940190D02*
X128397047Y-124440190D01*
X128278000Y-124440190D01*
X128206571Y-124464000D01*
X128158952Y-124511619D01*
X128135143Y-124559238D01*
X128111333Y-124654476D01*
X128111333Y-124725905D01*
X128135143Y-124821143D01*
X128158952Y-124868762D01*
X128206571Y-124916381D01*
X128278000Y-124940190D01*
X128397047Y-124940190D01*
X126607047Y-124940190D02*
X126607047Y-124440190D01*
X126488000Y-124440190D01*
X126416571Y-124464000D01*
X126368952Y-124511619D01*
X126345143Y-124559238D01*
X126321333Y-124654476D01*
X126321333Y-124725905D01*
X126345143Y-124821143D01*
X126368952Y-124868762D01*
X126416571Y-124916381D01*
X126488000Y-124940190D01*
X126607047Y-124940190D01*
X126154666Y-124440190D02*
X125845143Y-124440190D01*
X126011809Y-124630667D01*
X125940381Y-124630667D01*
X125892762Y-124654476D01*
X125868952Y-124678286D01*
X125845143Y-124725905D01*
X125845143Y-124844952D01*
X125868952Y-124892571D01*
X125892762Y-124916381D01*
X125940381Y-124940190D01*
X126083238Y-124940190D01*
X126130857Y-124916381D01*
X126154666Y-124892571D01*
X124067047Y-124940190D02*
X124067047Y-124440190D01*
X123948000Y-124440190D01*
X123876571Y-124464000D01*
X123828952Y-124511619D01*
X123805143Y-124559238D01*
X123781333Y-124654476D01*
X123781333Y-124725905D01*
X123805143Y-124821143D01*
X123828952Y-124868762D01*
X123876571Y-124916381D01*
X123948000Y-124940190D01*
X124067047Y-124940190D01*
X123590857Y-124487810D02*
X123567047Y-124464000D01*
X123519428Y-124440190D01*
X123400381Y-124440190D01*
X123352762Y-124464000D01*
X123328952Y-124487810D01*
X123305143Y-124535429D01*
X123305143Y-124583048D01*
X123328952Y-124654476D01*
X123614666Y-124940190D01*
X123305143Y-124940190D01*
X121527047Y-124940190D02*
X121527047Y-124440190D01*
X121408000Y-124440190D01*
X121336571Y-124464000D01*
X121288952Y-124511619D01*
X121265143Y-124559238D01*
X121241333Y-124654476D01*
X121241333Y-124725905D01*
X121265143Y-124821143D01*
X121288952Y-124868762D01*
X121336571Y-124916381D01*
X121408000Y-124940190D01*
X121527047Y-124940190D01*
X120765143Y-124940190D02*
X121050857Y-124940190D01*
X120908000Y-124940190D02*
X120908000Y-124440190D01*
X120955619Y-124511619D01*
X121003238Y-124559238D01*
X121050857Y-124583048D01*
X118987047Y-124940190D02*
X118987047Y-124440190D01*
X118868000Y-124440190D01*
X118796571Y-124464000D01*
X118748952Y-124511619D01*
X118725143Y-124559238D01*
X118701333Y-124654476D01*
X118701333Y-124725905D01*
X118725143Y-124821143D01*
X118748952Y-124868762D01*
X118796571Y-124916381D01*
X118868000Y-124940190D01*
X118987047Y-124940190D01*
X118391809Y-124440190D02*
X118344190Y-124440190D01*
X118296571Y-124464000D01*
X118272762Y-124487810D01*
X118248952Y-124535429D01*
X118225143Y-124630667D01*
X118225143Y-124749714D01*
X118248952Y-124844952D01*
X118272762Y-124892571D01*
X118296571Y-124916381D01*
X118344190Y-124940190D01*
X118391809Y-124940190D01*
X118439428Y-124916381D01*
X118463238Y-124892571D01*
X118487047Y-124844952D01*
X118510857Y-124749714D01*
X118510857Y-124630667D01*
X118487047Y-124535429D01*
X118463238Y-124487810D01*
X118439428Y-124464000D01*
X118391809Y-124440190D01*
X116161333Y-124892571D02*
X116185143Y-124916381D01*
X116256571Y-124940190D01*
X116304190Y-124940190D01*
X116375619Y-124916381D01*
X116423238Y-124868762D01*
X116447047Y-124821143D01*
X116470857Y-124725905D01*
X116470857Y-124654476D01*
X116447047Y-124559238D01*
X116423238Y-124511619D01*
X116375619Y-124464000D01*
X116304190Y-124440190D01*
X116256571Y-124440190D01*
X116185143Y-124464000D01*
X116161333Y-124487810D01*
X115970857Y-124916381D02*
X115899428Y-124940190D01*
X115780381Y-124940190D01*
X115732762Y-124916381D01*
X115708952Y-124892571D01*
X115685143Y-124844952D01*
X115685143Y-124797333D01*
X115708952Y-124749714D01*
X115732762Y-124725905D01*
X115780381Y-124702095D01*
X115875619Y-124678286D01*
X115923238Y-124654476D01*
X115947047Y-124630667D01*
X115970857Y-124583048D01*
X115970857Y-124535429D01*
X115947047Y-124487810D01*
X115923238Y-124464000D01*
X115875619Y-124440190D01*
X115756571Y-124440190D01*
X115685143Y-124464000D01*
X116566095Y-124354000D02*
X115589905Y-124354000D01*
X113895142Y-124797333D02*
X113657047Y-124797333D01*
X113942761Y-124940190D02*
X113776094Y-124440190D01*
X113609428Y-124940190D01*
X113180857Y-124940190D02*
X113466571Y-124940190D01*
X113323714Y-124940190D02*
X113323714Y-124440190D01*
X113371333Y-124511619D01*
X113418952Y-124559238D01*
X113466571Y-124583048D01*
X111355142Y-124797333D02*
X111117047Y-124797333D01*
X111402761Y-124940190D02*
X111236094Y-124440190D01*
X111069428Y-124940190D01*
X110807523Y-124440190D02*
X110759904Y-124440190D01*
X110712285Y-124464000D01*
X110688476Y-124487810D01*
X110664666Y-124535429D01*
X110640857Y-124630667D01*
X110640857Y-124749714D01*
X110664666Y-124844952D01*
X110688476Y-124892571D01*
X110712285Y-124916381D01*
X110759904Y-124940190D01*
X110807523Y-124940190D01*
X110855142Y-124916381D01*
X110878952Y-124892571D01*
X110902761Y-124844952D01*
X110926571Y-124749714D01*
X110926571Y-124630667D01*
X110902761Y-124535429D01*
X110878952Y-124487810D01*
X110855142Y-124464000D01*
X110807523Y-124440190D01*
X84962953Y-159008000D02*
X85010572Y-158984190D01*
X85082000Y-158984190D01*
X85153429Y-159008000D01*
X85201048Y-159055619D01*
X85224857Y-159103238D01*
X85248667Y-159198476D01*
X85248667Y-159269905D01*
X85224857Y-159365143D01*
X85201048Y-159412762D01*
X85153429Y-159460381D01*
X85082000Y-159484190D01*
X85034381Y-159484190D01*
X84962953Y-159460381D01*
X84939143Y-159436571D01*
X84939143Y-159269905D01*
X85034381Y-159269905D01*
X84724857Y-159484190D02*
X84724857Y-158984190D01*
X84439143Y-159484190D01*
X84439143Y-158984190D01*
X84201047Y-159484190D02*
X84201047Y-158984190D01*
X84082000Y-158984190D01*
X84010571Y-159008000D01*
X83962952Y-159055619D01*
X83939143Y-159103238D01*
X83915333Y-159198476D01*
X83915333Y-159269905D01*
X83939143Y-159365143D01*
X83962952Y-159412762D01*
X84010571Y-159460381D01*
X84082000Y-159484190D01*
X84201047Y-159484190D01*
X87764856Y-159293714D02*
X87383904Y-159293714D01*
X87574380Y-159484190D02*
X87574380Y-159103238D01*
X86907713Y-158984190D02*
X87145808Y-158984190D01*
X87169618Y-159222286D01*
X87145808Y-159198476D01*
X87098189Y-159174667D01*
X86979142Y-159174667D01*
X86931523Y-159198476D01*
X86907713Y-159222286D01*
X86883904Y-159269905D01*
X86883904Y-159388952D01*
X86907713Y-159436571D01*
X86931523Y-159460381D01*
X86979142Y-159484190D01*
X87098189Y-159484190D01*
X87145808Y-159460381D01*
X87169618Y-159436571D01*
X86741047Y-158984190D02*
X86574380Y-159484190D01*
X86407714Y-158984190D01*
X90994177Y-159983579D02*
X91217914Y-160065013D01*
X91388924Y-159595166D01*
X90585365Y-159784109D02*
X90599596Y-159814626D01*
X90658573Y-159861429D01*
X90703320Y-159877716D01*
X90778584Y-159879773D01*
X90839618Y-159851312D01*
X90878278Y-159814708D01*
X90933226Y-159733357D01*
X90957656Y-159666236D01*
X90967855Y-159568598D01*
X90961768Y-159515708D01*
X90933308Y-159454674D01*
X90874330Y-159407870D01*
X90829583Y-159391583D01*
X90754319Y-159389527D01*
X90723801Y-159403758D01*
X90367715Y-159755566D02*
X90538725Y-159285719D01*
X90426858Y-159245003D01*
X90351593Y-159242947D01*
X90290559Y-159271407D01*
X90251899Y-159308012D01*
X90196952Y-159389362D01*
X90172522Y-159456484D01*
X90162323Y-159554122D01*
X90168409Y-159607012D01*
X90196870Y-159668046D01*
X90255848Y-159714849D01*
X90367715Y-159755566D01*
X89993451Y-159670021D02*
X89635473Y-159539727D01*
X89287695Y-159311795D02*
X89301925Y-159342313D01*
X89360902Y-159389116D01*
X89405650Y-159405402D01*
X89480914Y-159407459D01*
X89541948Y-159378999D01*
X89580608Y-159342395D01*
X89635555Y-159261044D01*
X89659985Y-159193923D01*
X89670184Y-159096285D01*
X89664098Y-159043394D01*
X89635637Y-158982360D01*
X89576660Y-158935556D01*
X89531912Y-158919269D01*
X89456649Y-158917214D01*
X89426131Y-158931444D01*
X89151561Y-158780833D02*
X89062066Y-158748259D01*
X89009175Y-158754347D01*
X88948142Y-158782807D01*
X88893195Y-158864159D01*
X88836192Y-159020774D01*
X88825991Y-159118412D01*
X88854452Y-159179446D01*
X88891056Y-159218106D01*
X88980550Y-159250679D01*
X89033441Y-159244593D01*
X89094475Y-159216132D01*
X89149422Y-159134781D01*
X89206426Y-158978165D01*
X89216625Y-158880527D01*
X89188164Y-158819493D01*
X89151561Y-158780833D01*
X88577825Y-159104099D02*
X88748835Y-158634252D01*
X88309341Y-159006379D01*
X88480351Y-158536533D01*
X88323736Y-158479529D02*
X88055252Y-158381809D01*
X88018484Y-158900515D02*
X88189494Y-158430669D01*
X93086704Y-159820712D02*
X93310440Y-159902146D01*
X93481450Y-159432299D01*
X92677892Y-159621242D02*
X92692122Y-159651759D01*
X92751100Y-159698562D01*
X92795847Y-159714849D01*
X92871111Y-159716906D01*
X92932145Y-159688445D01*
X92970805Y-159651841D01*
X93025752Y-159570490D01*
X93050183Y-159503369D01*
X93060382Y-159405731D01*
X93054295Y-159352841D01*
X93025835Y-159291807D01*
X92966857Y-159245003D01*
X92922110Y-159228716D01*
X92846846Y-159226660D01*
X92816328Y-159240891D01*
X92460242Y-159592699D02*
X92631252Y-159122853D01*
X92519385Y-159082136D01*
X92444120Y-159080080D01*
X92383086Y-159108541D01*
X92344426Y-159145145D01*
X92289479Y-159226496D01*
X92265049Y-159293617D01*
X92254849Y-159391255D01*
X92260936Y-159444145D01*
X92289396Y-159505179D01*
X92348375Y-159551982D01*
X92460242Y-159592699D01*
X92085977Y-159507154D02*
X91728000Y-159376860D01*
X91363935Y-159193676D02*
X91601984Y-159026943D01*
X91632418Y-159291396D02*
X91803428Y-158821549D01*
X91624439Y-158756403D01*
X91571549Y-158762490D01*
X91541032Y-158776721D01*
X91502371Y-158813325D01*
X91477941Y-158880445D01*
X91484029Y-158933336D01*
X91498258Y-158963853D01*
X91534862Y-159002513D01*
X91713851Y-159067659D01*
X91193089Y-159106156D02*
X91117825Y-159104099D01*
X91005957Y-159063382D01*
X90969353Y-159024723D01*
X90955122Y-158994205D01*
X90949036Y-158941315D01*
X90965322Y-158896567D01*
X91003982Y-158859963D01*
X91034500Y-158845734D01*
X91087390Y-158839646D01*
X91185028Y-158849846D01*
X91237919Y-158843759D01*
X91268435Y-158829529D01*
X91307096Y-158792925D01*
X91323382Y-158748178D01*
X91317295Y-158695287D01*
X91303065Y-158664770D01*
X91266461Y-158626109D01*
X91154593Y-158585392D01*
X91079329Y-158583337D01*
X95917562Y-159926576D02*
X96141298Y-160008009D01*
X96312308Y-159538163D01*
X95508749Y-159727105D02*
X95522980Y-159757623D01*
X95581957Y-159804426D01*
X95626704Y-159820712D01*
X95701969Y-159822769D01*
X95763003Y-159794309D01*
X95801662Y-159757705D01*
X95856610Y-159676354D01*
X95881040Y-159609233D01*
X95891239Y-159511595D01*
X95885153Y-159458704D01*
X95856692Y-159397670D01*
X95797714Y-159350866D01*
X95752967Y-159334579D01*
X95677703Y-159332524D01*
X95647186Y-159346754D01*
X95291100Y-159698562D02*
X95462110Y-159228716D01*
X95350242Y-159187999D01*
X95274977Y-159185943D01*
X95213943Y-159214404D01*
X95175284Y-159251008D01*
X95120336Y-159332359D01*
X95095906Y-159399480D01*
X95085707Y-159497118D01*
X95091793Y-159550009D01*
X95120254Y-159611043D01*
X95179232Y-159657846D01*
X95291100Y-159698562D01*
X94916835Y-159613017D02*
X94558857Y-159482724D01*
X94194792Y-159299539D02*
X94432841Y-159132806D01*
X94463275Y-159397259D02*
X94634286Y-158927413D01*
X94455297Y-158862266D01*
X94402406Y-158868353D01*
X94371889Y-158882584D01*
X94333229Y-158919188D01*
X94308799Y-158986308D01*
X94314886Y-159039199D01*
X94329116Y-159069716D01*
X94365720Y-159108376D01*
X94544709Y-159173523D01*
X93836979Y-158611880D02*
X94019834Y-159362548D01*
X93716966Y-158593536D02*
X93434088Y-159022665D01*
X93466744Y-158654488D01*
X93255100Y-158957519D01*
X93314241Y-158446956D01*
X93813566Y-158536974D02*
X93276598Y-158341533D01*
X97920594Y-159731136D02*
X98144330Y-159812569D01*
X98315340Y-159342723D01*
X97511782Y-159531665D02*
X97526012Y-159562183D01*
X97584989Y-159608985D01*
X97629737Y-159625272D01*
X97705001Y-159627329D01*
X97766035Y-159598869D01*
X97804695Y-159562265D01*
X97859642Y-159480914D01*
X97884072Y-159413792D01*
X97894272Y-159316154D01*
X97888185Y-159263264D01*
X97859724Y-159202230D01*
X97800747Y-159155426D01*
X97755999Y-159139139D01*
X97680736Y-159137083D01*
X97650218Y-159151314D01*
X97294132Y-159503122D02*
X97465142Y-159033276D01*
X97353274Y-158992559D01*
X97278010Y-158990503D01*
X97216976Y-159018964D01*
X97178316Y-159055568D01*
X97123369Y-159136919D01*
X97098938Y-159204040D01*
X97088739Y-159301678D01*
X97094826Y-159354568D01*
X97123286Y-159415602D01*
X97182264Y-159462406D01*
X97294132Y-159503122D01*
X96919867Y-159417577D02*
X96561889Y-159287284D01*
X96555884Y-158955709D02*
X96399270Y-158898706D01*
X96242572Y-159120385D02*
X96466308Y-159201819D01*
X96637318Y-158731972D01*
X96413582Y-158650539D01*
X110866704Y-159820712D02*
X111090440Y-159902146D01*
X111261450Y-159432299D01*
X110457892Y-159621242D02*
X110472122Y-159651759D01*
X110531100Y-159698562D01*
X110575847Y-159714849D01*
X110651111Y-159716906D01*
X110712145Y-159688445D01*
X110750805Y-159651841D01*
X110805752Y-159570490D01*
X110830183Y-159503369D01*
X110840382Y-159405731D01*
X110834295Y-159352841D01*
X110805835Y-159291807D01*
X110746857Y-159245003D01*
X110702110Y-159228716D01*
X110626846Y-159226660D01*
X110596328Y-159240891D01*
X110240242Y-159592699D02*
X110411252Y-159122853D01*
X110299385Y-159082136D01*
X110224120Y-159080080D01*
X110163086Y-159108541D01*
X110124426Y-159145145D01*
X110069479Y-159226496D01*
X110045049Y-159293617D01*
X110034849Y-159391255D01*
X110040936Y-159444145D01*
X110069396Y-159505179D01*
X110128375Y-159551982D01*
X110240242Y-159592699D01*
X109865977Y-159507154D02*
X109508000Y-159376860D01*
X109412418Y-159291396D02*
X109583428Y-158821549D01*
X109471561Y-158780833D01*
X109396296Y-158778777D01*
X109335262Y-158807237D01*
X109296602Y-158843841D01*
X109241655Y-158925192D01*
X109217225Y-158992314D01*
X109207025Y-159089951D01*
X109213112Y-159142842D01*
X109241572Y-159203876D01*
X109300550Y-159250679D01*
X109412418Y-159291396D01*
X108855216Y-158733865D02*
X108741210Y-159047096D01*
X109032231Y-158595593D02*
X109021949Y-158971914D01*
X108731092Y-158866051D01*
X113406704Y-159820712D02*
X113630440Y-159902146D01*
X113801450Y-159432299D01*
X112997892Y-159621242D02*
X113012122Y-159651759D01*
X113071100Y-159698562D01*
X113115847Y-159714849D01*
X113191111Y-159716906D01*
X113252145Y-159688445D01*
X113290805Y-159651841D01*
X113345752Y-159570490D01*
X113370183Y-159503369D01*
X113380382Y-159405731D01*
X113374295Y-159352841D01*
X113345835Y-159291807D01*
X113286857Y-159245003D01*
X113242110Y-159228716D01*
X113166846Y-159226660D01*
X113136328Y-159240891D01*
X112780242Y-159592699D02*
X112951252Y-159122853D01*
X112839385Y-159082136D01*
X112764120Y-159080080D01*
X112703086Y-159108541D01*
X112664426Y-159145145D01*
X112609479Y-159226496D01*
X112585049Y-159293617D01*
X112574849Y-159391255D01*
X112580936Y-159444145D01*
X112609396Y-159505179D01*
X112668375Y-159551982D01*
X112780242Y-159592699D01*
X112405977Y-159507154D02*
X112048000Y-159376860D01*
X111952418Y-159291396D02*
X112123428Y-158821549D01*
X112011561Y-158780833D01*
X111936296Y-158778777D01*
X111875262Y-158807237D01*
X111836602Y-158843841D01*
X111781655Y-158925192D01*
X111757225Y-158992314D01*
X111747025Y-159089951D01*
X111753112Y-159142842D01*
X111781572Y-159203876D01*
X111840550Y-159250679D01*
X111952418Y-159291396D01*
X111429846Y-158569106D02*
X111653582Y-158650539D01*
X111594522Y-158882420D01*
X111580292Y-158851902D01*
X111543688Y-158813242D01*
X111431820Y-158772526D01*
X111378930Y-158778612D01*
X111348412Y-158792843D01*
X111309752Y-158829447D01*
X111269036Y-158941315D01*
X111275122Y-158994205D01*
X111289353Y-159024723D01*
X111325957Y-159063382D01*
X111437825Y-159104099D01*
X111490715Y-159098012D01*
X111521233Y-159083782D01*
X115946704Y-159820712D02*
X116170440Y-159902146D01*
X116341450Y-159432299D01*
X115537892Y-159621242D02*
X115552122Y-159651759D01*
X115611100Y-159698562D01*
X115655847Y-159714849D01*
X115731111Y-159716906D01*
X115792145Y-159688445D01*
X115830805Y-159651841D01*
X115885752Y-159570490D01*
X115910183Y-159503369D01*
X115920382Y-159405731D01*
X115914295Y-159352841D01*
X115885835Y-159291807D01*
X115826857Y-159245003D01*
X115782110Y-159228716D01*
X115706846Y-159226660D01*
X115676328Y-159240891D01*
X115320242Y-159592699D02*
X115491252Y-159122853D01*
X115379385Y-159082136D01*
X115304120Y-159080080D01*
X115243086Y-159108541D01*
X115204426Y-159145145D01*
X115149479Y-159226496D01*
X115125049Y-159293617D01*
X115114849Y-159391255D01*
X115120936Y-159444145D01*
X115149396Y-159505179D01*
X115208375Y-159551982D01*
X115320242Y-159592699D01*
X114945977Y-159507154D02*
X114588000Y-159376860D01*
X114492418Y-159291396D02*
X114663428Y-158821549D01*
X114551561Y-158780833D01*
X114476296Y-158778777D01*
X114415262Y-158807237D01*
X114376602Y-158843841D01*
X114321655Y-158925192D01*
X114297225Y-158992314D01*
X114287025Y-159089951D01*
X114293112Y-159142842D01*
X114321572Y-159203876D01*
X114380550Y-159250679D01*
X114492418Y-159291396D01*
X113992220Y-158577249D02*
X114081714Y-158609823D01*
X114118318Y-158648483D01*
X114132548Y-158679001D01*
X114152865Y-158762408D01*
X114142666Y-158860046D01*
X114077519Y-159039034D01*
X114038858Y-159075638D01*
X114008342Y-159089869D01*
X113955451Y-159095956D01*
X113865957Y-159063382D01*
X113829353Y-159024723D01*
X113815122Y-158994205D01*
X113809036Y-158941315D01*
X113849752Y-158829447D01*
X113888412Y-158792843D01*
X113918930Y-158778612D01*
X113971820Y-158772526D01*
X114061314Y-158805099D01*
X114097919Y-158843759D01*
X114112148Y-158874276D01*
X114118236Y-158927167D01*
X118486704Y-159820712D02*
X118710440Y-159902146D01*
X118881450Y-159432299D01*
X118077892Y-159621242D02*
X118092122Y-159651759D01*
X118151100Y-159698562D01*
X118195847Y-159714849D01*
X118271111Y-159716906D01*
X118332145Y-159688445D01*
X118370805Y-159651841D01*
X118425752Y-159570490D01*
X118450183Y-159503369D01*
X118460382Y-159405731D01*
X118454295Y-159352841D01*
X118425835Y-159291807D01*
X118366857Y-159245003D01*
X118322110Y-159228716D01*
X118246846Y-159226660D01*
X118216328Y-159240891D01*
X117860242Y-159592699D02*
X118031252Y-159122853D01*
X117919385Y-159082136D01*
X117844120Y-159080080D01*
X117783086Y-159108541D01*
X117744426Y-159145145D01*
X117689479Y-159226496D01*
X117665049Y-159293617D01*
X117654849Y-159391255D01*
X117660936Y-159444145D01*
X117689396Y-159505179D01*
X117748375Y-159551982D01*
X117860242Y-159592699D01*
X117485977Y-159507154D02*
X117128000Y-159376860D01*
X117032418Y-159291396D02*
X117203428Y-158821549D01*
X117091561Y-158780833D01*
X117016296Y-158778777D01*
X116955262Y-158807237D01*
X116916602Y-158843841D01*
X116861655Y-158925192D01*
X116837225Y-158992314D01*
X116827025Y-159089951D01*
X116833112Y-159142842D01*
X116861572Y-159203876D01*
X116920550Y-159250679D01*
X117032418Y-159291396D01*
X116778329Y-158666826D02*
X116465098Y-158552819D01*
X116495451Y-159095956D01*
X121022951Y-159293714D02*
X120641999Y-159293714D01*
X120832475Y-159484190D02*
X120832475Y-159103238D01*
X120141999Y-159484190D02*
X120427713Y-159484190D01*
X120284856Y-159484190D02*
X120284856Y-158984190D01*
X120332475Y-159055619D01*
X120380094Y-159103238D01*
X120427713Y-159127048D01*
X119951523Y-159031810D02*
X119927713Y-159008000D01*
X119880094Y-158984190D01*
X119761047Y-158984190D01*
X119713428Y-159008000D01*
X119689618Y-159031810D01*
X119665809Y-159079429D01*
X119665809Y-159127048D01*
X119689618Y-159198476D01*
X119975332Y-159484190D01*
X119665809Y-159484190D01*
X119522952Y-158984190D02*
X119356285Y-159484190D01*
X119189619Y-158984190D01*
X123768067Y-159894003D02*
X123991803Y-159975436D01*
X124162813Y-159505589D01*
X123359255Y-159694532D02*
X123373485Y-159725049D01*
X123432463Y-159771852D01*
X123477210Y-159788139D01*
X123552474Y-159790196D01*
X123613508Y-159761736D01*
X123652168Y-159725131D01*
X123707115Y-159643780D01*
X123731545Y-159576659D01*
X123741745Y-159479021D01*
X123735658Y-159426131D01*
X123707198Y-159365097D01*
X123648220Y-159318293D01*
X123603473Y-159302006D01*
X123528209Y-159299950D01*
X123497691Y-159314181D01*
X123141605Y-159665989D02*
X123312615Y-159196143D01*
X123200748Y-159155426D01*
X123125483Y-159153370D01*
X123064449Y-159181831D01*
X123025789Y-159218435D01*
X122970842Y-159299786D01*
X122946412Y-159366907D01*
X122936212Y-159464545D01*
X122942299Y-159517435D01*
X122970759Y-159578469D01*
X123029738Y-159625272D01*
X123141605Y-159665989D01*
X122767340Y-159580444D02*
X122409363Y-159450151D01*
X122246743Y-159061573D02*
X122171478Y-159059516D01*
X122140962Y-159073747D01*
X122102301Y-159110351D01*
X122077871Y-159177471D01*
X122083958Y-159230362D01*
X122098188Y-159260879D01*
X122134792Y-159299539D01*
X122313781Y-159364686D01*
X122484791Y-158894839D01*
X122328176Y-158837836D01*
X122275286Y-158843924D01*
X122244768Y-158858154D01*
X122206108Y-158894758D01*
X122189822Y-158939505D01*
X122195908Y-158992396D01*
X122210139Y-159022913D01*
X122246743Y-159061573D01*
X122403357Y-159118576D01*
X121620199Y-159112242D02*
X121843935Y-159193676D01*
X122014945Y-158723829D01*
X121463583Y-159055239D02*
X121634593Y-158585392D01*
X121195100Y-158957519D02*
X121494182Y-158762326D01*
X121366110Y-158487673D02*
X121536873Y-158853877D01*
D11*
X105329240Y-112214381D02*
X105329240Y-111214381D01*
X104995906Y-111928667D01*
X104662573Y-111214381D01*
X104662573Y-112214381D01*
X104186383Y-112214381D02*
X104186383Y-111547714D01*
X104186383Y-111214381D02*
X104234002Y-111262000D01*
X104186383Y-111309619D01*
X104138764Y-111262000D01*
X104186383Y-111214381D01*
X104186383Y-111309619D01*
X103281621Y-112166762D02*
X103376859Y-112214381D01*
X103567336Y-112214381D01*
X103662574Y-112166762D01*
X103710193Y-112119143D01*
X103757812Y-112023905D01*
X103757812Y-111738190D01*
X103710193Y-111642952D01*
X103662574Y-111595333D01*
X103567336Y-111547714D01*
X103376859Y-111547714D01*
X103281621Y-111595333D01*
X102853050Y-112214381D02*
X102853050Y-111547714D01*
X102853050Y-111738190D02*
X102805431Y-111642952D01*
X102757812Y-111595333D01*
X102662574Y-111547714D01*
X102567335Y-111547714D01*
X102091145Y-112214381D02*
X102186383Y-112166762D01*
X102234002Y-112119143D01*
X102281621Y-112023905D01*
X102281621Y-111738190D01*
X102234002Y-111642952D01*
X102186383Y-111595333D01*
X102091145Y-111547714D01*
X101948287Y-111547714D01*
X101853049Y-111595333D01*
X101805430Y-111642952D01*
X101757811Y-111738190D01*
X101757811Y-112023905D01*
X101805430Y-112119143D01*
X101853049Y-112166762D01*
X101948287Y-112214381D01*
X102091145Y-112214381D01*
X100995906Y-111690571D02*
X101329240Y-111690571D01*
X101329240Y-112214381D02*
X101329240Y-111214381D01*
X100853049Y-111214381D01*
X99995906Y-112214381D02*
X100472097Y-112214381D01*
X100472097Y-111214381D01*
X99662573Y-112214381D02*
X99662573Y-111547714D01*
X99662573Y-111214381D02*
X99710192Y-111262000D01*
X99662573Y-111309619D01*
X99614954Y-111262000D01*
X99662573Y-111214381D01*
X99662573Y-111309619D01*
X98614954Y-112119143D02*
X98662573Y-112166762D01*
X98805430Y-112214381D01*
X98900668Y-112214381D01*
X99043526Y-112166762D01*
X99138764Y-112071524D01*
X99186383Y-111976286D01*
X99234002Y-111785810D01*
X99234002Y-111642952D01*
X99186383Y-111452476D01*
X99138764Y-111357238D01*
X99043526Y-111262000D01*
X98900668Y-111214381D01*
X98805430Y-111214381D01*
X98662573Y-111262000D01*
X98614954Y-111309619D01*
X96948287Y-112214381D02*
X97424478Y-112214381D01*
X97424478Y-111214381D01*
X96043525Y-112119143D02*
X96091144Y-112166762D01*
X96234001Y-112214381D01*
X96329239Y-112214381D01*
X96472097Y-112166762D01*
X96567335Y-112071524D01*
X96614954Y-111976286D01*
X96662573Y-111785810D01*
X96662573Y-111642952D01*
X96614954Y-111452476D01*
X96567335Y-111357238D01*
X96472097Y-111262000D01*
X96329239Y-111214381D01*
X96234001Y-111214381D01*
X96091144Y-111262000D01*
X96043525Y-111309619D01*
X95614954Y-112214381D02*
X95614954Y-111214381D01*
X95376859Y-111214381D01*
X95234001Y-111262000D01*
X95138763Y-111357238D01*
X95091144Y-111452476D01*
X95043525Y-111642952D01*
X95043525Y-111785810D01*
X95091144Y-111976286D01*
X95138763Y-112071524D01*
X95234001Y-112166762D01*
X95376859Y-112214381D01*
X95614954Y-112214381D01*
X93424477Y-112166762D02*
X93519715Y-112214381D01*
X93710192Y-112214381D01*
X93805430Y-112166762D01*
X93853049Y-112119143D01*
X93900668Y-112023905D01*
X93900668Y-111738190D01*
X93853049Y-111642952D01*
X93805430Y-111595333D01*
X93710192Y-111547714D01*
X93519715Y-111547714D01*
X93424477Y-111595333D01*
X92853049Y-112214381D02*
X92948287Y-112166762D01*
X92995906Y-112119143D01*
X93043525Y-112023905D01*
X93043525Y-111738190D01*
X92995906Y-111642952D01*
X92948287Y-111595333D01*
X92853049Y-111547714D01*
X92710191Y-111547714D01*
X92614953Y-111595333D01*
X92567334Y-111642952D01*
X92519715Y-111738190D01*
X92519715Y-112023905D01*
X92567334Y-112119143D01*
X92614953Y-112166762D01*
X92710191Y-112214381D01*
X92853049Y-112214381D01*
X92091144Y-111547714D02*
X92091144Y-112214381D01*
X92091144Y-111642952D02*
X92043525Y-111595333D01*
X91948287Y-111547714D01*
X91805429Y-111547714D01*
X91710191Y-111595333D01*
X91662572Y-111690571D01*
X91662572Y-112214381D01*
X91329239Y-111547714D02*
X90948287Y-111547714D01*
X91186382Y-111214381D02*
X91186382Y-112071524D01*
X91138763Y-112166762D01*
X91043525Y-112214381D01*
X90948287Y-112214381D01*
X90614953Y-112214381D02*
X90614953Y-111547714D01*
X90614953Y-111738190D02*
X90567334Y-111642952D01*
X90519715Y-111595333D01*
X90424477Y-111547714D01*
X90329238Y-111547714D01*
X89853048Y-112214381D02*
X89948286Y-112166762D01*
X89995905Y-112119143D01*
X90043524Y-112023905D01*
X90043524Y-111738190D01*
X89995905Y-111642952D01*
X89948286Y-111595333D01*
X89853048Y-111547714D01*
X89710190Y-111547714D01*
X89614952Y-111595333D01*
X89567333Y-111642952D01*
X89519714Y-111738190D01*
X89519714Y-112023905D01*
X89567333Y-112119143D01*
X89614952Y-112166762D01*
X89710190Y-112214381D01*
X89853048Y-112214381D01*
X88948286Y-112214381D02*
X89043524Y-112166762D01*
X89091143Y-112071524D01*
X89091143Y-111214381D01*
X88424476Y-112214381D02*
X88519714Y-112166762D01*
X88567333Y-112071524D01*
X88567333Y-111214381D01*
X87662570Y-112166762D02*
X87757808Y-112214381D01*
X87948285Y-112214381D01*
X88043523Y-112166762D01*
X88091142Y-112071524D01*
X88091142Y-111690571D01*
X88043523Y-111595333D01*
X87948285Y-111547714D01*
X87757808Y-111547714D01*
X87662570Y-111595333D01*
X87614951Y-111690571D01*
X87614951Y-111785810D01*
X88091142Y-111881048D01*
X87186380Y-112214381D02*
X87186380Y-111547714D01*
X87186380Y-111738190D02*
X87138761Y-111642952D01*
X87091142Y-111595333D01*
X86995904Y-111547714D01*
X86900665Y-111547714D01*
X85900665Y-111547714D02*
X85662570Y-112214381D01*
X85424474Y-111547714D01*
X84519712Y-112214381D02*
X85091141Y-112214381D01*
X84805427Y-112214381D02*
X84805427Y-111214381D01*
X84900665Y-111357238D01*
X84995903Y-111452476D01*
X85091141Y-111500095D01*
X84091141Y-112119143D02*
X84043522Y-112166762D01*
X84091141Y-112214381D01*
X84138760Y-112166762D01*
X84091141Y-112119143D01*
X84091141Y-112214381D01*
X83424475Y-111214381D02*
X83329236Y-111214381D01*
X83233998Y-111262000D01*
X83186379Y-111309619D01*
X83138760Y-111404857D01*
X83091141Y-111595333D01*
X83091141Y-111833429D01*
X83138760Y-112023905D01*
X83186379Y-112119143D01*
X83233998Y-112166762D01*
X83329236Y-112214381D01*
X83424475Y-112214381D01*
X83519713Y-112166762D01*
X83567332Y-112119143D01*
X83614951Y-112023905D01*
X83662570Y-111833429D01*
X83662570Y-111595333D01*
X83614951Y-111404857D01*
X83567332Y-111309619D01*
X83519713Y-111262000D01*
X83424475Y-111214381D01*
X101091143Y-112734381D02*
X101091143Y-113448667D01*
X101138763Y-113591524D01*
X101234001Y-113686762D01*
X101376858Y-113734381D01*
X101472096Y-113734381D01*
X100186381Y-113734381D02*
X100186381Y-113210571D01*
X100234000Y-113115333D01*
X100329238Y-113067714D01*
X100519715Y-113067714D01*
X100614953Y-113115333D01*
X100186381Y-113686762D02*
X100281619Y-113734381D01*
X100519715Y-113734381D01*
X100614953Y-113686762D01*
X100662572Y-113591524D01*
X100662572Y-113496286D01*
X100614953Y-113401048D01*
X100519715Y-113353429D01*
X100281619Y-113353429D01*
X100186381Y-113305810D01*
X99710191Y-113734381D02*
X99710191Y-112734381D01*
X99614953Y-113353429D02*
X99329238Y-113734381D01*
X99329238Y-113067714D02*
X99710191Y-113448667D01*
X98472095Y-113067714D02*
X98472095Y-113734381D01*
X98900667Y-113067714D02*
X98900667Y-113591524D01*
X98853048Y-113686762D01*
X98757810Y-113734381D01*
X98614952Y-113734381D01*
X98519714Y-113686762D01*
X98472095Y-113639143D01*
X97995905Y-113734381D02*
X97995905Y-112734381D01*
X97995905Y-113115333D02*
X97900667Y-113067714D01*
X97710190Y-113067714D01*
X97614952Y-113115333D01*
X97567333Y-113162952D01*
X97519714Y-113258190D01*
X97519714Y-113543905D01*
X97567333Y-113639143D01*
X97614952Y-113686762D01*
X97710190Y-113734381D01*
X97900667Y-113734381D01*
X97995905Y-113686762D01*
X96329238Y-113734381D02*
X96329238Y-112734381D01*
X95757809Y-113734381D01*
X95757809Y-112734381D01*
X94900666Y-113686762D02*
X94995904Y-113734381D01*
X95186381Y-113734381D01*
X95281619Y-113686762D01*
X95329238Y-113591524D01*
X95329238Y-113210571D01*
X95281619Y-113115333D01*
X95186381Y-113067714D01*
X94995904Y-113067714D01*
X94900666Y-113115333D01*
X94853047Y-113210571D01*
X94853047Y-113305810D01*
X95329238Y-113401048D01*
X93995904Y-113734381D02*
X93995904Y-112734381D01*
X93995904Y-113686762D02*
X94091142Y-113734381D01*
X94281619Y-113734381D01*
X94376857Y-113686762D01*
X94424476Y-113639143D01*
X94472095Y-113543905D01*
X94472095Y-113258190D01*
X94424476Y-113162952D01*
X94376857Y-113115333D01*
X94281619Y-113067714D01*
X94091142Y-113067714D01*
X93995904Y-113115333D01*
X93519714Y-113734381D02*
X93519714Y-112734381D01*
X93519714Y-113115333D02*
X93424476Y-113067714D01*
X93233999Y-113067714D01*
X93138761Y-113115333D01*
X93091142Y-113162952D01*
X93043523Y-113258190D01*
X93043523Y-113543905D01*
X93091142Y-113639143D01*
X93138761Y-113686762D01*
X93233999Y-113734381D01*
X93424476Y-113734381D01*
X93519714Y-113686762D01*
X92186380Y-113734381D02*
X92186380Y-113210571D01*
X92233999Y-113115333D01*
X92329237Y-113067714D01*
X92519714Y-113067714D01*
X92614952Y-113115333D01*
X92186380Y-113686762D02*
X92281618Y-113734381D01*
X92519714Y-113734381D01*
X92614952Y-113686762D01*
X92662571Y-113591524D01*
X92662571Y-113496286D01*
X92614952Y-113401048D01*
X92519714Y-113353429D01*
X92281618Y-113353429D01*
X92186380Y-113305810D01*
X91567333Y-113734381D02*
X91662571Y-113686762D01*
X91710190Y-113591524D01*
X91710190Y-112734381D01*
X90472094Y-112829619D02*
X90424475Y-112782000D01*
X90329237Y-112734381D01*
X90091141Y-112734381D01*
X89995903Y-112782000D01*
X89948284Y-112829619D01*
X89900665Y-112924857D01*
X89900665Y-113020095D01*
X89948284Y-113162952D01*
X90519713Y-113734381D01*
X89900665Y-113734381D01*
X89281618Y-112734381D02*
X89186379Y-112734381D01*
X89091141Y-112782000D01*
X89043522Y-112829619D01*
X88995903Y-112924857D01*
X88948284Y-113115333D01*
X88948284Y-113353429D01*
X88995903Y-113543905D01*
X89043522Y-113639143D01*
X89091141Y-113686762D01*
X89186379Y-113734381D01*
X89281618Y-113734381D01*
X89376856Y-113686762D01*
X89424475Y-113639143D01*
X89472094Y-113543905D01*
X89519713Y-113353429D01*
X89519713Y-113115333D01*
X89472094Y-112924857D01*
X89424475Y-112829619D01*
X89376856Y-112782000D01*
X89281618Y-112734381D01*
X87995903Y-113734381D02*
X88567332Y-113734381D01*
X88281618Y-113734381D02*
X88281618Y-112734381D01*
X88376856Y-112877238D01*
X88472094Y-112972476D01*
X88567332Y-113020095D01*
X87091141Y-112734381D02*
X87567332Y-112734381D01*
X87614951Y-113210571D01*
X87567332Y-113162952D01*
X87472094Y-113115333D01*
X87233998Y-113115333D01*
X87138760Y-113162952D01*
X87091141Y-113210571D01*
X87043522Y-113305810D01*
X87043522Y-113543905D01*
X87091141Y-113639143D01*
X87138760Y-113686762D01*
X87233998Y-113734381D01*
X87472094Y-113734381D01*
X87567332Y-113686762D01*
X87614951Y-113639143D01*
X109259429Y-150820381D02*
X109259429Y-149820381D01*
X109021334Y-149820381D01*
X108878476Y-149868000D01*
X108783238Y-149963238D01*
X108735619Y-150058476D01*
X108688000Y-150248952D01*
X108688000Y-150391810D01*
X108735619Y-150582286D01*
X108783238Y-150677524D01*
X108878476Y-150772762D01*
X109021334Y-150820381D01*
X109259429Y-150820381D01*
X108307048Y-150534667D02*
X107830857Y-150534667D01*
X108402286Y-150820381D02*
X108068953Y-149820381D01*
X107735619Y-150820381D01*
X106830857Y-150725143D02*
X106878476Y-150772762D01*
X107021333Y-150820381D01*
X107116571Y-150820381D01*
X107259429Y-150772762D01*
X107354667Y-150677524D01*
X107402286Y-150582286D01*
X107449905Y-150391810D01*
X107449905Y-150248952D01*
X107402286Y-150058476D01*
X107354667Y-149963238D01*
X107259429Y-149868000D01*
X107116571Y-149820381D01*
X107021333Y-149820381D01*
X106878476Y-149868000D01*
X106830857Y-149915619D01*
X106640381Y-150915619D02*
X105878476Y-150915619D01*
X105068952Y-150725143D02*
X105116571Y-150772762D01*
X105259428Y-150820381D01*
X105354666Y-150820381D01*
X105497524Y-150772762D01*
X105592762Y-150677524D01*
X105640381Y-150582286D01*
X105688000Y-150391810D01*
X105688000Y-150248952D01*
X105640381Y-150058476D01*
X105592762Y-149963238D01*
X105497524Y-149868000D01*
X105354666Y-149820381D01*
X105259428Y-149820381D01*
X105116571Y-149868000D01*
X105068952Y-149915619D01*
X104179429Y-150820381D02*
X104179429Y-149820381D01*
X103941334Y-149820381D01*
X103798476Y-149868000D01*
X103703238Y-149963238D01*
X103655619Y-150058476D01*
X103608000Y-150248952D01*
X103608000Y-150391810D01*
X103655619Y-150582286D01*
X103703238Y-150677524D01*
X103798476Y-150772762D01*
X103941334Y-150820381D01*
X104179429Y-150820381D01*
X103227048Y-150534667D02*
X102750857Y-150534667D01*
X103322286Y-150820381D02*
X102988953Y-149820381D01*
X102655619Y-150820381D01*
X101750857Y-150725143D02*
X101798476Y-150772762D01*
X101941333Y-150820381D01*
X102036571Y-150820381D01*
X102179429Y-150772762D01*
X102274667Y-150677524D01*
X102322286Y-150582286D01*
X102369905Y-150391810D01*
X102369905Y-150248952D01*
X102322286Y-150058476D01*
X102274667Y-149963238D01*
X102179429Y-149868000D01*
X102036571Y-149820381D01*
X101941333Y-149820381D01*
X101798476Y-149868000D01*
X101750857Y-149915619D01*
X101560381Y-150915619D02*
X100798476Y-150915619D01*
X100560381Y-150820381D02*
X100560381Y-149820381D01*
X100322286Y-149820381D01*
X100179428Y-149868000D01*
X100084190Y-149963238D01*
X100036571Y-150058476D01*
X99988952Y-150248952D01*
X99988952Y-150391810D01*
X100036571Y-150582286D01*
X100084190Y-150677524D01*
X100179428Y-150772762D01*
X100322286Y-150820381D01*
X100560381Y-150820381D01*
X129992286Y-155392381D02*
X129992286Y-154392381D01*
X129754191Y-154392381D01*
X129611333Y-154440000D01*
X129516095Y-154535238D01*
X129468476Y-154630476D01*
X129420857Y-154820952D01*
X129420857Y-154963810D01*
X129468476Y-155154286D01*
X129516095Y-155249524D01*
X129611333Y-155344762D01*
X129754191Y-155392381D01*
X129992286Y-155392381D01*
X128468476Y-155392381D02*
X129039905Y-155392381D01*
X128754191Y-155392381D02*
X128754191Y-154392381D01*
X128849429Y-154535238D01*
X128944667Y-154630476D01*
X129039905Y-154678095D01*
X128135143Y-154392381D02*
X127516095Y-154392381D01*
X127849429Y-154773333D01*
X127706571Y-154773333D01*
X127611333Y-154820952D01*
X127563714Y-154868571D01*
X127516095Y-154963810D01*
X127516095Y-155201905D01*
X127563714Y-155297143D01*
X127611333Y-155344762D01*
X127706571Y-155392381D01*
X127992286Y-155392381D01*
X128087524Y-155344762D01*
X128135143Y-155297143D01*
X131262286Y-134564381D02*
X131262286Y-133564381D01*
X131024191Y-133564381D01*
X130881333Y-133612000D01*
X130786095Y-133707238D01*
X130738476Y-133802476D01*
X130690857Y-133992952D01*
X130690857Y-134135810D01*
X130738476Y-134326286D01*
X130786095Y-134421524D01*
X130881333Y-134516762D01*
X131024191Y-134564381D01*
X131262286Y-134564381D01*
X129738476Y-134564381D02*
X130309905Y-134564381D01*
X130024191Y-134564381D02*
X130024191Y-133564381D01*
X130119429Y-133707238D01*
X130214667Y-133802476D01*
X130309905Y-133850095D01*
X129357524Y-133659619D02*
X129309905Y-133612000D01*
X129214667Y-133564381D01*
X128976571Y-133564381D01*
X128881333Y-133612000D01*
X128833714Y-133659619D01*
X128786095Y-133754857D01*
X128786095Y-133850095D01*
X128833714Y-133992952D01*
X129405143Y-134564381D01*
X128786095Y-134564381D01*
D12*
X132368000Y-140734000D02*
X131368000Y-140734000D01*
X132368000Y-148354000D02*
X132368000Y-140734000D01*
X131368000Y-148354000D02*
X132368000Y-148354000D01*
X84868000Y-137034000D02*
G75*
G03X84868000Y-137034000I-500000J0D01*
G01*
X84868000Y-152274000D02*
G75*
G03X84868000Y-152274000I-500000J0D01*
G01*
X130568000Y-137034000D02*
G75*
G03X130568000Y-137034000I-500000J0D01*
G01*
X130568000Y-152274000D02*
G75*
G03X130568000Y-152274000I-500000J0D01*
G01*
X83368000Y-153654000D02*
X131368000Y-153654000D01*
X131368000Y-153654000D02*
X131368000Y-135654000D01*
X131368000Y-135654000D02*
X83368000Y-135654000D01*
X83368000Y-135654000D02*
X83368000Y-153654000D01*
X106180000Y-140550000D02*
X105180000Y-140550000D01*
X105180000Y-138850000D02*
X106180000Y-138850000D01*
X106180000Y-142582000D02*
X105180000Y-142582000D01*
X105180000Y-140882000D02*
X106180000Y-140882000D01*
X115578000Y-141390000D02*
X116578000Y-141390000D01*
X116578000Y-143090000D02*
X115578000Y-143090000D01*
X130048000Y-130556000D02*
X109728000Y-130556000D01*
X112268000Y-125476000D02*
X130048000Y-125476000D01*
X130048000Y-130556000D02*
X130048000Y-125476000D01*
X109728000Y-130556000D02*
X109728000Y-128016000D01*
X109448000Y-126746000D02*
X109448000Y-125196000D01*
X109728000Y-128016000D02*
X112268000Y-128016000D01*
X112268000Y-128016000D02*
X112268000Y-125476000D01*
X109448000Y-125196000D02*
X110998000Y-125196000D01*
X110656000Y-114546000D02*
X110656000Y-113546000D01*
X112356000Y-113546000D02*
X112356000Y-114546000D01*
X96915000Y-132242000D02*
X96915000Y-133442000D01*
X98665000Y-133442000D02*
X98665000Y-132242000D01*
X110839143Y-143710000D02*
X110267714Y-143710000D01*
X110953428Y-144052857D02*
X110553428Y-142852857D01*
X110153428Y-144052857D01*
X109124857Y-144052857D02*
X109810572Y-144052857D01*
X109467714Y-144052857D02*
X109467714Y-142852857D01*
X109582000Y-143024286D01*
X109696286Y-143138571D01*
X109810572Y-143195714D01*
X116009428Y-145488000D02*
X115437999Y-145488000D01*
X116123713Y-145830857D02*
X115723713Y-144630857D01*
X115323713Y-145830857D01*
X114923714Y-145830857D02*
X114923714Y-145030857D01*
X114923714Y-145259429D02*
X114866571Y-145145143D01*
X114809428Y-145088000D01*
X114695142Y-145030857D01*
X114580857Y-145030857D01*
X113666571Y-145830857D02*
X113666571Y-144630857D01*
X113666571Y-145773714D02*
X113780857Y-145830857D01*
X114009428Y-145830857D01*
X114123714Y-145773714D01*
X114180857Y-145716571D01*
X114238000Y-145602286D01*
X114238000Y-145259429D01*
X114180857Y-145145143D01*
X114123714Y-145088000D01*
X114009428Y-145030857D01*
X113780857Y-145030857D01*
X113666571Y-145088000D01*
X112580857Y-145030857D02*
X112580857Y-145830857D01*
X113095143Y-145030857D02*
X113095143Y-145659429D01*
X113038000Y-145773714D01*
X112923714Y-145830857D01*
X112752286Y-145830857D01*
X112638000Y-145773714D01*
X112580857Y-145716571D01*
X112009429Y-145830857D02*
X112009429Y-145030857D01*
X112009429Y-144630857D02*
X112066572Y-144688000D01*
X112009429Y-144745143D01*
X111952286Y-144688000D01*
X112009429Y-144630857D01*
X112009429Y-144745143D01*
X111438000Y-145030857D02*
X111438000Y-145830857D01*
X111438000Y-145145143D02*
X111380857Y-145088000D01*
X111266571Y-145030857D01*
X111095143Y-145030857D01*
X110980857Y-145088000D01*
X110923714Y-145202286D01*
X110923714Y-145830857D01*
X110180857Y-145830857D02*
X110295143Y-145773714D01*
X110352286Y-145716571D01*
X110409429Y-145602286D01*
X110409429Y-145259429D01*
X110352286Y-145145143D01*
X110295143Y-145088000D01*
X110180857Y-145030857D01*
X110009429Y-145030857D01*
X109895143Y-145088000D01*
X109838000Y-145145143D01*
X109780857Y-145259429D01*
X109780857Y-145602286D01*
X109838000Y-145716571D01*
X109895143Y-145773714D01*
X110009429Y-145830857D01*
X110180857Y-145830857D01*
X108352286Y-145830857D02*
X108352286Y-144630857D01*
X107952286Y-145488000D01*
X107552286Y-144630857D01*
X107552286Y-145830857D01*
X106980857Y-145830857D02*
X106980857Y-145030857D01*
X106980857Y-144630857D02*
X107038000Y-144688000D01*
X106980857Y-144745143D01*
X106923714Y-144688000D01*
X106980857Y-144630857D01*
X106980857Y-144745143D01*
X105895142Y-145773714D02*
X106009428Y-145830857D01*
X106237999Y-145830857D01*
X106352285Y-145773714D01*
X106409428Y-145716571D01*
X106466571Y-145602286D01*
X106466571Y-145259429D01*
X106409428Y-145145143D01*
X106352285Y-145088000D01*
X106237999Y-145030857D01*
X106009428Y-145030857D01*
X105895142Y-145088000D01*
X105380857Y-145830857D02*
X105380857Y-145030857D01*
X105380857Y-145259429D02*
X105323714Y-145145143D01*
X105266571Y-145088000D01*
X105152285Y-145030857D01*
X105038000Y-145030857D01*
X104466571Y-145830857D02*
X104580857Y-145773714D01*
X104638000Y-145716571D01*
X104695143Y-145602286D01*
X104695143Y-145259429D01*
X104638000Y-145145143D01*
X104580857Y-145088000D01*
X104466571Y-145030857D01*
X104295143Y-145030857D01*
X104180857Y-145088000D01*
X104123714Y-145145143D01*
X104066571Y-145259429D01*
X104066571Y-145602286D01*
X104123714Y-145716571D01*
X104180857Y-145773714D01*
X104295143Y-145830857D01*
X104466571Y-145830857D01*
D13*
X108320666Y-139950000D02*
X108354000Y-139983333D01*
X108454000Y-140016667D01*
X108520666Y-140016667D01*
X108620666Y-139983333D01*
X108687333Y-139916667D01*
X108720666Y-139850000D01*
X108754000Y-139716667D01*
X108754000Y-139616667D01*
X108720666Y-139483333D01*
X108687333Y-139416667D01*
X108620666Y-139350000D01*
X108520666Y-139316667D01*
X108454000Y-139316667D01*
X108354000Y-139350000D01*
X108320666Y-139383333D01*
X107654000Y-140016667D02*
X108054000Y-140016667D01*
X107854000Y-140016667D02*
X107854000Y-139316667D01*
X107920666Y-139416667D01*
X107987333Y-139483333D01*
X108054000Y-139516667D01*
X109336666Y-141982000D02*
X109370000Y-142015333D01*
X109470000Y-142048667D01*
X109536666Y-142048667D01*
X109636666Y-142015333D01*
X109703333Y-141948667D01*
X109736666Y-141882000D01*
X109770000Y-141748667D01*
X109770000Y-141648667D01*
X109736666Y-141515333D01*
X109703333Y-141448667D01*
X109636666Y-141382000D01*
X109536666Y-141348667D01*
X109470000Y-141348667D01*
X109370000Y-141382000D01*
X109336666Y-141415333D01*
X109070000Y-141415333D02*
X109036666Y-141382000D01*
X108970000Y-141348667D01*
X108803333Y-141348667D01*
X108736666Y-141382000D01*
X108703333Y-141415333D01*
X108670000Y-141482000D01*
X108670000Y-141548667D01*
X108703333Y-141648667D01*
X109103333Y-142048667D01*
X108670000Y-142048667D01*
X116194666Y-140966000D02*
X116228000Y-140999333D01*
X116328000Y-141032667D01*
X116394666Y-141032667D01*
X116494666Y-140999333D01*
X116561333Y-140932667D01*
X116594666Y-140866000D01*
X116628000Y-140732667D01*
X116628000Y-140632667D01*
X116594666Y-140499333D01*
X116561333Y-140432667D01*
X116494666Y-140366000D01*
X116394666Y-140332667D01*
X116328000Y-140332667D01*
X116228000Y-140366000D01*
X116194666Y-140399333D01*
X115961333Y-140332667D02*
X115528000Y-140332667D01*
X115761333Y-140599333D01*
X115661333Y-140599333D01*
X115594666Y-140632667D01*
X115561333Y-140666000D01*
X115528000Y-140732667D01*
X115528000Y-140899333D01*
X115561333Y-140966000D01*
X115594666Y-140999333D01*
X115661333Y-141032667D01*
X115861333Y-141032667D01*
X115928000Y-140999333D01*
X115961333Y-140966000D01*
X109282667Y-127499334D02*
X108582667Y-127499334D01*
X108582667Y-127766000D01*
X108616000Y-127832667D01*
X108649333Y-127866000D01*
X108716000Y-127899334D01*
X108816000Y-127899334D01*
X108882667Y-127866000D01*
X108916000Y-127832667D01*
X108949333Y-127766000D01*
X108949333Y-127499334D01*
X109282667Y-128566000D02*
X109282667Y-128166000D01*
X109282667Y-128366000D02*
X108582667Y-128366000D01*
X108682667Y-128299334D01*
X108749333Y-128232667D01*
X108782667Y-128166000D01*
X110232000Y-113929334D02*
X110265333Y-113896000D01*
X110298667Y-113796000D01*
X110298667Y-113729334D01*
X110265333Y-113629334D01*
X110198667Y-113562667D01*
X110132000Y-113529334D01*
X109998667Y-113496000D01*
X109898667Y-113496000D01*
X109765333Y-113529334D01*
X109698667Y-113562667D01*
X109632000Y-113629334D01*
X109598667Y-113729334D01*
X109598667Y-113796000D01*
X109632000Y-113896000D01*
X109665333Y-113929334D01*
X109832000Y-114529334D02*
X110298667Y-114529334D01*
X109565333Y-114362667D02*
X110065333Y-114196000D01*
X110065333Y-114629334D01*
X99884667Y-132725334D02*
X99551333Y-132492000D01*
X99884667Y-132325334D02*
X99184667Y-132325334D01*
X99184667Y-132592000D01*
X99218000Y-132658667D01*
X99251333Y-132692000D01*
X99318000Y-132725334D01*
X99418000Y-132725334D01*
X99484667Y-132692000D01*
X99518000Y-132658667D01*
X99551333Y-132592000D01*
X99551333Y-132325334D01*
X99418000Y-133325334D02*
X99884667Y-133325334D01*
X99151333Y-133158667D02*
X99651333Y-132992000D01*
X99651333Y-133425334D01*
M02*
